G04 #@! TF.GenerationSoftware,KiCad,Pcbnew,8.0.6*
G04 #@! TF.CreationDate,2025-02-16T15:02:21+05:00*
G04 #@! TF.ProjectId,MegaCD-Connect BD Remake,4d656761-4344-42d4-936f-6e6e65637420,rev?*
G04 #@! TF.SameCoordinates,Original*
G04 #@! TF.FileFunction,Legend,Top*
G04 #@! TF.FilePolarity,Positive*
%FSLAX46Y46*%
G04 Gerber Fmt 4.6, Leading zero omitted, Abs format (unit mm)*
G04 Created by KiCad (PCBNEW 8.0.6) date 2025-02-16 15:02:21*
%MOMM*%
%LPD*%
G01*
G04 APERTURE LIST*
G04 Aperture macros list*
%AMRoundRect*
0 Rectangle with rounded corners*
0 $1 Rounding radius*
0 $2 $3 $4 $5 $6 $7 $8 $9 X,Y pos of 4 corners*
0 Add a 4 corners polygon primitive as box body*
4,1,4,$2,$3,$4,$5,$6,$7,$8,$9,$2,$3,0*
0 Add four circle primitives for the rounded corners*
1,1,$1+$1,$2,$3*
1,1,$1+$1,$4,$5*
1,1,$1+$1,$6,$7*
1,1,$1+$1,$8,$9*
0 Add four rect primitives between the rounded corners*
20,1,$1+$1,$2,$3,$4,$5,0*
20,1,$1+$1,$4,$5,$6,$7,0*
20,1,$1+$1,$6,$7,$8,$9,0*
20,1,$1+$1,$8,$9,$2,$3,0*%
G04 Aperture macros list end*
%ADD10C,0.150000*%
%ADD11C,0.120000*%
%ADD12R,1.600000X2.400000*%
%ADD13O,1.600000X2.400000*%
%ADD14R,1.700000X1.700000*%
%ADD15O,1.700000X1.700000*%
%ADD16R,1.600000X1.600000*%
%ADD17O,1.600000X1.600000*%
%ADD18RoundRect,0.250001X0.499999X0.924999X-0.499999X0.924999X-0.499999X-0.924999X0.499999X-0.924999X0*%
G04 APERTURE END LIST*
D10*
X113509588Y-87477494D02*
X113414350Y-87429875D01*
X113414350Y-87429875D02*
X113271493Y-87429875D01*
X113271493Y-87429875D02*
X113128636Y-87477494D01*
X113128636Y-87477494D02*
X113033398Y-87572732D01*
X113033398Y-87572732D02*
X112985779Y-87667970D01*
X112985779Y-87667970D02*
X112938160Y-87858446D01*
X112938160Y-87858446D02*
X112938160Y-88001303D01*
X112938160Y-88001303D02*
X112985779Y-88191779D01*
X112985779Y-88191779D02*
X113033398Y-88287017D01*
X113033398Y-88287017D02*
X113128636Y-88382256D01*
X113128636Y-88382256D02*
X113271493Y-88429875D01*
X113271493Y-88429875D02*
X113366731Y-88429875D01*
X113366731Y-88429875D02*
X113509588Y-88382256D01*
X113509588Y-88382256D02*
X113557207Y-88334636D01*
X113557207Y-88334636D02*
X113557207Y-88001303D01*
X113557207Y-88001303D02*
X113366731Y-88001303D01*
X113985779Y-88429875D02*
X113985779Y-87763208D01*
X113985779Y-87953684D02*
X114033398Y-87858446D01*
X114033398Y-87858446D02*
X114081017Y-87810827D01*
X114081017Y-87810827D02*
X114176255Y-87763208D01*
X114176255Y-87763208D02*
X114271493Y-87763208D01*
X114985779Y-88382256D02*
X114890541Y-88429875D01*
X114890541Y-88429875D02*
X114700065Y-88429875D01*
X114700065Y-88429875D02*
X114604827Y-88382256D01*
X114604827Y-88382256D02*
X114557208Y-88287017D01*
X114557208Y-88287017D02*
X114557208Y-87906065D01*
X114557208Y-87906065D02*
X114604827Y-87810827D01*
X114604827Y-87810827D02*
X114700065Y-87763208D01*
X114700065Y-87763208D02*
X114890541Y-87763208D01*
X114890541Y-87763208D02*
X114985779Y-87810827D01*
X114985779Y-87810827D02*
X115033398Y-87906065D01*
X115033398Y-87906065D02*
X115033398Y-88001303D01*
X115033398Y-88001303D02*
X114557208Y-88096541D01*
X115366732Y-87763208D02*
X115604827Y-88429875D01*
X115842922Y-87763208D02*
X115604827Y-88429875D01*
X115604827Y-88429875D02*
X115509589Y-88667970D01*
X115509589Y-88667970D02*
X115461970Y-88715589D01*
X115461970Y-88715589D02*
X115366732Y-88763208D01*
X112842922Y-89039819D02*
X113414350Y-89039819D01*
X113128636Y-90039819D02*
X113128636Y-89039819D01*
X113747684Y-90039819D02*
X113747684Y-89039819D01*
X113747684Y-89516009D02*
X114319112Y-89516009D01*
X114319112Y-90039819D02*
X114319112Y-89039819D01*
X114747684Y-89135057D02*
X114795303Y-89087438D01*
X114795303Y-89087438D02*
X114890541Y-89039819D01*
X114890541Y-89039819D02*
X115128636Y-89039819D01*
X115128636Y-89039819D02*
X115223874Y-89087438D01*
X115223874Y-89087438D02*
X115271493Y-89135057D01*
X115271493Y-89135057D02*
X115319112Y-89230295D01*
X115319112Y-89230295D02*
X115319112Y-89325533D01*
X115319112Y-89325533D02*
X115271493Y-89468390D01*
X115271493Y-89468390D02*
X114700065Y-90039819D01*
X114700065Y-90039819D02*
X115319112Y-90039819D01*
X203797124Y-88725952D02*
X204797124Y-88725952D01*
X204797124Y-88725952D02*
X204082839Y-89059285D01*
X204082839Y-89059285D02*
X204797124Y-89392618D01*
X204797124Y-89392618D02*
X203797124Y-89392618D01*
X203844744Y-90249761D02*
X203797124Y-90154523D01*
X203797124Y-90154523D02*
X203797124Y-89964047D01*
X203797124Y-89964047D02*
X203844744Y-89868809D01*
X203844744Y-89868809D02*
X203939982Y-89821190D01*
X203939982Y-89821190D02*
X204320934Y-89821190D01*
X204320934Y-89821190D02*
X204416172Y-89868809D01*
X204416172Y-89868809D02*
X204463791Y-89964047D01*
X204463791Y-89964047D02*
X204463791Y-90154523D01*
X204463791Y-90154523D02*
X204416172Y-90249761D01*
X204416172Y-90249761D02*
X204320934Y-90297380D01*
X204320934Y-90297380D02*
X204225696Y-90297380D01*
X204225696Y-90297380D02*
X204130458Y-89821190D01*
X204463791Y-91154523D02*
X203654267Y-91154523D01*
X203654267Y-91154523D02*
X203559029Y-91106904D01*
X203559029Y-91106904D02*
X203511410Y-91059285D01*
X203511410Y-91059285D02*
X203463791Y-90964047D01*
X203463791Y-90964047D02*
X203463791Y-90821190D01*
X203463791Y-90821190D02*
X203511410Y-90725952D01*
X203844744Y-91154523D02*
X203797124Y-91059285D01*
X203797124Y-91059285D02*
X203797124Y-90868809D01*
X203797124Y-90868809D02*
X203844744Y-90773571D01*
X203844744Y-90773571D02*
X203892363Y-90725952D01*
X203892363Y-90725952D02*
X203987601Y-90678333D01*
X203987601Y-90678333D02*
X204273315Y-90678333D01*
X204273315Y-90678333D02*
X204368553Y-90725952D01*
X204368553Y-90725952D02*
X204416172Y-90773571D01*
X204416172Y-90773571D02*
X204463791Y-90868809D01*
X204463791Y-90868809D02*
X204463791Y-91059285D01*
X204463791Y-91059285D02*
X204416172Y-91154523D01*
X203797124Y-92059285D02*
X204320934Y-92059285D01*
X204320934Y-92059285D02*
X204416172Y-92011666D01*
X204416172Y-92011666D02*
X204463791Y-91916428D01*
X204463791Y-91916428D02*
X204463791Y-91725952D01*
X204463791Y-91725952D02*
X204416172Y-91630714D01*
X203844744Y-92059285D02*
X203797124Y-91964047D01*
X203797124Y-91964047D02*
X203797124Y-91725952D01*
X203797124Y-91725952D02*
X203844744Y-91630714D01*
X203844744Y-91630714D02*
X203939982Y-91583095D01*
X203939982Y-91583095D02*
X204035220Y-91583095D01*
X204035220Y-91583095D02*
X204130458Y-91630714D01*
X204130458Y-91630714D02*
X204178077Y-91725952D01*
X204178077Y-91725952D02*
X204178077Y-91964047D01*
X204178077Y-91964047D02*
X204225696Y-92059285D01*
X203892363Y-93106904D02*
X203844744Y-93059285D01*
X203844744Y-93059285D02*
X203797124Y-92916428D01*
X203797124Y-92916428D02*
X203797124Y-92821190D01*
X203797124Y-92821190D02*
X203844744Y-92678333D01*
X203844744Y-92678333D02*
X203939982Y-92583095D01*
X203939982Y-92583095D02*
X204035220Y-92535476D01*
X204035220Y-92535476D02*
X204225696Y-92487857D01*
X204225696Y-92487857D02*
X204368553Y-92487857D01*
X204368553Y-92487857D02*
X204559029Y-92535476D01*
X204559029Y-92535476D02*
X204654267Y-92583095D01*
X204654267Y-92583095D02*
X204749505Y-92678333D01*
X204749505Y-92678333D02*
X204797124Y-92821190D01*
X204797124Y-92821190D02*
X204797124Y-92916428D01*
X204797124Y-92916428D02*
X204749505Y-93059285D01*
X204749505Y-93059285D02*
X204701886Y-93106904D01*
X203797124Y-93535476D02*
X204797124Y-93535476D01*
X204797124Y-93535476D02*
X204797124Y-93773571D01*
X204797124Y-93773571D02*
X204749505Y-93916428D01*
X204749505Y-93916428D02*
X204654267Y-94011666D01*
X204654267Y-94011666D02*
X204559029Y-94059285D01*
X204559029Y-94059285D02*
X204368553Y-94106904D01*
X204368553Y-94106904D02*
X204225696Y-94106904D01*
X204225696Y-94106904D02*
X204035220Y-94059285D01*
X204035220Y-94059285D02*
X203939982Y-94011666D01*
X203939982Y-94011666D02*
X203844744Y-93916428D01*
X203844744Y-93916428D02*
X203797124Y-93773571D01*
X203797124Y-93773571D02*
X203797124Y-93535476D01*
X204463791Y-95202143D02*
X203797124Y-95440238D01*
X203797124Y-95440238D02*
X204463791Y-95678333D01*
X204701886Y-96011667D02*
X204749505Y-96059286D01*
X204749505Y-96059286D02*
X204797124Y-96154524D01*
X204797124Y-96154524D02*
X204797124Y-96392619D01*
X204797124Y-96392619D02*
X204749505Y-96487857D01*
X204749505Y-96487857D02*
X204701886Y-96535476D01*
X204701886Y-96535476D02*
X204606648Y-96583095D01*
X204606648Y-96583095D02*
X204511410Y-96583095D01*
X204511410Y-96583095D02*
X204368553Y-96535476D01*
X204368553Y-96535476D02*
X203797124Y-95964048D01*
X203797124Y-95964048D02*
X203797124Y-96583095D01*
X203892363Y-97011667D02*
X203844744Y-97059286D01*
X203844744Y-97059286D02*
X203797124Y-97011667D01*
X203797124Y-97011667D02*
X203844744Y-96964048D01*
X203844744Y-96964048D02*
X203892363Y-97011667D01*
X203892363Y-97011667D02*
X203797124Y-97011667D01*
X204701886Y-97440238D02*
X204749505Y-97487857D01*
X204749505Y-97487857D02*
X204797124Y-97583095D01*
X204797124Y-97583095D02*
X204797124Y-97821190D01*
X204797124Y-97821190D02*
X204749505Y-97916428D01*
X204749505Y-97916428D02*
X204701886Y-97964047D01*
X204701886Y-97964047D02*
X204606648Y-98011666D01*
X204606648Y-98011666D02*
X204511410Y-98011666D01*
X204511410Y-98011666D02*
X204368553Y-97964047D01*
X204368553Y-97964047D02*
X203797124Y-97392619D01*
X203797124Y-97392619D02*
X203797124Y-98011666D01*
X202282419Y-86511665D02*
X202234800Y-86464046D01*
X202234800Y-86464046D02*
X202187180Y-86321189D01*
X202187180Y-86321189D02*
X202187180Y-86225951D01*
X202187180Y-86225951D02*
X202234800Y-86083094D01*
X202234800Y-86083094D02*
X202330038Y-85987856D01*
X202330038Y-85987856D02*
X202425276Y-85940237D01*
X202425276Y-85940237D02*
X202615752Y-85892618D01*
X202615752Y-85892618D02*
X202758609Y-85892618D01*
X202758609Y-85892618D02*
X202949085Y-85940237D01*
X202949085Y-85940237D02*
X203044323Y-85987856D01*
X203044323Y-85987856D02*
X203139561Y-86083094D01*
X203139561Y-86083094D02*
X203187180Y-86225951D01*
X203187180Y-86225951D02*
X203187180Y-86321189D01*
X203187180Y-86321189D02*
X203139561Y-86464046D01*
X203139561Y-86464046D02*
X203091942Y-86511665D01*
X202187180Y-87083094D02*
X202234800Y-86987856D01*
X202234800Y-86987856D02*
X202282419Y-86940237D01*
X202282419Y-86940237D02*
X202377657Y-86892618D01*
X202377657Y-86892618D02*
X202663371Y-86892618D01*
X202663371Y-86892618D02*
X202758609Y-86940237D01*
X202758609Y-86940237D02*
X202806228Y-86987856D01*
X202806228Y-86987856D02*
X202853847Y-87083094D01*
X202853847Y-87083094D02*
X202853847Y-87225951D01*
X202853847Y-87225951D02*
X202806228Y-87321189D01*
X202806228Y-87321189D02*
X202758609Y-87368808D01*
X202758609Y-87368808D02*
X202663371Y-87416427D01*
X202663371Y-87416427D02*
X202377657Y-87416427D01*
X202377657Y-87416427D02*
X202282419Y-87368808D01*
X202282419Y-87368808D02*
X202234800Y-87321189D01*
X202234800Y-87321189D02*
X202187180Y-87225951D01*
X202187180Y-87225951D02*
X202187180Y-87083094D01*
X202853847Y-87844999D02*
X202187180Y-87844999D01*
X202758609Y-87844999D02*
X202806228Y-87892618D01*
X202806228Y-87892618D02*
X202853847Y-87987856D01*
X202853847Y-87987856D02*
X202853847Y-88130713D01*
X202853847Y-88130713D02*
X202806228Y-88225951D01*
X202806228Y-88225951D02*
X202710990Y-88273570D01*
X202710990Y-88273570D02*
X202187180Y-88273570D01*
X202853847Y-88749761D02*
X202187180Y-88749761D01*
X202758609Y-88749761D02*
X202806228Y-88797380D01*
X202806228Y-88797380D02*
X202853847Y-88892618D01*
X202853847Y-88892618D02*
X202853847Y-89035475D01*
X202853847Y-89035475D02*
X202806228Y-89130713D01*
X202806228Y-89130713D02*
X202710990Y-89178332D01*
X202710990Y-89178332D02*
X202187180Y-89178332D01*
X202234800Y-90035475D02*
X202187180Y-89940237D01*
X202187180Y-89940237D02*
X202187180Y-89749761D01*
X202187180Y-89749761D02*
X202234800Y-89654523D01*
X202234800Y-89654523D02*
X202330038Y-89606904D01*
X202330038Y-89606904D02*
X202710990Y-89606904D01*
X202710990Y-89606904D02*
X202806228Y-89654523D01*
X202806228Y-89654523D02*
X202853847Y-89749761D01*
X202853847Y-89749761D02*
X202853847Y-89940237D01*
X202853847Y-89940237D02*
X202806228Y-90035475D01*
X202806228Y-90035475D02*
X202710990Y-90083094D01*
X202710990Y-90083094D02*
X202615752Y-90083094D01*
X202615752Y-90083094D02*
X202520514Y-89606904D01*
X202234800Y-90940237D02*
X202187180Y-90844999D01*
X202187180Y-90844999D02*
X202187180Y-90654523D01*
X202187180Y-90654523D02*
X202234800Y-90559285D01*
X202234800Y-90559285D02*
X202282419Y-90511666D01*
X202282419Y-90511666D02*
X202377657Y-90464047D01*
X202377657Y-90464047D02*
X202663371Y-90464047D01*
X202663371Y-90464047D02*
X202758609Y-90511666D01*
X202758609Y-90511666D02*
X202806228Y-90559285D01*
X202806228Y-90559285D02*
X202853847Y-90654523D01*
X202853847Y-90654523D02*
X202853847Y-90844999D01*
X202853847Y-90844999D02*
X202806228Y-90940237D01*
X202853847Y-91225952D02*
X202853847Y-91606904D01*
X203187180Y-91368809D02*
X202330038Y-91368809D01*
X202330038Y-91368809D02*
X202234800Y-91416428D01*
X202234800Y-91416428D02*
X202187180Y-91511666D01*
X202187180Y-91511666D02*
X202187180Y-91606904D01*
X202710990Y-93035476D02*
X202663371Y-93178333D01*
X202663371Y-93178333D02*
X202615752Y-93225952D01*
X202615752Y-93225952D02*
X202520514Y-93273571D01*
X202520514Y-93273571D02*
X202377657Y-93273571D01*
X202377657Y-93273571D02*
X202282419Y-93225952D01*
X202282419Y-93225952D02*
X202234800Y-93178333D01*
X202234800Y-93178333D02*
X202187180Y-93083095D01*
X202187180Y-93083095D02*
X202187180Y-92702143D01*
X202187180Y-92702143D02*
X203187180Y-92702143D01*
X203187180Y-92702143D02*
X203187180Y-93035476D01*
X203187180Y-93035476D02*
X203139561Y-93130714D01*
X203139561Y-93130714D02*
X203091942Y-93178333D01*
X203091942Y-93178333D02*
X202996704Y-93225952D01*
X202996704Y-93225952D02*
X202901466Y-93225952D01*
X202901466Y-93225952D02*
X202806228Y-93178333D01*
X202806228Y-93178333D02*
X202758609Y-93130714D01*
X202758609Y-93130714D02*
X202710990Y-93035476D01*
X202710990Y-93035476D02*
X202710990Y-92702143D01*
X202187180Y-93702143D02*
X203187180Y-93702143D01*
X203187180Y-93702143D02*
X203187180Y-93940238D01*
X203187180Y-93940238D02*
X203139561Y-94083095D01*
X203139561Y-94083095D02*
X203044323Y-94178333D01*
X203044323Y-94178333D02*
X202949085Y-94225952D01*
X202949085Y-94225952D02*
X202758609Y-94273571D01*
X202758609Y-94273571D02*
X202615752Y-94273571D01*
X202615752Y-94273571D02*
X202425276Y-94225952D01*
X202425276Y-94225952D02*
X202330038Y-94178333D01*
X202330038Y-94178333D02*
X202234800Y-94083095D01*
X202234800Y-94083095D02*
X202187180Y-93940238D01*
X202187180Y-93940238D02*
X202187180Y-93702143D01*
X202187180Y-96035476D02*
X202663371Y-95702143D01*
X202187180Y-95464048D02*
X203187180Y-95464048D01*
X203187180Y-95464048D02*
X203187180Y-95845000D01*
X203187180Y-95845000D02*
X203139561Y-95940238D01*
X203139561Y-95940238D02*
X203091942Y-95987857D01*
X203091942Y-95987857D02*
X202996704Y-96035476D01*
X202996704Y-96035476D02*
X202853847Y-96035476D01*
X202853847Y-96035476D02*
X202758609Y-95987857D01*
X202758609Y-95987857D02*
X202710990Y-95940238D01*
X202710990Y-95940238D02*
X202663371Y-95845000D01*
X202663371Y-95845000D02*
X202663371Y-95464048D01*
X202234800Y-96845000D02*
X202187180Y-96749762D01*
X202187180Y-96749762D02*
X202187180Y-96559286D01*
X202187180Y-96559286D02*
X202234800Y-96464048D01*
X202234800Y-96464048D02*
X202330038Y-96416429D01*
X202330038Y-96416429D02*
X202710990Y-96416429D01*
X202710990Y-96416429D02*
X202806228Y-96464048D01*
X202806228Y-96464048D02*
X202853847Y-96559286D01*
X202853847Y-96559286D02*
X202853847Y-96749762D01*
X202853847Y-96749762D02*
X202806228Y-96845000D01*
X202806228Y-96845000D02*
X202710990Y-96892619D01*
X202710990Y-96892619D02*
X202615752Y-96892619D01*
X202615752Y-96892619D02*
X202520514Y-96416429D01*
X202187180Y-97321191D02*
X202853847Y-97321191D01*
X202758609Y-97321191D02*
X202806228Y-97368810D01*
X202806228Y-97368810D02*
X202853847Y-97464048D01*
X202853847Y-97464048D02*
X202853847Y-97606905D01*
X202853847Y-97606905D02*
X202806228Y-97702143D01*
X202806228Y-97702143D02*
X202710990Y-97749762D01*
X202710990Y-97749762D02*
X202187180Y-97749762D01*
X202710990Y-97749762D02*
X202806228Y-97797381D01*
X202806228Y-97797381D02*
X202853847Y-97892619D01*
X202853847Y-97892619D02*
X202853847Y-98035476D01*
X202853847Y-98035476D02*
X202806228Y-98130715D01*
X202806228Y-98130715D02*
X202710990Y-98178334D01*
X202710990Y-98178334D02*
X202187180Y-98178334D01*
X202187180Y-99083095D02*
X202710990Y-99083095D01*
X202710990Y-99083095D02*
X202806228Y-99035476D01*
X202806228Y-99035476D02*
X202853847Y-98940238D01*
X202853847Y-98940238D02*
X202853847Y-98749762D01*
X202853847Y-98749762D02*
X202806228Y-98654524D01*
X202234800Y-99083095D02*
X202187180Y-98987857D01*
X202187180Y-98987857D02*
X202187180Y-98749762D01*
X202187180Y-98749762D02*
X202234800Y-98654524D01*
X202234800Y-98654524D02*
X202330038Y-98606905D01*
X202330038Y-98606905D02*
X202425276Y-98606905D01*
X202425276Y-98606905D02*
X202520514Y-98654524D01*
X202520514Y-98654524D02*
X202568133Y-98749762D01*
X202568133Y-98749762D02*
X202568133Y-98987857D01*
X202568133Y-98987857D02*
X202615752Y-99083095D01*
X202187180Y-99559286D02*
X203187180Y-99559286D01*
X202568133Y-99654524D02*
X202187180Y-99940238D01*
X202853847Y-99940238D02*
X202472895Y-99559286D01*
X202234800Y-100749762D02*
X202187180Y-100654524D01*
X202187180Y-100654524D02*
X202187180Y-100464048D01*
X202187180Y-100464048D02*
X202234800Y-100368810D01*
X202234800Y-100368810D02*
X202330038Y-100321191D01*
X202330038Y-100321191D02*
X202710990Y-100321191D01*
X202710990Y-100321191D02*
X202806228Y-100368810D01*
X202806228Y-100368810D02*
X202853847Y-100464048D01*
X202853847Y-100464048D02*
X202853847Y-100654524D01*
X202853847Y-100654524D02*
X202806228Y-100749762D01*
X202806228Y-100749762D02*
X202710990Y-100797381D01*
X202710990Y-100797381D02*
X202615752Y-100797381D01*
X202615752Y-100797381D02*
X202520514Y-100321191D01*
X113319112Y-90954065D02*
X113461969Y-91001684D01*
X113461969Y-91001684D02*
X113509588Y-91049303D01*
X113509588Y-91049303D02*
X113557207Y-91144541D01*
X113557207Y-91144541D02*
X113557207Y-91287398D01*
X113557207Y-91287398D02*
X113509588Y-91382636D01*
X113509588Y-91382636D02*
X113461969Y-91430256D01*
X113461969Y-91430256D02*
X113366731Y-91477875D01*
X113366731Y-91477875D02*
X112985779Y-91477875D01*
X112985779Y-91477875D02*
X112985779Y-90477875D01*
X112985779Y-90477875D02*
X113319112Y-90477875D01*
X113319112Y-90477875D02*
X113414350Y-90525494D01*
X113414350Y-90525494D02*
X113461969Y-90573113D01*
X113461969Y-90573113D02*
X113509588Y-90668351D01*
X113509588Y-90668351D02*
X113509588Y-90763589D01*
X113509588Y-90763589D02*
X113461969Y-90858827D01*
X113461969Y-90858827D02*
X113414350Y-90906446D01*
X113414350Y-90906446D02*
X113319112Y-90954065D01*
X113319112Y-90954065D02*
X112985779Y-90954065D01*
X114128636Y-91477875D02*
X114033398Y-91430256D01*
X114033398Y-91430256D02*
X113985779Y-91335017D01*
X113985779Y-91335017D02*
X113985779Y-90477875D01*
X114938160Y-91477875D02*
X114938160Y-90954065D01*
X114938160Y-90954065D02*
X114890541Y-90858827D01*
X114890541Y-90858827D02*
X114795303Y-90811208D01*
X114795303Y-90811208D02*
X114604827Y-90811208D01*
X114604827Y-90811208D02*
X114509589Y-90858827D01*
X114938160Y-91430256D02*
X114842922Y-91477875D01*
X114842922Y-91477875D02*
X114604827Y-91477875D01*
X114604827Y-91477875D02*
X114509589Y-91430256D01*
X114509589Y-91430256D02*
X114461970Y-91335017D01*
X114461970Y-91335017D02*
X114461970Y-91239779D01*
X114461970Y-91239779D02*
X114509589Y-91144541D01*
X114509589Y-91144541D02*
X114604827Y-91096922D01*
X114604827Y-91096922D02*
X114842922Y-91096922D01*
X114842922Y-91096922D02*
X114938160Y-91049303D01*
X115842922Y-91430256D02*
X115747684Y-91477875D01*
X115747684Y-91477875D02*
X115557208Y-91477875D01*
X115557208Y-91477875D02*
X115461970Y-91430256D01*
X115461970Y-91430256D02*
X115414351Y-91382636D01*
X115414351Y-91382636D02*
X115366732Y-91287398D01*
X115366732Y-91287398D02*
X115366732Y-91001684D01*
X115366732Y-91001684D02*
X115414351Y-90906446D01*
X115414351Y-90906446D02*
X115461970Y-90858827D01*
X115461970Y-90858827D02*
X115557208Y-90811208D01*
X115557208Y-90811208D02*
X115747684Y-90811208D01*
X115747684Y-90811208D02*
X115842922Y-90858827D01*
X116271494Y-91477875D02*
X116271494Y-90477875D01*
X116366732Y-91096922D02*
X116652446Y-91477875D01*
X116652446Y-90811208D02*
X116271494Y-91192160D01*
X112842922Y-92087819D02*
X113414350Y-92087819D01*
X113128636Y-93087819D02*
X113128636Y-92087819D01*
X113747684Y-93087819D02*
X113747684Y-92087819D01*
X113747684Y-92564009D02*
X114319112Y-92564009D01*
X114319112Y-93087819D02*
X114319112Y-92087819D01*
X115319112Y-93087819D02*
X114747684Y-93087819D01*
X115033398Y-93087819D02*
X115033398Y-92087819D01*
X115033398Y-92087819D02*
X114938160Y-92230676D01*
X114938160Y-92230676D02*
X114842922Y-92325914D01*
X114842922Y-92325914D02*
X114747684Y-92373533D01*
X143456819Y-96099189D02*
X142456819Y-96099189D01*
X143361580Y-95051571D02*
X143409200Y-95099190D01*
X143409200Y-95099190D02*
X143456819Y-95242047D01*
X143456819Y-95242047D02*
X143456819Y-95337285D01*
X143456819Y-95337285D02*
X143409200Y-95480142D01*
X143409200Y-95480142D02*
X143313961Y-95575380D01*
X143313961Y-95575380D02*
X143218723Y-95622999D01*
X143218723Y-95622999D02*
X143028247Y-95670618D01*
X143028247Y-95670618D02*
X142885390Y-95670618D01*
X142885390Y-95670618D02*
X142694914Y-95622999D01*
X142694914Y-95622999D02*
X142599676Y-95575380D01*
X142599676Y-95575380D02*
X142504438Y-95480142D01*
X142504438Y-95480142D02*
X142456819Y-95337285D01*
X142456819Y-95337285D02*
X142456819Y-95242047D01*
X142456819Y-95242047D02*
X142504438Y-95099190D01*
X142504438Y-95099190D02*
X142552057Y-95051571D01*
X142456819Y-94146809D02*
X142456819Y-94622999D01*
X142456819Y-94622999D02*
X142933009Y-94670618D01*
X142933009Y-94670618D02*
X142885390Y-94622999D01*
X142885390Y-94622999D02*
X142837771Y-94527761D01*
X142837771Y-94527761D02*
X142837771Y-94289666D01*
X142837771Y-94289666D02*
X142885390Y-94194428D01*
X142885390Y-94194428D02*
X142933009Y-94146809D01*
X142933009Y-94146809D02*
X143028247Y-94099190D01*
X143028247Y-94099190D02*
X143266342Y-94099190D01*
X143266342Y-94099190D02*
X143361580Y-94146809D01*
X143361580Y-94146809D02*
X143409200Y-94194428D01*
X143409200Y-94194428D02*
X143456819Y-94289666D01*
X143456819Y-94289666D02*
X143456819Y-94527761D01*
X143456819Y-94527761D02*
X143409200Y-94622999D01*
X143409200Y-94622999D02*
X143361580Y-94670618D01*
X123600819Y-96099189D02*
X122600819Y-96099189D01*
X123505580Y-95051571D02*
X123553200Y-95099190D01*
X123553200Y-95099190D02*
X123600819Y-95242047D01*
X123600819Y-95242047D02*
X123600819Y-95337285D01*
X123600819Y-95337285D02*
X123553200Y-95480142D01*
X123553200Y-95480142D02*
X123457961Y-95575380D01*
X123457961Y-95575380D02*
X123362723Y-95622999D01*
X123362723Y-95622999D02*
X123172247Y-95670618D01*
X123172247Y-95670618D02*
X123029390Y-95670618D01*
X123029390Y-95670618D02*
X122838914Y-95622999D01*
X122838914Y-95622999D02*
X122743676Y-95575380D01*
X122743676Y-95575380D02*
X122648438Y-95480142D01*
X122648438Y-95480142D02*
X122600819Y-95337285D01*
X122600819Y-95337285D02*
X122600819Y-95242047D01*
X122600819Y-95242047D02*
X122648438Y-95099190D01*
X122648438Y-95099190D02*
X122696057Y-95051571D01*
X122934152Y-94194428D02*
X123600819Y-94194428D01*
X122553200Y-94432523D02*
X123267485Y-94670618D01*
X123267485Y-94670618D02*
X123267485Y-94051571D01*
X171142819Y-107656189D02*
X170142819Y-107656189D01*
X171047580Y-106608571D02*
X171095200Y-106656190D01*
X171095200Y-106656190D02*
X171142819Y-106799047D01*
X171142819Y-106799047D02*
X171142819Y-106894285D01*
X171142819Y-106894285D02*
X171095200Y-107037142D01*
X171095200Y-107037142D02*
X170999961Y-107132380D01*
X170999961Y-107132380D02*
X170904723Y-107179999D01*
X170904723Y-107179999D02*
X170714247Y-107227618D01*
X170714247Y-107227618D02*
X170571390Y-107227618D01*
X170571390Y-107227618D02*
X170380914Y-107179999D01*
X170380914Y-107179999D02*
X170285676Y-107132380D01*
X170285676Y-107132380D02*
X170190438Y-107037142D01*
X170190438Y-107037142D02*
X170142819Y-106894285D01*
X170142819Y-106894285D02*
X170142819Y-106799047D01*
X170142819Y-106799047D02*
X170190438Y-106656190D01*
X170190438Y-106656190D02*
X170238057Y-106608571D01*
X170142819Y-106275237D02*
X170142819Y-105656190D01*
X170142819Y-105656190D02*
X170523771Y-105989523D01*
X170523771Y-105989523D02*
X170523771Y-105846666D01*
X170523771Y-105846666D02*
X170571390Y-105751428D01*
X170571390Y-105751428D02*
X170619009Y-105703809D01*
X170619009Y-105703809D02*
X170714247Y-105656190D01*
X170714247Y-105656190D02*
X170952342Y-105656190D01*
X170952342Y-105656190D02*
X171047580Y-105703809D01*
X171047580Y-105703809D02*
X171095200Y-105751428D01*
X171095200Y-105751428D02*
X171142819Y-105846666D01*
X171142819Y-105846666D02*
X171142819Y-106132380D01*
X171142819Y-106132380D02*
X171095200Y-106227618D01*
X171095200Y-106227618D02*
X171047580Y-106275237D01*
X118030666Y-94196819D02*
X118030666Y-94911104D01*
X118030666Y-94911104D02*
X117983047Y-95053961D01*
X117983047Y-95053961D02*
X117887809Y-95149200D01*
X117887809Y-95149200D02*
X117744952Y-95196819D01*
X117744952Y-95196819D02*
X117649714Y-95196819D01*
X118411619Y-94196819D02*
X119030666Y-94196819D01*
X119030666Y-94196819D02*
X118697333Y-94577771D01*
X118697333Y-94577771D02*
X118840190Y-94577771D01*
X118840190Y-94577771D02*
X118935428Y-94625390D01*
X118935428Y-94625390D02*
X118983047Y-94673009D01*
X118983047Y-94673009D02*
X119030666Y-94768247D01*
X119030666Y-94768247D02*
X119030666Y-95006342D01*
X119030666Y-95006342D02*
X118983047Y-95101580D01*
X118983047Y-95101580D02*
X118935428Y-95149200D01*
X118935428Y-95149200D02*
X118840190Y-95196819D01*
X118840190Y-95196819D02*
X118554476Y-95196819D01*
X118554476Y-95196819D02*
X118459238Y-95149200D01*
X118459238Y-95149200D02*
X118411619Y-95101580D01*
X143456819Y-106976189D02*
X142456819Y-106976189D01*
X143361580Y-105928571D02*
X143409200Y-105976190D01*
X143409200Y-105976190D02*
X143456819Y-106119047D01*
X143456819Y-106119047D02*
X143456819Y-106214285D01*
X143456819Y-106214285D02*
X143409200Y-106357142D01*
X143409200Y-106357142D02*
X143313961Y-106452380D01*
X143313961Y-106452380D02*
X143218723Y-106499999D01*
X143218723Y-106499999D02*
X143028247Y-106547618D01*
X143028247Y-106547618D02*
X142885390Y-106547618D01*
X142885390Y-106547618D02*
X142694914Y-106499999D01*
X142694914Y-106499999D02*
X142599676Y-106452380D01*
X142599676Y-106452380D02*
X142504438Y-106357142D01*
X142504438Y-106357142D02*
X142456819Y-106214285D01*
X142456819Y-106214285D02*
X142456819Y-106119047D01*
X142456819Y-106119047D02*
X142504438Y-105976190D01*
X142504438Y-105976190D02*
X142552057Y-105928571D01*
X142552057Y-105547618D02*
X142504438Y-105499999D01*
X142504438Y-105499999D02*
X142456819Y-105404761D01*
X142456819Y-105404761D02*
X142456819Y-105166666D01*
X142456819Y-105166666D02*
X142504438Y-105071428D01*
X142504438Y-105071428D02*
X142552057Y-105023809D01*
X142552057Y-105023809D02*
X142647295Y-104976190D01*
X142647295Y-104976190D02*
X142742533Y-104976190D01*
X142742533Y-104976190D02*
X142885390Y-105023809D01*
X142885390Y-105023809D02*
X143456819Y-105595237D01*
X143456819Y-105595237D02*
X143456819Y-104976190D01*
X168981523Y-83131819D02*
X168648190Y-82655628D01*
X168410095Y-83131819D02*
X168410095Y-82131819D01*
X168410095Y-82131819D02*
X168791047Y-82131819D01*
X168791047Y-82131819D02*
X168886285Y-82179438D01*
X168886285Y-82179438D02*
X168933904Y-82227057D01*
X168933904Y-82227057D02*
X168981523Y-82322295D01*
X168981523Y-82322295D02*
X168981523Y-82465152D01*
X168981523Y-82465152D02*
X168933904Y-82560390D01*
X168933904Y-82560390D02*
X168886285Y-82608009D01*
X168886285Y-82608009D02*
X168791047Y-82655628D01*
X168791047Y-82655628D02*
X168410095Y-82655628D01*
X169410095Y-83131819D02*
X169410095Y-82131819D01*
X169410095Y-82131819D02*
X169981523Y-83131819D01*
X169981523Y-83131819D02*
X169981523Y-82131819D01*
X170410095Y-82227057D02*
X170457714Y-82179438D01*
X170457714Y-82179438D02*
X170552952Y-82131819D01*
X170552952Y-82131819D02*
X170791047Y-82131819D01*
X170791047Y-82131819D02*
X170886285Y-82179438D01*
X170886285Y-82179438D02*
X170933904Y-82227057D01*
X170933904Y-82227057D02*
X170981523Y-82322295D01*
X170981523Y-82322295D02*
X170981523Y-82417533D01*
X170981523Y-82417533D02*
X170933904Y-82560390D01*
X170933904Y-82560390D02*
X170362476Y-83131819D01*
X170362476Y-83131819D02*
X170981523Y-83131819D01*
X194941866Y-77051819D02*
X194941866Y-77766104D01*
X194941866Y-77766104D02*
X194894247Y-77908961D01*
X194894247Y-77908961D02*
X194799009Y-78004200D01*
X194799009Y-78004200D02*
X194656152Y-78051819D01*
X194656152Y-78051819D02*
X194560914Y-78051819D01*
X195941866Y-78051819D02*
X195370438Y-78051819D01*
X195656152Y-78051819D02*
X195656152Y-77051819D01*
X195656152Y-77051819D02*
X195560914Y-77194676D01*
X195560914Y-77194676D02*
X195465676Y-77289914D01*
X195465676Y-77289914D02*
X195370438Y-77337533D01*
X141422523Y-83131819D02*
X141089190Y-82655628D01*
X140851095Y-83131819D02*
X140851095Y-82131819D01*
X140851095Y-82131819D02*
X141232047Y-82131819D01*
X141232047Y-82131819D02*
X141327285Y-82179438D01*
X141327285Y-82179438D02*
X141374904Y-82227057D01*
X141374904Y-82227057D02*
X141422523Y-82322295D01*
X141422523Y-82322295D02*
X141422523Y-82465152D01*
X141422523Y-82465152D02*
X141374904Y-82560390D01*
X141374904Y-82560390D02*
X141327285Y-82608009D01*
X141327285Y-82608009D02*
X141232047Y-82655628D01*
X141232047Y-82655628D02*
X140851095Y-82655628D01*
X141851095Y-83131819D02*
X141851095Y-82131819D01*
X141851095Y-82131819D02*
X142422523Y-83131819D01*
X142422523Y-83131819D02*
X142422523Y-82131819D01*
X143422523Y-83131819D02*
X142851095Y-83131819D01*
X143136809Y-83131819D02*
X143136809Y-82131819D01*
X143136809Y-82131819D02*
X143041571Y-82274676D01*
X143041571Y-82274676D02*
X142946333Y-82369914D01*
X142946333Y-82369914D02*
X142851095Y-82417533D01*
X109298819Y-103276189D02*
X108298819Y-103276189D01*
X109203580Y-102228571D02*
X109251200Y-102276190D01*
X109251200Y-102276190D02*
X109298819Y-102419047D01*
X109298819Y-102419047D02*
X109298819Y-102514285D01*
X109298819Y-102514285D02*
X109251200Y-102657142D01*
X109251200Y-102657142D02*
X109155961Y-102752380D01*
X109155961Y-102752380D02*
X109060723Y-102799999D01*
X109060723Y-102799999D02*
X108870247Y-102847618D01*
X108870247Y-102847618D02*
X108727390Y-102847618D01*
X108727390Y-102847618D02*
X108536914Y-102799999D01*
X108536914Y-102799999D02*
X108441676Y-102752380D01*
X108441676Y-102752380D02*
X108346438Y-102657142D01*
X108346438Y-102657142D02*
X108298819Y-102514285D01*
X108298819Y-102514285D02*
X108298819Y-102419047D01*
X108298819Y-102419047D02*
X108346438Y-102276190D01*
X108346438Y-102276190D02*
X108394057Y-102228571D01*
X109298819Y-101276190D02*
X109298819Y-101847618D01*
X109298819Y-101561904D02*
X108298819Y-101561904D01*
X108298819Y-101561904D02*
X108441676Y-101657142D01*
X108441676Y-101657142D02*
X108536914Y-101752380D01*
X108536914Y-101752380D02*
X108584533Y-101847618D01*
X171142819Y-96099189D02*
X170142819Y-96099189D01*
X171047580Y-95051571D02*
X171095200Y-95099190D01*
X171095200Y-95099190D02*
X171142819Y-95242047D01*
X171142819Y-95242047D02*
X171142819Y-95337285D01*
X171142819Y-95337285D02*
X171095200Y-95480142D01*
X171095200Y-95480142D02*
X170999961Y-95575380D01*
X170999961Y-95575380D02*
X170904723Y-95622999D01*
X170904723Y-95622999D02*
X170714247Y-95670618D01*
X170714247Y-95670618D02*
X170571390Y-95670618D01*
X170571390Y-95670618D02*
X170380914Y-95622999D01*
X170380914Y-95622999D02*
X170285676Y-95575380D01*
X170285676Y-95575380D02*
X170190438Y-95480142D01*
X170190438Y-95480142D02*
X170142819Y-95337285D01*
X170142819Y-95337285D02*
X170142819Y-95242047D01*
X170142819Y-95242047D02*
X170190438Y-95099190D01*
X170190438Y-95099190D02*
X170238057Y-95051571D01*
X170142819Y-94194428D02*
X170142819Y-94384904D01*
X170142819Y-94384904D02*
X170190438Y-94480142D01*
X170190438Y-94480142D02*
X170238057Y-94527761D01*
X170238057Y-94527761D02*
X170380914Y-94622999D01*
X170380914Y-94622999D02*
X170571390Y-94670618D01*
X170571390Y-94670618D02*
X170952342Y-94670618D01*
X170952342Y-94670618D02*
X171047580Y-94622999D01*
X171047580Y-94622999D02*
X171095200Y-94575380D01*
X171095200Y-94575380D02*
X171142819Y-94480142D01*
X171142819Y-94480142D02*
X171142819Y-94289666D01*
X171142819Y-94289666D02*
X171095200Y-94194428D01*
X171095200Y-94194428D02*
X171047580Y-94146809D01*
X171047580Y-94146809D02*
X170952342Y-94099190D01*
X170952342Y-94099190D02*
X170714247Y-94099190D01*
X170714247Y-94099190D02*
X170619009Y-94146809D01*
X170619009Y-94146809D02*
X170571390Y-94194428D01*
X170571390Y-94194428D02*
X170523771Y-94289666D01*
X170523771Y-94289666D02*
X170523771Y-94480142D01*
X170523771Y-94480142D02*
X170571390Y-94575380D01*
X170571390Y-94575380D02*
X170619009Y-94622999D01*
X170619009Y-94622999D02*
X170714247Y-94670618D01*
X194941866Y-111849819D02*
X194941866Y-112564104D01*
X194941866Y-112564104D02*
X194894247Y-112706961D01*
X194894247Y-112706961D02*
X194799009Y-112802200D01*
X194799009Y-112802200D02*
X194656152Y-112849819D01*
X194656152Y-112849819D02*
X194560914Y-112849819D01*
X195370438Y-111945057D02*
X195418057Y-111897438D01*
X195418057Y-111897438D02*
X195513295Y-111849819D01*
X195513295Y-111849819D02*
X195751390Y-111849819D01*
X195751390Y-111849819D02*
X195846628Y-111897438D01*
X195846628Y-111897438D02*
X195894247Y-111945057D01*
X195894247Y-111945057D02*
X195941866Y-112040295D01*
X195941866Y-112040295D02*
X195941866Y-112135533D01*
X195941866Y-112135533D02*
X195894247Y-112278390D01*
X195894247Y-112278390D02*
X195322819Y-112849819D01*
X195322819Y-112849819D02*
X195941866Y-112849819D01*
X119721333Y-83036580D02*
X119673714Y-83084200D01*
X119673714Y-83084200D02*
X119530857Y-83131819D01*
X119530857Y-83131819D02*
X119435619Y-83131819D01*
X119435619Y-83131819D02*
X119292762Y-83084200D01*
X119292762Y-83084200D02*
X119197524Y-82988961D01*
X119197524Y-82988961D02*
X119149905Y-82893723D01*
X119149905Y-82893723D02*
X119102286Y-82703247D01*
X119102286Y-82703247D02*
X119102286Y-82560390D01*
X119102286Y-82560390D02*
X119149905Y-82369914D01*
X119149905Y-82369914D02*
X119197524Y-82274676D01*
X119197524Y-82274676D02*
X119292762Y-82179438D01*
X119292762Y-82179438D02*
X119435619Y-82131819D01*
X119435619Y-82131819D02*
X119530857Y-82131819D01*
X119530857Y-82131819D02*
X119673714Y-82179438D01*
X119673714Y-82179438D02*
X119721333Y-82227057D01*
X120054667Y-82131819D02*
X120721333Y-82131819D01*
X120721333Y-82131819D02*
X120292762Y-83131819D01*
D11*
X143898000Y-85555000D02*
X143898000Y-96055000D01*
X143898000Y-96055000D02*
X169538000Y-96055000D01*
X143958000Y-88555000D02*
X143958000Y-89805000D01*
X143958000Y-91805000D02*
X143958000Y-93055000D01*
X143958000Y-93055000D02*
X169478000Y-93055000D01*
X169478000Y-88555000D02*
X143958000Y-88555000D01*
X169478000Y-93055000D02*
X169478000Y-88555000D01*
X169538000Y-85555000D02*
X143898000Y-85555000D01*
X169538000Y-96055000D02*
X169538000Y-85555000D01*
X143958000Y-89805000D02*
G75*
G02*
X143958000Y-91805000I0J-1000000D01*
G01*
X124086000Y-85555000D02*
X124086000Y-96055000D01*
X124086000Y-96055000D02*
X142106000Y-96055000D01*
X124146000Y-88555000D02*
X124146000Y-89805000D01*
X124146000Y-91805000D02*
X124146000Y-93055000D01*
X124146000Y-93055000D02*
X142046000Y-93055000D01*
X142046000Y-88555000D02*
X124146000Y-88555000D01*
X142046000Y-93055000D02*
X142046000Y-88555000D01*
X142106000Y-85555000D02*
X124086000Y-85555000D01*
X142106000Y-96055000D02*
X142106000Y-85555000D01*
X124146000Y-89805000D02*
G75*
G02*
X124146000Y-91805000I0J-1000000D01*
G01*
X171584000Y-97112000D02*
X171584000Y-107612000D01*
X171584000Y-107612000D02*
X197224000Y-107612000D01*
X171644000Y-100112000D02*
X171644000Y-101362000D01*
X171644000Y-103362000D02*
X171644000Y-104612000D01*
X171644000Y-104612000D02*
X197164000Y-104612000D01*
X197164000Y-100112000D02*
X171644000Y-100112000D01*
X197164000Y-104612000D02*
X197164000Y-100112000D01*
X197224000Y-97112000D02*
X171584000Y-97112000D01*
X197224000Y-107612000D02*
X197224000Y-97112000D01*
X171644000Y-101362000D02*
G75*
G02*
X171644000Y-103362000I0J-1000000D01*
G01*
X117034000Y-90810000D02*
X117034000Y-88210000D01*
X119694000Y-88210000D02*
X117034000Y-88210000D01*
X119694000Y-90810000D02*
X117034000Y-90810000D01*
X119694000Y-90810000D02*
X119694000Y-88210000D01*
X119694000Y-92080000D02*
X119694000Y-93410000D01*
X119694000Y-93410000D02*
X118364000Y-93410000D01*
X143898000Y-97112000D02*
X143898000Y-107612000D01*
X143898000Y-107612000D02*
X169538000Y-107612000D01*
X143958000Y-100112000D02*
X143958000Y-101362000D01*
X143958000Y-103362000D02*
X143958000Y-104612000D01*
X143958000Y-104612000D02*
X169478000Y-104612000D01*
X169478000Y-100112000D02*
X143958000Y-100112000D01*
X169478000Y-104612000D02*
X169478000Y-100112000D01*
X169538000Y-97112000D02*
X143898000Y-97112000D01*
X169538000Y-107612000D02*
X169538000Y-97112000D01*
X143958000Y-101362000D02*
G75*
G02*
X143958000Y-103362000I0J-1000000D01*
G01*
X171661000Y-82293000D02*
X171661000Y-85093000D01*
X171661000Y-85093000D02*
X194861000Y-85093000D01*
X174371000Y-82293000D02*
X174371000Y-85093000D01*
X194861000Y-82293000D02*
X171661000Y-82293000D01*
X194861000Y-85093000D02*
X194861000Y-82293000D01*
X117796000Y-73727000D02*
X117796000Y-81467000D01*
X191516000Y-78867000D02*
X191516000Y-81467000D01*
X191516000Y-78867000D02*
X194116000Y-78867000D01*
X191516000Y-81467000D02*
X117796000Y-81467000D01*
X194065200Y-80127800D02*
X194065200Y-81457800D01*
X194065200Y-81457800D02*
X192735200Y-81457800D01*
X194116000Y-73736200D02*
X117796000Y-73727000D01*
X194116000Y-73736200D02*
X194116000Y-78867000D01*
X143975000Y-82293000D02*
X143975000Y-85093000D01*
X143975000Y-85093000D02*
X167175000Y-85093000D01*
X146685000Y-82293000D02*
X146685000Y-85093000D01*
X167175000Y-82293000D02*
X143975000Y-82293000D01*
X167175000Y-85093000D02*
X167175000Y-82293000D01*
X111386000Y-97102000D02*
X111386000Y-107602000D01*
X111386000Y-107602000D02*
X142106000Y-107602000D01*
X111446000Y-100102000D02*
X111446000Y-101352000D01*
X111446000Y-103352000D02*
X111446000Y-104602000D01*
X111446000Y-104602000D02*
X142046000Y-104602000D01*
X142046000Y-100102000D02*
X111446000Y-100102000D01*
X142046000Y-104602000D02*
X142046000Y-100102000D01*
X142106000Y-97102000D02*
X111386000Y-97102000D01*
X142106000Y-107602000D02*
X142106000Y-97102000D01*
X111446000Y-101352000D02*
G75*
G02*
X111446000Y-103352000I0J-1000000D01*
G01*
X171584000Y-85555000D02*
X171584000Y-96055000D01*
X171584000Y-96055000D02*
X197224000Y-96055000D01*
X171644000Y-88555000D02*
X171644000Y-89805000D01*
X171644000Y-91805000D02*
X171644000Y-93055000D01*
X171644000Y-93055000D02*
X197164000Y-93055000D01*
X197164000Y-88555000D02*
X171644000Y-88555000D01*
X197164000Y-93055000D02*
X197164000Y-88555000D01*
X197224000Y-85555000D02*
X171584000Y-85555000D01*
X197224000Y-96055000D02*
X197224000Y-85555000D01*
X171644000Y-89805000D02*
G75*
G02*
X171644000Y-91805000I0J-1000000D01*
G01*
X117796000Y-108525000D02*
X117796000Y-116265000D01*
X191516000Y-113665000D02*
X191516000Y-116265000D01*
X191516000Y-113665000D02*
X194116000Y-113665000D01*
X191516000Y-116265000D02*
X117796000Y-116265000D01*
X194065200Y-114925800D02*
X194065200Y-116255800D01*
X194065200Y-116255800D02*
X192735200Y-116255800D01*
X194116000Y-108534200D02*
X117796000Y-108525000D01*
X194116000Y-108534200D02*
X194116000Y-113665000D01*
X118138000Y-86600000D02*
X122523000Y-86600000D01*
X122523000Y-83580000D02*
X118138000Y-83580000D01*
X122523000Y-86600000D02*
X122523000Y-83580000D01*
%LPC*%
D12*
X145288000Y-94615000D03*
D13*
X147828000Y-94615000D03*
X150368000Y-94615000D03*
X152908000Y-94615000D03*
X155448000Y-94615000D03*
X157988000Y-94615000D03*
X160528000Y-94615000D03*
X163068000Y-94615000D03*
X165608000Y-94615000D03*
X168148000Y-94615000D03*
X168148000Y-86995000D03*
X165608000Y-86995000D03*
X163068000Y-86995000D03*
X160528000Y-86995000D03*
X157988000Y-86995000D03*
X155448000Y-86995000D03*
X152908000Y-86995000D03*
X150368000Y-86995000D03*
X147828000Y-86995000D03*
X145288000Y-86995000D03*
D12*
X125476000Y-94615000D03*
D13*
X128016000Y-94615000D03*
X130556000Y-94615000D03*
X133096000Y-94615000D03*
X135636000Y-94615000D03*
X138176000Y-94615000D03*
X140716000Y-94615000D03*
X140716000Y-86995000D03*
X138176000Y-86995000D03*
X135636000Y-86995000D03*
X133096000Y-86995000D03*
X130556000Y-86995000D03*
X128016000Y-86995000D03*
X125476000Y-86995000D03*
D12*
X172974000Y-106172000D03*
D13*
X175514000Y-106172000D03*
X178054000Y-106172000D03*
X180594000Y-106172000D03*
X183134000Y-106172000D03*
X185674000Y-106172000D03*
X188214000Y-106172000D03*
X190754000Y-106172000D03*
X193294000Y-106172000D03*
X195834000Y-106172000D03*
X195834000Y-98552000D03*
X193294000Y-98552000D03*
X190754000Y-98552000D03*
X188214000Y-98552000D03*
X185674000Y-98552000D03*
X183134000Y-98552000D03*
X180594000Y-98552000D03*
X178054000Y-98552000D03*
X175514000Y-98552000D03*
X172974000Y-98552000D03*
D14*
X118364000Y-92080000D03*
D15*
X118364000Y-89540000D03*
D12*
X145288000Y-106172000D03*
D13*
X147828000Y-106172000D03*
X150368000Y-106172000D03*
X152908000Y-106172000D03*
X155448000Y-106172000D03*
X157988000Y-106172000D03*
X160528000Y-106172000D03*
X163068000Y-106172000D03*
X165608000Y-106172000D03*
X168148000Y-106172000D03*
X168148000Y-98552000D03*
X165608000Y-98552000D03*
X163068000Y-98552000D03*
X160528000Y-98552000D03*
X157988000Y-98552000D03*
X155448000Y-98552000D03*
X152908000Y-98552000D03*
X150368000Y-98552000D03*
X147828000Y-98552000D03*
X145288000Y-98552000D03*
D16*
X173101000Y-83693000D03*
D17*
X175641000Y-83693000D03*
X178181000Y-83693000D03*
X180721000Y-83693000D03*
X183261000Y-83693000D03*
X185801000Y-83693000D03*
X188341000Y-83693000D03*
X190881000Y-83693000D03*
X193421000Y-83693000D03*
D14*
X192786000Y-80137000D03*
D15*
X190246000Y-80137000D03*
X187706000Y-80137000D03*
X185166000Y-80137000D03*
X182626000Y-80137000D03*
X180086000Y-80137000D03*
X177546000Y-80137000D03*
X175006000Y-80137000D03*
X172466000Y-80137000D03*
X169926000Y-80137000D03*
X167386000Y-80137000D03*
X164846000Y-80137000D03*
X162306000Y-80137000D03*
X159766000Y-80137000D03*
X157226000Y-80137000D03*
X154686000Y-80137000D03*
X152146000Y-80137000D03*
X149606000Y-80137000D03*
X147066000Y-80137000D03*
X144526000Y-80137000D03*
X141986000Y-80137000D03*
X139446000Y-80137000D03*
X136906000Y-80137000D03*
X134366000Y-80137000D03*
X131826000Y-80137000D03*
X129286000Y-80137000D03*
X126746000Y-80137000D03*
X124206000Y-80137000D03*
X121666000Y-80137000D03*
X119126000Y-80137000D03*
X192786000Y-75057000D03*
X190246000Y-75057000D03*
X187706000Y-75057000D03*
X185166000Y-75057000D03*
X182626000Y-75057000D03*
X180086000Y-75057000D03*
X177546000Y-75057000D03*
X175006000Y-75057000D03*
X172466000Y-75057000D03*
X169926000Y-75057000D03*
X167386000Y-75057000D03*
X164846000Y-75057000D03*
X162306000Y-75057000D03*
X159766000Y-75057000D03*
X157226000Y-75057000D03*
X154686000Y-75057000D03*
X152146000Y-75057000D03*
X149606000Y-75057000D03*
X147066000Y-75057000D03*
X144526000Y-75057000D03*
X141986000Y-75057000D03*
X139446000Y-75057000D03*
X136906000Y-75057000D03*
X134366000Y-75057000D03*
X131826000Y-75057000D03*
X129286000Y-75057000D03*
X126746000Y-75057000D03*
X124206000Y-75057000D03*
X121666000Y-75057000D03*
X119126000Y-75057000D03*
D16*
X145415000Y-83693000D03*
D17*
X147955000Y-83693000D03*
X150495000Y-83693000D03*
X153035000Y-83693000D03*
X155575000Y-83693000D03*
X158115000Y-83693000D03*
X160655000Y-83693000D03*
X163195000Y-83693000D03*
X165735000Y-83693000D03*
D12*
X112776000Y-106162000D03*
D13*
X115316000Y-106162000D03*
X117856000Y-106162000D03*
X120396000Y-106162000D03*
X122936000Y-106162000D03*
X125476000Y-106162000D03*
X128016000Y-106162000D03*
X130556000Y-106162000D03*
X133096000Y-106162000D03*
X135636000Y-106162000D03*
X138176000Y-106162000D03*
X140716000Y-106162000D03*
X140716000Y-98542000D03*
X138176000Y-98542000D03*
X135636000Y-98542000D03*
X133096000Y-98542000D03*
X130556000Y-98542000D03*
X128016000Y-98542000D03*
X125476000Y-98542000D03*
X122936000Y-98542000D03*
X120396000Y-98542000D03*
X117856000Y-98542000D03*
X115316000Y-98542000D03*
X112776000Y-98542000D03*
D12*
X172974000Y-94615000D03*
D13*
X175514000Y-94615000D03*
X178054000Y-94615000D03*
X180594000Y-94615000D03*
X183134000Y-94615000D03*
X185674000Y-94615000D03*
X188214000Y-94615000D03*
X190754000Y-94615000D03*
X193294000Y-94615000D03*
X195834000Y-94615000D03*
X195834000Y-86995000D03*
X193294000Y-86995000D03*
X190754000Y-86995000D03*
X188214000Y-86995000D03*
X185674000Y-86995000D03*
X183134000Y-86995000D03*
X180594000Y-86995000D03*
X178054000Y-86995000D03*
X175514000Y-86995000D03*
X172974000Y-86995000D03*
D14*
X192786000Y-114935000D03*
D15*
X190246000Y-114935000D03*
X187706000Y-114935000D03*
X185166000Y-114935000D03*
X182626000Y-114935000D03*
X180086000Y-114935000D03*
X177546000Y-114935000D03*
X175006000Y-114935000D03*
X172466000Y-114935000D03*
X169926000Y-114935000D03*
X167386000Y-114935000D03*
X164846000Y-114935000D03*
X162306000Y-114935000D03*
X159766000Y-114935000D03*
X157226000Y-114935000D03*
X154686000Y-114935000D03*
X152146000Y-114935000D03*
X149606000Y-114935000D03*
X147066000Y-114935000D03*
X144526000Y-114935000D03*
X141986000Y-114935000D03*
X139446000Y-114935000D03*
X136906000Y-114935000D03*
X134366000Y-114935000D03*
X131826000Y-114935000D03*
X129286000Y-114935000D03*
X126746000Y-114935000D03*
X124206000Y-114935000D03*
X121666000Y-114935000D03*
X119126000Y-114935000D03*
X192786000Y-109855000D03*
X190246000Y-109855000D03*
X187706000Y-109855000D03*
X185166000Y-109855000D03*
X182626000Y-109855000D03*
X180086000Y-109855000D03*
X177546000Y-109855000D03*
X175006000Y-109855000D03*
X172466000Y-109855000D03*
X169926000Y-109855000D03*
X167386000Y-109855000D03*
X164846000Y-109855000D03*
X162306000Y-109855000D03*
X159766000Y-109855000D03*
X157226000Y-109855000D03*
X154686000Y-109855000D03*
X152146000Y-109855000D03*
X149606000Y-109855000D03*
X147066000Y-109855000D03*
X144526000Y-109855000D03*
X141986000Y-109855000D03*
X139446000Y-109855000D03*
X136906000Y-109855000D03*
X134366000Y-109855000D03*
X131826000Y-109855000D03*
X129286000Y-109855000D03*
X126746000Y-109855000D03*
X124206000Y-109855000D03*
X121666000Y-109855000D03*
X119126000Y-109855000D03*
D18*
X121513000Y-85090000D03*
X118263000Y-85090000D03*
%LPD*%
M02*
