G04 #@! TF.GenerationSoftware,KiCad,Pcbnew,8.0.6*
G04 #@! TF.CreationDate,2025-02-16T15:02:21+05:00*
G04 #@! TF.ProjectId,MegaCD-Connect BD Remake,4d656761-4344-42d4-936f-6e6e65637420,rev?*
G04 #@! TF.SameCoordinates,Original*
G04 #@! TF.FileFunction,Soldermask,Bot*
G04 #@! TF.FilePolarity,Negative*
%FSLAX46Y46*%
G04 Gerber Fmt 4.6, Leading zero omitted, Abs format (unit mm)*
G04 Created by KiCad (PCBNEW 8.0.6) date 2025-02-16 15:02:21*
%MOMM*%
%LPD*%
G01*
G04 APERTURE LIST*
G04 Aperture macros list*
%AMRoundRect*
0 Rectangle with rounded corners*
0 $1 Rounding radius*
0 $2 $3 $4 $5 $6 $7 $8 $9 X,Y pos of 4 corners*
0 Add a 4 corners polygon primitive as box body*
4,1,4,$2,$3,$4,$5,$6,$7,$8,$9,$2,$3,0*
0 Add four circle primitives for the rounded corners*
1,1,$1+$1,$2,$3*
1,1,$1+$1,$4,$5*
1,1,$1+$1,$6,$7*
1,1,$1+$1,$8,$9*
0 Add four rect primitives between the rounded corners*
20,1,$1+$1,$2,$3,$4,$5,0*
20,1,$1+$1,$4,$5,$6,$7,0*
20,1,$1+$1,$6,$7,$8,$9,0*
20,1,$1+$1,$8,$9,$2,$3,0*%
G04 Aperture macros list end*
%ADD10C,0.240000*%
%ADD11R,1.600000X2.400000*%
%ADD12O,1.600000X2.400000*%
%ADD13R,1.700000X1.700000*%
%ADD14O,1.700000X1.700000*%
%ADD15R,1.600000X1.600000*%
%ADD16O,1.600000X1.600000*%
%ADD17RoundRect,0.250000X-0.325000X-0.650000X0.325000X-0.650000X0.325000X0.650000X-0.325000X0.650000X0*%
%ADD18RoundRect,0.250000X0.325000X0.650000X-0.325000X0.650000X-0.325000X-0.650000X0.325000X-0.650000X0*%
G04 APERTURE END LIST*
D10*
X108383424Y-89714227D02*
X109311996Y-89598155D01*
X109311996Y-89598155D02*
X109497710Y-89517798D01*
X109497710Y-89517798D02*
X109621520Y-89388036D01*
X109621520Y-89388036D02*
X109683424Y-89208870D01*
X109683424Y-89208870D02*
X109683424Y-89094584D01*
X109683424Y-90808870D02*
X109064377Y-90486251D01*
X109683424Y-90123156D02*
X108383424Y-90285656D01*
X108383424Y-90285656D02*
X108383424Y-90742799D01*
X108383424Y-90742799D02*
X108445329Y-90849346D01*
X108445329Y-90849346D02*
X108507234Y-90898751D01*
X108507234Y-90898751D02*
X108631043Y-90940418D01*
X108631043Y-90940418D02*
X108816758Y-90917203D01*
X108816758Y-90917203D02*
X108940567Y-90844584D01*
X108940567Y-90844584D02*
X109002472Y-90779703D01*
X109002472Y-90779703D02*
X109064377Y-90657680D01*
X109064377Y-90657680D02*
X109064377Y-90200537D01*
X109002472Y-91808275D02*
X109064377Y-91971965D01*
X109064377Y-91971965D02*
X109126281Y-92021370D01*
X109126281Y-92021370D02*
X109250091Y-92063037D01*
X109250091Y-92063037D02*
X109435805Y-92039822D01*
X109435805Y-92039822D02*
X109559615Y-91967203D01*
X109559615Y-91967203D02*
X109621520Y-91902322D01*
X109621520Y-91902322D02*
X109683424Y-91780299D01*
X109683424Y-91780299D02*
X109683424Y-91323156D01*
X109683424Y-91323156D02*
X108383424Y-91485656D01*
X108383424Y-91485656D02*
X108383424Y-91885656D01*
X108383424Y-91885656D02*
X108445329Y-91992203D01*
X108445329Y-91992203D02*
X108507234Y-92041608D01*
X108507234Y-92041608D02*
X108631043Y-92083275D01*
X108631043Y-92083275D02*
X108754853Y-92067799D01*
X108754853Y-92067799D02*
X108878662Y-91995180D01*
X108878662Y-91995180D02*
X108940567Y-91930299D01*
X108940567Y-91930299D02*
X109002472Y-91808275D01*
X109002472Y-91808275D02*
X109002472Y-91408275D01*
X108383424Y-92514227D02*
X109683424Y-92751727D01*
X109683424Y-92751727D02*
X108383424Y-93314227D01*
X108383424Y-93599941D02*
X108383424Y-94399941D01*
X108383424Y-94399941D02*
X109683424Y-93437441D01*
X109683424Y-93437441D02*
X109683424Y-94237441D01*
X108507234Y-95698751D02*
X108445329Y-95763632D01*
X108445329Y-95763632D02*
X108383424Y-95885655D01*
X108383424Y-95885655D02*
X108383424Y-96171370D01*
X108383424Y-96171370D02*
X108445329Y-96277917D01*
X108445329Y-96277917D02*
X108507234Y-96327322D01*
X108507234Y-96327322D02*
X108631043Y-96368989D01*
X108631043Y-96368989D02*
X108754853Y-96353513D01*
X108754853Y-96353513D02*
X108940567Y-96273155D01*
X108940567Y-96273155D02*
X109683424Y-95494584D01*
X109683424Y-95494584D02*
X109683424Y-96237441D01*
X108383424Y-97142798D02*
X108383424Y-97257084D01*
X108383424Y-97257084D02*
X108445329Y-97363631D01*
X108445329Y-97363631D02*
X108507234Y-97413036D01*
X108507234Y-97413036D02*
X108631043Y-97454703D01*
X108631043Y-97454703D02*
X108878662Y-97480893D01*
X108878662Y-97480893D02*
X109188186Y-97442203D01*
X109188186Y-97442203D02*
X109435805Y-97354108D01*
X109435805Y-97354108D02*
X109559615Y-97281489D01*
X109559615Y-97281489D02*
X109621520Y-97216608D01*
X109621520Y-97216608D02*
X109683424Y-97094584D01*
X109683424Y-97094584D02*
X109683424Y-96980298D01*
X109683424Y-96980298D02*
X109621520Y-96873751D01*
X109621520Y-96873751D02*
X109559615Y-96824346D01*
X109559615Y-96824346D02*
X109435805Y-96782679D01*
X109435805Y-96782679D02*
X109188186Y-96756489D01*
X109188186Y-96756489D02*
X108878662Y-96795179D01*
X108878662Y-96795179D02*
X108631043Y-96883274D01*
X108631043Y-96883274D02*
X108507234Y-96955893D01*
X108507234Y-96955893D02*
X108445329Y-97020774D01*
X108445329Y-97020774D02*
X108383424Y-97142798D01*
X108507234Y-97984465D02*
X108445329Y-98049346D01*
X108445329Y-98049346D02*
X108383424Y-98171369D01*
X108383424Y-98171369D02*
X108383424Y-98457084D01*
X108383424Y-98457084D02*
X108445329Y-98563631D01*
X108445329Y-98563631D02*
X108507234Y-98613036D01*
X108507234Y-98613036D02*
X108631043Y-98654703D01*
X108631043Y-98654703D02*
X108754853Y-98639227D01*
X108754853Y-98639227D02*
X108940567Y-98558869D01*
X108940567Y-98558869D02*
X109683424Y-97780298D01*
X109683424Y-97780298D02*
X109683424Y-98523155D01*
X108383424Y-99771369D02*
X108383424Y-99199941D01*
X108383424Y-99199941D02*
X109002472Y-99065417D01*
X109002472Y-99065417D02*
X108940567Y-99130298D01*
X108940567Y-99130298D02*
X108878662Y-99252322D01*
X108878662Y-99252322D02*
X108878662Y-99538036D01*
X108878662Y-99538036D02*
X108940567Y-99644584D01*
X108940567Y-99644584D02*
X109002472Y-99693988D01*
X109002472Y-99693988D02*
X109126281Y-99735655D01*
X109126281Y-99735655D02*
X109435805Y-99696965D01*
X109435805Y-99696965D02*
X109559615Y-99624345D01*
X109559615Y-99624345D02*
X109621520Y-99559465D01*
X109621520Y-99559465D02*
X109683424Y-99437441D01*
X109683424Y-99437441D02*
X109683424Y-99151726D01*
X109683424Y-99151726D02*
X109621520Y-99045179D01*
X109621520Y-99045179D02*
X109559615Y-98995774D01*
D11*
X145288000Y-94615000D03*
D12*
X147828000Y-94615000D03*
X150368000Y-94615000D03*
X152908000Y-94615000D03*
X155448000Y-94615000D03*
X157988000Y-94615000D03*
X160528000Y-94615000D03*
X163068000Y-94615000D03*
X165608000Y-94615000D03*
X168148000Y-94615000D03*
X168148000Y-86995000D03*
X165608000Y-86995000D03*
X163068000Y-86995000D03*
X160528000Y-86995000D03*
X157988000Y-86995000D03*
X155448000Y-86995000D03*
X152908000Y-86995000D03*
X150368000Y-86995000D03*
X147828000Y-86995000D03*
X145288000Y-86995000D03*
D11*
X125476000Y-94615000D03*
D12*
X128016000Y-94615000D03*
X130556000Y-94615000D03*
X133096000Y-94615000D03*
X135636000Y-94615000D03*
X138176000Y-94615000D03*
X140716000Y-94615000D03*
X140716000Y-86995000D03*
X138176000Y-86995000D03*
X135636000Y-86995000D03*
X133096000Y-86995000D03*
X130556000Y-86995000D03*
X128016000Y-86995000D03*
X125476000Y-86995000D03*
D11*
X172974000Y-106172000D03*
D12*
X175514000Y-106172000D03*
X178054000Y-106172000D03*
X180594000Y-106172000D03*
X183134000Y-106172000D03*
X185674000Y-106172000D03*
X188214000Y-106172000D03*
X190754000Y-106172000D03*
X193294000Y-106172000D03*
X195834000Y-106172000D03*
X195834000Y-98552000D03*
X193294000Y-98552000D03*
X190754000Y-98552000D03*
X188214000Y-98552000D03*
X185674000Y-98552000D03*
X183134000Y-98552000D03*
X180594000Y-98552000D03*
X178054000Y-98552000D03*
X175514000Y-98552000D03*
X172974000Y-98552000D03*
D13*
X118364000Y-92080000D03*
D14*
X118364000Y-89540000D03*
D11*
X145288000Y-106172000D03*
D12*
X147828000Y-106172000D03*
X150368000Y-106172000D03*
X152908000Y-106172000D03*
X155448000Y-106172000D03*
X157988000Y-106172000D03*
X160528000Y-106172000D03*
X163068000Y-106172000D03*
X165608000Y-106172000D03*
X168148000Y-106172000D03*
X168148000Y-98552000D03*
X165608000Y-98552000D03*
X163068000Y-98552000D03*
X160528000Y-98552000D03*
X157988000Y-98552000D03*
X155448000Y-98552000D03*
X152908000Y-98552000D03*
X150368000Y-98552000D03*
X147828000Y-98552000D03*
X145288000Y-98552000D03*
D15*
X173101000Y-83693000D03*
D16*
X175641000Y-83693000D03*
X178181000Y-83693000D03*
X180721000Y-83693000D03*
X183261000Y-83693000D03*
X185801000Y-83693000D03*
X188341000Y-83693000D03*
X190881000Y-83693000D03*
X193421000Y-83693000D03*
D13*
X192786000Y-80137000D03*
D14*
X190246000Y-80137000D03*
X187706000Y-80137000D03*
X185166000Y-80137000D03*
X182626000Y-80137000D03*
X180086000Y-80137000D03*
X177546000Y-80137000D03*
X175006000Y-80137000D03*
X172466000Y-80137000D03*
X169926000Y-80137000D03*
X167386000Y-80137000D03*
X164846000Y-80137000D03*
X162306000Y-80137000D03*
X159766000Y-80137000D03*
X157226000Y-80137000D03*
X154686000Y-80137000D03*
X152146000Y-80137000D03*
X149606000Y-80137000D03*
X147066000Y-80137000D03*
X144526000Y-80137000D03*
X141986000Y-80137000D03*
X139446000Y-80137000D03*
X136906000Y-80137000D03*
X134366000Y-80137000D03*
X131826000Y-80137000D03*
X129286000Y-80137000D03*
X126746000Y-80137000D03*
X124206000Y-80137000D03*
X121666000Y-80137000D03*
X119126000Y-80137000D03*
X192786000Y-75057000D03*
X190246000Y-75057000D03*
X187706000Y-75057000D03*
X185166000Y-75057000D03*
X182626000Y-75057000D03*
X180086000Y-75057000D03*
X177546000Y-75057000D03*
X175006000Y-75057000D03*
X172466000Y-75057000D03*
X169926000Y-75057000D03*
X167386000Y-75057000D03*
X164846000Y-75057000D03*
X162306000Y-75057000D03*
X159766000Y-75057000D03*
X157226000Y-75057000D03*
X154686000Y-75057000D03*
X152146000Y-75057000D03*
X149606000Y-75057000D03*
X147066000Y-75057000D03*
X144526000Y-75057000D03*
X141986000Y-75057000D03*
X139446000Y-75057000D03*
X136906000Y-75057000D03*
X134366000Y-75057000D03*
X131826000Y-75057000D03*
X129286000Y-75057000D03*
X126746000Y-75057000D03*
X124206000Y-75057000D03*
X121666000Y-75057000D03*
X119126000Y-75057000D03*
D15*
X145415000Y-83693000D03*
D16*
X147955000Y-83693000D03*
X150495000Y-83693000D03*
X153035000Y-83693000D03*
X155575000Y-83693000D03*
X158115000Y-83693000D03*
X160655000Y-83693000D03*
X163195000Y-83693000D03*
X165735000Y-83693000D03*
D11*
X112776000Y-106162000D03*
D12*
X115316000Y-106162000D03*
X117856000Y-106162000D03*
X120396000Y-106162000D03*
X122936000Y-106162000D03*
X125476000Y-106162000D03*
X128016000Y-106162000D03*
X130556000Y-106162000D03*
X133096000Y-106162000D03*
X135636000Y-106162000D03*
X138176000Y-106162000D03*
X140716000Y-106162000D03*
X140716000Y-98542000D03*
X138176000Y-98542000D03*
X135636000Y-98542000D03*
X133096000Y-98542000D03*
X130556000Y-98542000D03*
X128016000Y-98542000D03*
X125476000Y-98542000D03*
X122936000Y-98542000D03*
X120396000Y-98542000D03*
X117856000Y-98542000D03*
X115316000Y-98542000D03*
X112776000Y-98542000D03*
D11*
X172974000Y-94615000D03*
D12*
X175514000Y-94615000D03*
X178054000Y-94615000D03*
X180594000Y-94615000D03*
X183134000Y-94615000D03*
X185674000Y-94615000D03*
X188214000Y-94615000D03*
X190754000Y-94615000D03*
X193294000Y-94615000D03*
X195834000Y-94615000D03*
X195834000Y-86995000D03*
X193294000Y-86995000D03*
X190754000Y-86995000D03*
X188214000Y-86995000D03*
X185674000Y-86995000D03*
X183134000Y-86995000D03*
X180594000Y-86995000D03*
X178054000Y-86995000D03*
X175514000Y-86995000D03*
X172974000Y-86995000D03*
D13*
X192786000Y-114935000D03*
D14*
X190246000Y-114935000D03*
X187706000Y-114935000D03*
X185166000Y-114935000D03*
X182626000Y-114935000D03*
X180086000Y-114935000D03*
X177546000Y-114935000D03*
X175006000Y-114935000D03*
X172466000Y-114935000D03*
X169926000Y-114935000D03*
X167386000Y-114935000D03*
X164846000Y-114935000D03*
X162306000Y-114935000D03*
X159766000Y-114935000D03*
X157226000Y-114935000D03*
X154686000Y-114935000D03*
X152146000Y-114935000D03*
X149606000Y-114935000D03*
X147066000Y-114935000D03*
X144526000Y-114935000D03*
X141986000Y-114935000D03*
X139446000Y-114935000D03*
X136906000Y-114935000D03*
X134366000Y-114935000D03*
X131826000Y-114935000D03*
X129286000Y-114935000D03*
X126746000Y-114935000D03*
X124206000Y-114935000D03*
X121666000Y-114935000D03*
X119126000Y-114935000D03*
X192786000Y-109855000D03*
X190246000Y-109855000D03*
X187706000Y-109855000D03*
X185166000Y-109855000D03*
X182626000Y-109855000D03*
X180086000Y-109855000D03*
X177546000Y-109855000D03*
X175006000Y-109855000D03*
X172466000Y-109855000D03*
X169926000Y-109855000D03*
X167386000Y-109855000D03*
X164846000Y-109855000D03*
X162306000Y-109855000D03*
X159766000Y-109855000D03*
X157226000Y-109855000D03*
X154686000Y-109855000D03*
X152146000Y-109855000D03*
X149606000Y-109855000D03*
X147066000Y-109855000D03*
X144526000Y-109855000D03*
X141986000Y-109855000D03*
X139446000Y-109855000D03*
X136906000Y-109855000D03*
X134366000Y-109855000D03*
X131826000Y-109855000D03*
X129286000Y-109855000D03*
X126746000Y-109855000D03*
X124206000Y-109855000D03*
X121666000Y-109855000D03*
X119126000Y-109855000D03*
D17*
X173785000Y-90805000D03*
X176735000Y-90805000D03*
X127049000Y-90805000D03*
X129999000Y-90805000D03*
X146353000Y-90805000D03*
X149303000Y-90805000D03*
D18*
X147652000Y-102362000D03*
X144702000Y-102362000D03*
D17*
X112825000Y-102362000D03*
X115775000Y-102362000D03*
X173277000Y-102362000D03*
X176227000Y-102362000D03*
M02*
