%TF.GenerationSoftware,KiCad,Pcbnew,8.0.6*%
%TF.CreationDate,2025-02-16T15:03:30+05:00*%
%TF.ProjectId,MegaCD-Connect BD Remake,4d656761-4344-42d4-936f-6e6e65637420,rev?*%
%TF.SameCoordinates,Original*%
%TF.FileFunction,Drillmap*%
%TF.FilePolarity,Positive*%
%FSLAX45Y45*%
G04 Gerber Fmt 4.5, Leading zero omitted, Abs format (unit mm)*
G04 Created by KiCad (PCBNEW 8.0.6) date 2025-02-16 15:03:30*
%MOMM*%
%LPD*%
G01*
G04 APERTURE LIST*
%ADD10C,0.100000*%
%ADD11C,0.200000*%
G04 APERTURE END LIST*
D10*
X11112500Y-10390420D02*
X11112500Y-10570760D01*
X11239160Y-7769140D02*
G75*
G02*
X10888640Y-7769140I-175260J0D01*
G01*
X10888640Y-7769140D02*
G75*
G02*
X11239160Y-7769140I175260J0D01*
G01*
X10708300Y-11709400D02*
X20508300Y-11709400D01*
X20045340Y-10586000D02*
X20507620Y-10586000D01*
X20045340Y-10108480D02*
X20045340Y-10586000D01*
X11112500Y-10570760D02*
X10708300Y-10570760D01*
X10708300Y-10390420D02*
X11112500Y-10390420D01*
X10708300Y-8378740D02*
X11102000Y-8378740D01*
X11234080Y-11264180D02*
G75*
G02*
X10883560Y-11264180I-175260J0D01*
G01*
X10883560Y-11264180D02*
G75*
G02*
X11234080Y-11264180I175260J0D01*
G01*
X10708300Y-7309400D02*
X10708300Y-8378740D01*
X20045340Y-8574320D02*
X20507620Y-8574320D01*
X11102000Y-8574320D02*
X10708300Y-8574320D01*
X20322200Y-11264180D02*
G75*
G02*
X19971680Y-11264180I-175260J0D01*
G01*
X19971680Y-11264180D02*
G75*
G02*
X20322200Y-11264180I175260J0D01*
G01*
X20045340Y-8378740D02*
X20045340Y-8574320D01*
X10708300Y-8574320D02*
X10708300Y-10390420D01*
X20508300Y-7309400D02*
X20507620Y-8378740D01*
X10708300Y-10570760D02*
X10708300Y-11709400D01*
X11437280Y-9516660D02*
G75*
G02*
X11086760Y-9516660I-175260J0D01*
G01*
X11086760Y-9516660D02*
G75*
G02*
X11437280Y-9516660I175260J0D01*
G01*
X20319660Y-7769140D02*
G75*
G02*
X19969140Y-7769140I-175260J0D01*
G01*
X19969140Y-7769140D02*
G75*
G02*
X20319660Y-7769140I175260J0D01*
G01*
X10708300Y-7309400D02*
X20508300Y-7309400D01*
X20119000Y-9516660D02*
G75*
G02*
X19768480Y-9516660I-175260J0D01*
G01*
X19768480Y-9516660D02*
G75*
G02*
X20119000Y-9516660I175260J0D01*
G01*
X20507620Y-10108480D02*
X20045340Y-10108480D01*
X20507620Y-8574320D02*
X20507620Y-10108480D01*
X20507620Y-8378740D02*
X20045340Y-8378740D01*
X11102000Y-8378740D02*
X11102000Y-8574320D01*
X20507620Y-10586000D02*
X20508300Y-11709400D01*
D11*
D10*
X11351500Y-7503400D02*
X11381500Y-7533400D01*
X11381500Y-7503400D02*
X11351500Y-7533400D01*
X11351500Y-8011400D02*
X11381500Y-8041400D01*
X11381500Y-8011400D02*
X11351500Y-8041400D01*
X11351500Y-8519400D02*
X11381500Y-8549400D01*
X11381500Y-8519400D02*
X11351500Y-8549400D01*
X11351500Y-9027400D02*
X11381500Y-9057400D01*
X11381500Y-9027400D02*
X11351500Y-9057400D01*
X11618200Y-7503400D02*
X11648200Y-7533400D01*
X11648200Y-7503400D02*
X11618200Y-7533400D01*
X11618200Y-8011400D02*
X11648200Y-8041400D01*
X11648200Y-8011400D02*
X11618200Y-8041400D01*
X11618200Y-8519400D02*
X11648200Y-8549400D01*
X11648200Y-8519400D02*
X11618200Y-8549400D01*
X11618200Y-11249900D02*
X11648200Y-11279900D01*
X11648200Y-11249900D02*
X11618200Y-11279900D01*
X11618200Y-11465800D02*
X11648200Y-11495800D01*
X11648200Y-11465800D02*
X11618200Y-11495800D01*
X11796530Y-10351170D02*
X11826530Y-10381170D01*
X11826530Y-10351170D02*
X11796530Y-10381170D01*
X12024600Y-10221200D02*
X12054600Y-10251200D01*
X12054600Y-10221200D02*
X12024600Y-10251200D01*
X12278600Y-7732000D02*
X12308600Y-7762000D01*
X12308600Y-7732000D02*
X12278600Y-7762000D01*
X12291300Y-8138400D02*
X12321300Y-8168400D01*
X12321300Y-8138400D02*
X12291300Y-8168400D01*
X12291300Y-9509150D02*
X12321300Y-9539150D01*
X12321300Y-9509150D02*
X12291300Y-9539150D01*
X12405600Y-10221200D02*
X12435600Y-10251200D01*
X12435600Y-10221200D02*
X12405600Y-10251200D01*
X12532600Y-7732000D02*
X12562600Y-7762000D01*
X12562600Y-7732000D02*
X12532600Y-7762000D01*
X12532600Y-8341600D02*
X12562600Y-8371600D01*
X12562600Y-8341600D02*
X12532600Y-8371600D01*
X12659600Y-10399000D02*
X12689600Y-10429000D01*
X12689600Y-10399000D02*
X12659600Y-10429000D01*
X12862800Y-10195800D02*
X12892800Y-10225800D01*
X12892800Y-10195800D02*
X12862800Y-10225800D01*
X12875500Y-8900400D02*
X12905500Y-8930400D01*
X12905500Y-8900400D02*
X12875500Y-8930400D01*
X12875500Y-9230600D02*
X12905500Y-9260600D01*
X12905500Y-9230600D02*
X12875500Y-9260600D01*
X13040600Y-8341600D02*
X13070600Y-8371600D01*
X13070600Y-8341600D02*
X13040600Y-8371600D01*
X13040600Y-10221200D02*
X13070600Y-10251200D01*
X13070600Y-10221200D02*
X13040600Y-10251200D01*
X13294600Y-7732000D02*
X13324600Y-7762000D01*
X13324600Y-7732000D02*
X13294600Y-7762000D01*
X13294600Y-8341600D02*
X13324600Y-8371600D01*
X13324600Y-8341600D02*
X13294600Y-8371600D01*
X13294600Y-10221200D02*
X13324600Y-10251200D01*
X13324600Y-10221200D02*
X13294600Y-10251200D01*
X13548600Y-8900400D02*
X13578600Y-8930400D01*
X13578600Y-8900400D02*
X13548600Y-8930400D01*
X13548600Y-9230600D02*
X13578600Y-9260600D01*
X13578600Y-9230600D02*
X13548600Y-9260600D01*
X13548600Y-10221200D02*
X13578600Y-10251200D01*
X13578600Y-10221200D02*
X13548600Y-10251200D01*
X13548600Y-11364200D02*
X13578600Y-11394200D01*
X13578600Y-11364200D02*
X13548600Y-11394200D01*
X13802600Y-10221200D02*
X13832600Y-10251200D01*
X13832600Y-10221200D02*
X13802600Y-10251200D01*
X14056600Y-9052800D02*
X14086600Y-9082800D01*
X14086600Y-9052800D02*
X14056600Y-9082800D01*
X14056600Y-10221200D02*
X14086600Y-10251200D01*
X14086600Y-10221200D02*
X14056600Y-10251200D01*
X14056600Y-11199100D02*
X14086600Y-11229100D01*
X14086600Y-11199100D02*
X14056600Y-11229100D01*
X14056600Y-11592800D02*
X14086600Y-11622800D01*
X14086600Y-11592800D02*
X14056600Y-11622800D01*
X14068590Y-8434460D02*
X14098590Y-8464460D01*
X14098590Y-8434460D02*
X14068590Y-8464460D01*
X14146610Y-10391180D02*
X14176610Y-10421180D01*
X14176610Y-10391180D02*
X14146610Y-10421180D01*
X14183600Y-10741900D02*
X14213600Y-10771900D01*
X14213600Y-10741900D02*
X14183600Y-10771900D01*
X14186620Y-8334440D02*
X14216620Y-8364440D01*
X14216620Y-8334440D02*
X14186620Y-8364440D01*
X14424900Y-10399000D02*
X14454900Y-10429000D01*
X14454900Y-10399000D02*
X14424900Y-10429000D01*
X14488400Y-8900400D02*
X14518400Y-8930400D01*
X14518400Y-8900400D02*
X14488400Y-8930400D01*
X14488400Y-9217900D02*
X14518400Y-9247900D01*
X14518400Y-9217900D02*
X14488400Y-9247900D01*
X14729700Y-7808200D02*
X14759700Y-7838200D01*
X14759700Y-7808200D02*
X14729700Y-7838200D01*
X14767800Y-9065500D02*
X14797800Y-9095500D01*
X14797800Y-9065500D02*
X14767800Y-9095500D01*
X14818600Y-7605000D02*
X14848600Y-7635000D01*
X14848600Y-7605000D02*
X14818600Y-7635000D01*
X14894800Y-7782800D02*
X14924800Y-7812800D01*
X14924800Y-7782800D02*
X14894800Y-7812800D01*
X14971000Y-7782800D02*
X15001000Y-7812800D01*
X15001000Y-7782800D02*
X14971000Y-7812800D01*
X14983700Y-8176500D02*
X15013700Y-8206500D01*
X15013700Y-8176500D02*
X14983700Y-8206500D01*
X15021800Y-9246480D02*
X15051800Y-9276480D01*
X15051800Y-9246480D02*
X15021800Y-9276480D01*
X15021800Y-10101090D02*
X15051800Y-10131090D01*
X15051800Y-10101090D02*
X15021800Y-10131090D01*
X15212300Y-10221200D02*
X15242300Y-10251200D01*
X15242300Y-10221200D02*
X15212300Y-10251200D01*
X15275800Y-8896430D02*
X15305800Y-8926430D01*
X15305800Y-8896430D02*
X15275800Y-8926430D01*
X15326600Y-11199100D02*
X15356600Y-11229100D01*
X15356600Y-11199100D02*
X15326600Y-11229100D01*
X15559810Y-10081500D02*
X15589810Y-10111500D01*
X15589810Y-10081500D02*
X15559810Y-10111500D01*
X15559810Y-10272150D02*
X15589810Y-10302150D01*
X15589810Y-10272150D02*
X15559810Y-10302150D01*
X15589810Y-9276490D02*
X15619810Y-9306490D01*
X15619810Y-9276490D02*
X15589810Y-9306490D01*
X15707600Y-11135600D02*
X15737600Y-11165600D01*
X15737600Y-11135600D02*
X15707600Y-11165600D01*
X15712520Y-10272150D02*
X15742520Y-10302150D01*
X15742520Y-10272150D02*
X15712520Y-10302150D01*
X16037800Y-9156470D02*
X16067800Y-9186470D01*
X16067800Y-9156470D02*
X16037800Y-9186470D01*
X16215600Y-7706600D02*
X16245600Y-7736600D01*
X16245600Y-7706600D02*
X16215600Y-7736600D01*
X16253700Y-9276490D02*
X16283700Y-9306490D01*
X16283700Y-9276490D02*
X16253700Y-9306490D01*
X16317200Y-8956440D02*
X16347200Y-8986440D01*
X16347200Y-8956440D02*
X16317200Y-8986440D01*
X16421810Y-9096460D02*
X16451810Y-9126460D01*
X16451810Y-9096460D02*
X16421810Y-9126460D01*
X16545800Y-9036450D02*
X16575800Y-9066450D01*
X16575800Y-9036450D02*
X16545800Y-9066450D01*
X16596600Y-11563510D02*
X16626600Y-11593510D01*
X16626600Y-11563510D02*
X16596600Y-11593510D01*
X16774400Y-8392400D02*
X16804400Y-8422400D01*
X16804400Y-8392400D02*
X16774400Y-8422400D01*
X16799800Y-8976600D02*
X16829800Y-9006600D01*
X16829800Y-8976600D02*
X16799800Y-9006600D01*
X16799800Y-10170400D02*
X16829800Y-10200400D01*
X16829800Y-10170400D02*
X16799800Y-10200400D01*
X16850600Y-11199100D02*
X16880600Y-11229100D01*
X16880600Y-11199100D02*
X16850600Y-11229100D01*
X16889810Y-10392180D02*
X16919810Y-10422180D01*
X16919810Y-10392180D02*
X16889810Y-10422180D01*
X16909810Y-8417800D02*
X16939810Y-8447800D01*
X16939810Y-8417800D02*
X16909810Y-8447800D01*
X16977600Y-7732000D02*
X17007600Y-7762000D01*
X17007600Y-7732000D02*
X16977600Y-7762000D01*
X17104600Y-11135600D02*
X17134600Y-11165600D01*
X17134600Y-11135600D02*
X17104600Y-11165600D01*
X17206200Y-10399000D02*
X17236200Y-10429000D01*
X17236200Y-10399000D02*
X17206200Y-10429000D01*
X17231600Y-7732000D02*
X17261600Y-7762000D01*
X17261600Y-7732000D02*
X17231600Y-7762000D01*
X17345900Y-10043400D02*
X17375900Y-10073400D01*
X17375900Y-10043400D02*
X17345900Y-10073400D01*
X17345900Y-11249900D02*
X17375900Y-11279900D01*
X17375900Y-11249900D02*
X17345900Y-11279900D01*
X17366380Y-9236480D02*
X17396380Y-9266480D01*
X17396380Y-9236480D02*
X17366380Y-9266480D01*
X17406620Y-8144270D02*
X17436620Y-8174270D01*
X17436620Y-8144270D02*
X17406620Y-8174270D01*
X17485600Y-7732000D02*
X17515600Y-7762000D01*
X17515600Y-7732000D02*
X17485600Y-7762000D01*
X17485600Y-8900400D02*
X17515600Y-8930400D01*
X17515600Y-8900400D02*
X17485600Y-8930400D01*
X17638000Y-10043400D02*
X17668000Y-10073400D01*
X17668000Y-10043400D02*
X17638000Y-10073400D01*
X17790400Y-10297400D02*
X17820400Y-10327400D01*
X17820400Y-10297400D02*
X17790400Y-10327400D01*
X17815800Y-9154400D02*
X17845800Y-9184400D01*
X17845800Y-9154400D02*
X17815800Y-9184400D01*
X17866600Y-7376400D02*
X17896600Y-7406400D01*
X17896600Y-7376400D02*
X17866600Y-7406400D01*
X17993600Y-7703660D02*
X18023600Y-7733660D01*
X18023600Y-7703660D02*
X17993600Y-7733660D01*
X17993600Y-10119600D02*
X18023600Y-10149600D01*
X18023600Y-10119600D02*
X17993600Y-10149600D01*
X18057100Y-10246600D02*
X18087100Y-10276600D01*
X18087100Y-10246600D02*
X18057100Y-10276600D01*
X18057100Y-10348200D02*
X18087100Y-10378200D01*
X18087100Y-10348200D02*
X18057100Y-10378200D01*
X18184100Y-11303480D02*
X18214100Y-11333480D01*
X18214100Y-11303480D02*
X18184100Y-11333480D01*
X18227120Y-10373600D02*
X18257120Y-10403600D01*
X18257120Y-10373600D02*
X18227120Y-10403600D01*
X18247600Y-7823680D02*
X18277600Y-7853680D01*
X18277600Y-7823680D02*
X18247600Y-7853680D01*
X18285700Y-10145000D02*
X18315700Y-10175000D01*
X18315700Y-10145000D02*
X18285700Y-10175000D01*
X18298400Y-9056340D02*
X18328400Y-9086340D01*
X18328400Y-9056340D02*
X18298400Y-9086340D01*
X18371110Y-8144260D02*
X18401110Y-8174260D01*
X18401110Y-8144260D02*
X18371110Y-8174260D01*
X18408410Y-8960850D02*
X18438410Y-8990850D01*
X18438410Y-8960850D02*
X18408410Y-8990850D01*
X18468420Y-10072120D02*
X18498420Y-10102120D01*
X18498420Y-10072120D02*
X18468420Y-10102120D01*
X18548440Y-10172130D02*
X18578440Y-10202130D01*
X18578440Y-10172130D02*
X18548440Y-10202130D01*
X18781000Y-7820900D02*
X18811000Y-7850900D01*
X18811000Y-7820900D02*
X18781000Y-7850900D01*
X18916350Y-8960850D02*
X18946350Y-8990850D01*
X18946350Y-8960850D02*
X18916350Y-8990850D01*
X18933400Y-9675100D02*
X18963400Y-9705100D01*
X18963400Y-9675100D02*
X18933400Y-9705100D01*
X18972930Y-9056340D02*
X19002930Y-9086340D01*
X19002930Y-9056340D02*
X18972930Y-9086340D01*
X19009600Y-7795500D02*
X19039600Y-7825500D01*
X19039600Y-7795500D02*
X19009600Y-7825500D01*
X19060400Y-9196470D02*
X19090400Y-9226470D01*
X19090400Y-9196470D02*
X19060400Y-9226470D01*
X19136600Y-10795540D02*
X19166600Y-10825540D01*
X19166600Y-10795540D02*
X19136600Y-10825540D01*
X19200100Y-10172130D02*
X19230100Y-10202130D01*
X19230100Y-10172130D02*
X19200100Y-10202130D01*
X19327100Y-10170400D02*
X19357100Y-10200400D01*
X19357100Y-10170400D02*
X19327100Y-10200400D01*
X19428700Y-7795500D02*
X19458700Y-7825500D01*
X19458700Y-7795500D02*
X19428700Y-7825500D01*
X19568400Y-9002000D02*
X19598400Y-9032000D01*
X19598400Y-9002000D02*
X19568400Y-9032000D01*
X19568400Y-10983200D02*
X19598400Y-11013200D01*
X19598400Y-10983200D02*
X19568400Y-11013200D01*
X19581100Y-7935200D02*
X19611100Y-7965200D01*
X19611100Y-7935200D02*
X19581100Y-7965200D01*
X19606500Y-10373600D02*
X19636500Y-10403600D01*
X19636500Y-10373600D02*
X19606500Y-10403600D01*
X19771600Y-10373600D02*
X19801600Y-10403600D01*
X19801600Y-10373600D02*
X19771600Y-10403600D01*
X19847800Y-11110200D02*
X19877800Y-11140200D01*
X19877800Y-11110200D02*
X19847800Y-11140200D01*
X19847800Y-11516600D02*
X19877800Y-11546600D01*
X19877800Y-11516600D02*
X19847800Y-11546600D01*
X20254200Y-8671800D02*
X20284200Y-8701800D01*
X20284200Y-8671800D02*
X20254200Y-8701800D01*
X20254200Y-9078200D02*
X20284200Y-9108200D01*
X20284200Y-9078200D02*
X20254200Y-9108200D01*
X20254200Y-9484600D02*
X20284200Y-9514600D01*
X20284200Y-9484600D02*
X20254200Y-9514600D01*
X20254200Y-9891000D02*
X20284200Y-9921000D01*
X20284200Y-9891000D02*
X20254200Y-9921000D01*
X11317600Y-9854200D02*
G75*
G02*
X11237600Y-9854200I-40000J0D01*
G01*
X11237600Y-9854200D02*
G75*
G02*
X11317600Y-9854200I40000J0D01*
G01*
X11317600Y-10616200D02*
G75*
G02*
X11237600Y-10616200I-40000J0D01*
G01*
X11237600Y-10616200D02*
G75*
G02*
X11317600Y-10616200I40000J0D01*
G01*
X11571600Y-9854200D02*
G75*
G02*
X11491600Y-9854200I-40000J0D01*
G01*
X11491600Y-9854200D02*
G75*
G02*
X11571600Y-9854200I40000J0D01*
G01*
X11571600Y-10616200D02*
G75*
G02*
X11491600Y-10616200I-40000J0D01*
G01*
X11491600Y-10616200D02*
G75*
G02*
X11571600Y-10616200I40000J0D01*
G01*
X11825600Y-9854200D02*
G75*
G02*
X11745600Y-9854200I-40000J0D01*
G01*
X11745600Y-9854200D02*
G75*
G02*
X11825600Y-9854200I40000J0D01*
G01*
X11825600Y-10616200D02*
G75*
G02*
X11745600Y-10616200I-40000J0D01*
G01*
X11745600Y-10616200D02*
G75*
G02*
X11825600Y-10616200I40000J0D01*
G01*
X12079600Y-9854200D02*
G75*
G02*
X11999600Y-9854200I-40000J0D01*
G01*
X11999600Y-9854200D02*
G75*
G02*
X12079600Y-9854200I40000J0D01*
G01*
X12079600Y-10616200D02*
G75*
G02*
X11999600Y-10616200I-40000J0D01*
G01*
X11999600Y-10616200D02*
G75*
G02*
X12079600Y-10616200I40000J0D01*
G01*
X12333600Y-9854200D02*
G75*
G02*
X12253600Y-9854200I-40000J0D01*
G01*
X12253600Y-9854200D02*
G75*
G02*
X12333600Y-9854200I40000J0D01*
G01*
X12333600Y-10616200D02*
G75*
G02*
X12253600Y-10616200I-40000J0D01*
G01*
X12253600Y-10616200D02*
G75*
G02*
X12333600Y-10616200I40000J0D01*
G01*
X12587600Y-8699500D02*
G75*
G02*
X12507600Y-8699500I-40000J0D01*
G01*
X12507600Y-8699500D02*
G75*
G02*
X12587600Y-8699500I40000J0D01*
G01*
X12587600Y-9461500D02*
G75*
G02*
X12507600Y-9461500I-40000J0D01*
G01*
X12507600Y-9461500D02*
G75*
G02*
X12587600Y-9461500I40000J0D01*
G01*
X12587600Y-9854200D02*
G75*
G02*
X12507600Y-9854200I-40000J0D01*
G01*
X12507600Y-9854200D02*
G75*
G02*
X12587600Y-9854200I40000J0D01*
G01*
X12587600Y-10616200D02*
G75*
G02*
X12507600Y-10616200I-40000J0D01*
G01*
X12507600Y-10616200D02*
G75*
G02*
X12587600Y-10616200I40000J0D01*
G01*
X12841600Y-8699500D02*
G75*
G02*
X12761600Y-8699500I-40000J0D01*
G01*
X12761600Y-8699500D02*
G75*
G02*
X12841600Y-8699500I40000J0D01*
G01*
X12841600Y-9461500D02*
G75*
G02*
X12761600Y-9461500I-40000J0D01*
G01*
X12761600Y-9461500D02*
G75*
G02*
X12841600Y-9461500I40000J0D01*
G01*
X12841600Y-9854200D02*
G75*
G02*
X12761600Y-9854200I-40000J0D01*
G01*
X12761600Y-9854200D02*
G75*
G02*
X12841600Y-9854200I40000J0D01*
G01*
X12841600Y-10616200D02*
G75*
G02*
X12761600Y-10616200I-40000J0D01*
G01*
X12761600Y-10616200D02*
G75*
G02*
X12841600Y-10616200I40000J0D01*
G01*
X13095600Y-8699500D02*
G75*
G02*
X13015600Y-8699500I-40000J0D01*
G01*
X13015600Y-8699500D02*
G75*
G02*
X13095600Y-8699500I40000J0D01*
G01*
X13095600Y-9461500D02*
G75*
G02*
X13015600Y-9461500I-40000J0D01*
G01*
X13015600Y-9461500D02*
G75*
G02*
X13095600Y-9461500I40000J0D01*
G01*
X13095600Y-9854200D02*
G75*
G02*
X13015600Y-9854200I-40000J0D01*
G01*
X13015600Y-9854200D02*
G75*
G02*
X13095600Y-9854200I40000J0D01*
G01*
X13095600Y-10616200D02*
G75*
G02*
X13015600Y-10616200I-40000J0D01*
G01*
X13015600Y-10616200D02*
G75*
G02*
X13095600Y-10616200I40000J0D01*
G01*
X13349600Y-8699500D02*
G75*
G02*
X13269600Y-8699500I-40000J0D01*
G01*
X13269600Y-8699500D02*
G75*
G02*
X13349600Y-8699500I40000J0D01*
G01*
X13349600Y-9461500D02*
G75*
G02*
X13269600Y-9461500I-40000J0D01*
G01*
X13269600Y-9461500D02*
G75*
G02*
X13349600Y-9461500I40000J0D01*
G01*
X13349600Y-9854200D02*
G75*
G02*
X13269600Y-9854200I-40000J0D01*
G01*
X13269600Y-9854200D02*
G75*
G02*
X13349600Y-9854200I40000J0D01*
G01*
X13349600Y-10616200D02*
G75*
G02*
X13269600Y-10616200I-40000J0D01*
G01*
X13269600Y-10616200D02*
G75*
G02*
X13349600Y-10616200I40000J0D01*
G01*
X13603600Y-8699500D02*
G75*
G02*
X13523600Y-8699500I-40000J0D01*
G01*
X13523600Y-8699500D02*
G75*
G02*
X13603600Y-8699500I40000J0D01*
G01*
X13603600Y-9461500D02*
G75*
G02*
X13523600Y-9461500I-40000J0D01*
G01*
X13523600Y-9461500D02*
G75*
G02*
X13603600Y-9461500I40000J0D01*
G01*
X13603600Y-9854200D02*
G75*
G02*
X13523600Y-9854200I-40000J0D01*
G01*
X13523600Y-9854200D02*
G75*
G02*
X13603600Y-9854200I40000J0D01*
G01*
X13603600Y-10616200D02*
G75*
G02*
X13523600Y-10616200I-40000J0D01*
G01*
X13523600Y-10616200D02*
G75*
G02*
X13603600Y-10616200I40000J0D01*
G01*
X13857600Y-8699500D02*
G75*
G02*
X13777600Y-8699500I-40000J0D01*
G01*
X13777600Y-8699500D02*
G75*
G02*
X13857600Y-8699500I40000J0D01*
G01*
X13857600Y-9461500D02*
G75*
G02*
X13777600Y-9461500I-40000J0D01*
G01*
X13777600Y-9461500D02*
G75*
G02*
X13857600Y-9461500I40000J0D01*
G01*
X13857600Y-9854200D02*
G75*
G02*
X13777600Y-9854200I-40000J0D01*
G01*
X13777600Y-9854200D02*
G75*
G02*
X13857600Y-9854200I40000J0D01*
G01*
X13857600Y-10616200D02*
G75*
G02*
X13777600Y-10616200I-40000J0D01*
G01*
X13777600Y-10616200D02*
G75*
G02*
X13857600Y-10616200I40000J0D01*
G01*
X14111600Y-8699500D02*
G75*
G02*
X14031600Y-8699500I-40000J0D01*
G01*
X14031600Y-8699500D02*
G75*
G02*
X14111600Y-8699500I40000J0D01*
G01*
X14111600Y-9461500D02*
G75*
G02*
X14031600Y-9461500I-40000J0D01*
G01*
X14031600Y-9461500D02*
G75*
G02*
X14111600Y-9461500I40000J0D01*
G01*
X14111600Y-9854200D02*
G75*
G02*
X14031600Y-9854200I-40000J0D01*
G01*
X14031600Y-9854200D02*
G75*
G02*
X14111600Y-9854200I40000J0D01*
G01*
X14111600Y-10616200D02*
G75*
G02*
X14031600Y-10616200I-40000J0D01*
G01*
X14031600Y-10616200D02*
G75*
G02*
X14111600Y-10616200I40000J0D01*
G01*
X14568800Y-8699500D02*
G75*
G02*
X14488800Y-8699500I-40000J0D01*
G01*
X14488800Y-8699500D02*
G75*
G02*
X14568800Y-8699500I40000J0D01*
G01*
X14568800Y-9461500D02*
G75*
G02*
X14488800Y-9461500I-40000J0D01*
G01*
X14488800Y-9461500D02*
G75*
G02*
X14568800Y-9461500I40000J0D01*
G01*
X14568800Y-9855200D02*
G75*
G02*
X14488800Y-9855200I-40000J0D01*
G01*
X14488800Y-9855200D02*
G75*
G02*
X14568800Y-9855200I40000J0D01*
G01*
X14568800Y-10617200D02*
G75*
G02*
X14488800Y-10617200I-40000J0D01*
G01*
X14488800Y-10617200D02*
G75*
G02*
X14568800Y-10617200I40000J0D01*
G01*
X14581500Y-8369300D02*
G75*
G02*
X14501500Y-8369300I-40000J0D01*
G01*
X14501500Y-8369300D02*
G75*
G02*
X14581500Y-8369300I40000J0D01*
G01*
X14822800Y-8699500D02*
G75*
G02*
X14742800Y-8699500I-40000J0D01*
G01*
X14742800Y-8699500D02*
G75*
G02*
X14822800Y-8699500I40000J0D01*
G01*
X14822800Y-9461500D02*
G75*
G02*
X14742800Y-9461500I-40000J0D01*
G01*
X14742800Y-9461500D02*
G75*
G02*
X14822800Y-9461500I40000J0D01*
G01*
X14822800Y-9855200D02*
G75*
G02*
X14742800Y-9855200I-40000J0D01*
G01*
X14742800Y-9855200D02*
G75*
G02*
X14822800Y-9855200I40000J0D01*
G01*
X14822800Y-10617200D02*
G75*
G02*
X14742800Y-10617200I-40000J0D01*
G01*
X14742800Y-10617200D02*
G75*
G02*
X14822800Y-10617200I40000J0D01*
G01*
X14835500Y-8369300D02*
G75*
G02*
X14755500Y-8369300I-40000J0D01*
G01*
X14755500Y-8369300D02*
G75*
G02*
X14835500Y-8369300I40000J0D01*
G01*
X15076800Y-8699500D02*
G75*
G02*
X14996800Y-8699500I-40000J0D01*
G01*
X14996800Y-8699500D02*
G75*
G02*
X15076800Y-8699500I40000J0D01*
G01*
X15076800Y-9461500D02*
G75*
G02*
X14996800Y-9461500I-40000J0D01*
G01*
X14996800Y-9461500D02*
G75*
G02*
X15076800Y-9461500I40000J0D01*
G01*
X15076800Y-9855200D02*
G75*
G02*
X14996800Y-9855200I-40000J0D01*
G01*
X14996800Y-9855200D02*
G75*
G02*
X15076800Y-9855200I40000J0D01*
G01*
X15076800Y-10617200D02*
G75*
G02*
X14996800Y-10617200I-40000J0D01*
G01*
X14996800Y-10617200D02*
G75*
G02*
X15076800Y-10617200I40000J0D01*
G01*
X15089500Y-8369300D02*
G75*
G02*
X15009500Y-8369300I-40000J0D01*
G01*
X15009500Y-8369300D02*
G75*
G02*
X15089500Y-8369300I40000J0D01*
G01*
X15330800Y-8699500D02*
G75*
G02*
X15250800Y-8699500I-40000J0D01*
G01*
X15250800Y-8699500D02*
G75*
G02*
X15330800Y-8699500I40000J0D01*
G01*
X15330800Y-9461500D02*
G75*
G02*
X15250800Y-9461500I-40000J0D01*
G01*
X15250800Y-9461500D02*
G75*
G02*
X15330800Y-9461500I40000J0D01*
G01*
X15330800Y-9855200D02*
G75*
G02*
X15250800Y-9855200I-40000J0D01*
G01*
X15250800Y-9855200D02*
G75*
G02*
X15330800Y-9855200I40000J0D01*
G01*
X15330800Y-10617200D02*
G75*
G02*
X15250800Y-10617200I-40000J0D01*
G01*
X15250800Y-10617200D02*
G75*
G02*
X15330800Y-10617200I40000J0D01*
G01*
X15343500Y-8369300D02*
G75*
G02*
X15263500Y-8369300I-40000J0D01*
G01*
X15263500Y-8369300D02*
G75*
G02*
X15343500Y-8369300I40000J0D01*
G01*
X15584800Y-8699500D02*
G75*
G02*
X15504800Y-8699500I-40000J0D01*
G01*
X15504800Y-8699500D02*
G75*
G02*
X15584800Y-8699500I40000J0D01*
G01*
X15584800Y-9461500D02*
G75*
G02*
X15504800Y-9461500I-40000J0D01*
G01*
X15504800Y-9461500D02*
G75*
G02*
X15584800Y-9461500I40000J0D01*
G01*
X15584800Y-9855200D02*
G75*
G02*
X15504800Y-9855200I-40000J0D01*
G01*
X15504800Y-9855200D02*
G75*
G02*
X15584800Y-9855200I40000J0D01*
G01*
X15584800Y-10617200D02*
G75*
G02*
X15504800Y-10617200I-40000J0D01*
G01*
X15504800Y-10617200D02*
G75*
G02*
X15584800Y-10617200I40000J0D01*
G01*
X15597500Y-8369300D02*
G75*
G02*
X15517500Y-8369300I-40000J0D01*
G01*
X15517500Y-8369300D02*
G75*
G02*
X15597500Y-8369300I40000J0D01*
G01*
X15838800Y-8699500D02*
G75*
G02*
X15758800Y-8699500I-40000J0D01*
G01*
X15758800Y-8699500D02*
G75*
G02*
X15838800Y-8699500I40000J0D01*
G01*
X15838800Y-9461500D02*
G75*
G02*
X15758800Y-9461500I-40000J0D01*
G01*
X15758800Y-9461500D02*
G75*
G02*
X15838800Y-9461500I40000J0D01*
G01*
X15838800Y-9855200D02*
G75*
G02*
X15758800Y-9855200I-40000J0D01*
G01*
X15758800Y-9855200D02*
G75*
G02*
X15838800Y-9855200I40000J0D01*
G01*
X15838800Y-10617200D02*
G75*
G02*
X15758800Y-10617200I-40000J0D01*
G01*
X15758800Y-10617200D02*
G75*
G02*
X15838800Y-10617200I40000J0D01*
G01*
X15851500Y-8369300D02*
G75*
G02*
X15771500Y-8369300I-40000J0D01*
G01*
X15771500Y-8369300D02*
G75*
G02*
X15851500Y-8369300I40000J0D01*
G01*
X16092800Y-8699500D02*
G75*
G02*
X16012800Y-8699500I-40000J0D01*
G01*
X16012800Y-8699500D02*
G75*
G02*
X16092800Y-8699500I40000J0D01*
G01*
X16092800Y-9461500D02*
G75*
G02*
X16012800Y-9461500I-40000J0D01*
G01*
X16012800Y-9461500D02*
G75*
G02*
X16092800Y-9461500I40000J0D01*
G01*
X16092800Y-9855200D02*
G75*
G02*
X16012800Y-9855200I-40000J0D01*
G01*
X16012800Y-9855200D02*
G75*
G02*
X16092800Y-9855200I40000J0D01*
G01*
X16092800Y-10617200D02*
G75*
G02*
X16012800Y-10617200I-40000J0D01*
G01*
X16012800Y-10617200D02*
G75*
G02*
X16092800Y-10617200I40000J0D01*
G01*
X16105500Y-8369300D02*
G75*
G02*
X16025500Y-8369300I-40000J0D01*
G01*
X16025500Y-8369300D02*
G75*
G02*
X16105500Y-8369300I40000J0D01*
G01*
X16346800Y-8699500D02*
G75*
G02*
X16266800Y-8699500I-40000J0D01*
G01*
X16266800Y-8699500D02*
G75*
G02*
X16346800Y-8699500I40000J0D01*
G01*
X16346800Y-9461500D02*
G75*
G02*
X16266800Y-9461500I-40000J0D01*
G01*
X16266800Y-9461500D02*
G75*
G02*
X16346800Y-9461500I40000J0D01*
G01*
X16346800Y-9855200D02*
G75*
G02*
X16266800Y-9855200I-40000J0D01*
G01*
X16266800Y-9855200D02*
G75*
G02*
X16346800Y-9855200I40000J0D01*
G01*
X16346800Y-10617200D02*
G75*
G02*
X16266800Y-10617200I-40000J0D01*
G01*
X16266800Y-10617200D02*
G75*
G02*
X16346800Y-10617200I40000J0D01*
G01*
X16359500Y-8369300D02*
G75*
G02*
X16279500Y-8369300I-40000J0D01*
G01*
X16279500Y-8369300D02*
G75*
G02*
X16359500Y-8369300I40000J0D01*
G01*
X16600800Y-8699500D02*
G75*
G02*
X16520800Y-8699500I-40000J0D01*
G01*
X16520800Y-8699500D02*
G75*
G02*
X16600800Y-8699500I40000J0D01*
G01*
X16600800Y-9461500D02*
G75*
G02*
X16520800Y-9461500I-40000J0D01*
G01*
X16520800Y-9461500D02*
G75*
G02*
X16600800Y-9461500I40000J0D01*
G01*
X16600800Y-9855200D02*
G75*
G02*
X16520800Y-9855200I-40000J0D01*
G01*
X16520800Y-9855200D02*
G75*
G02*
X16600800Y-9855200I40000J0D01*
G01*
X16600800Y-10617200D02*
G75*
G02*
X16520800Y-10617200I-40000J0D01*
G01*
X16520800Y-10617200D02*
G75*
G02*
X16600800Y-10617200I40000J0D01*
G01*
X16613500Y-8369300D02*
G75*
G02*
X16533500Y-8369300I-40000J0D01*
G01*
X16533500Y-8369300D02*
G75*
G02*
X16613500Y-8369300I40000J0D01*
G01*
X16854800Y-8699500D02*
G75*
G02*
X16774800Y-8699500I-40000J0D01*
G01*
X16774800Y-8699500D02*
G75*
G02*
X16854800Y-8699500I40000J0D01*
G01*
X16854800Y-9461500D02*
G75*
G02*
X16774800Y-9461500I-40000J0D01*
G01*
X16774800Y-9461500D02*
G75*
G02*
X16854800Y-9461500I40000J0D01*
G01*
X16854800Y-9855200D02*
G75*
G02*
X16774800Y-9855200I-40000J0D01*
G01*
X16774800Y-9855200D02*
G75*
G02*
X16854800Y-9855200I40000J0D01*
G01*
X16854800Y-10617200D02*
G75*
G02*
X16774800Y-10617200I-40000J0D01*
G01*
X16774800Y-10617200D02*
G75*
G02*
X16854800Y-10617200I40000J0D01*
G01*
X17337400Y-8699500D02*
G75*
G02*
X17257400Y-8699500I-40000J0D01*
G01*
X17257400Y-8699500D02*
G75*
G02*
X17337400Y-8699500I40000J0D01*
G01*
X17337400Y-9461500D02*
G75*
G02*
X17257400Y-9461500I-40000J0D01*
G01*
X17257400Y-9461500D02*
G75*
G02*
X17337400Y-9461500I40000J0D01*
G01*
X17337400Y-9855200D02*
G75*
G02*
X17257400Y-9855200I-40000J0D01*
G01*
X17257400Y-9855200D02*
G75*
G02*
X17337400Y-9855200I40000J0D01*
G01*
X17337400Y-10617200D02*
G75*
G02*
X17257400Y-10617200I-40000J0D01*
G01*
X17257400Y-10617200D02*
G75*
G02*
X17337400Y-10617200I40000J0D01*
G01*
X17350100Y-8369300D02*
G75*
G02*
X17270100Y-8369300I-40000J0D01*
G01*
X17270100Y-8369300D02*
G75*
G02*
X17350100Y-8369300I40000J0D01*
G01*
X17591400Y-8699500D02*
G75*
G02*
X17511400Y-8699500I-40000J0D01*
G01*
X17511400Y-8699500D02*
G75*
G02*
X17591400Y-8699500I40000J0D01*
G01*
X17591400Y-9461500D02*
G75*
G02*
X17511400Y-9461500I-40000J0D01*
G01*
X17511400Y-9461500D02*
G75*
G02*
X17591400Y-9461500I40000J0D01*
G01*
X17591400Y-9855200D02*
G75*
G02*
X17511400Y-9855200I-40000J0D01*
G01*
X17511400Y-9855200D02*
G75*
G02*
X17591400Y-9855200I40000J0D01*
G01*
X17591400Y-10617200D02*
G75*
G02*
X17511400Y-10617200I-40000J0D01*
G01*
X17511400Y-10617200D02*
G75*
G02*
X17591400Y-10617200I40000J0D01*
G01*
X17604100Y-8369300D02*
G75*
G02*
X17524100Y-8369300I-40000J0D01*
G01*
X17524100Y-8369300D02*
G75*
G02*
X17604100Y-8369300I40000J0D01*
G01*
X17845400Y-8699500D02*
G75*
G02*
X17765400Y-8699500I-40000J0D01*
G01*
X17765400Y-8699500D02*
G75*
G02*
X17845400Y-8699500I40000J0D01*
G01*
X17845400Y-9461500D02*
G75*
G02*
X17765400Y-9461500I-40000J0D01*
G01*
X17765400Y-9461500D02*
G75*
G02*
X17845400Y-9461500I40000J0D01*
G01*
X17845400Y-9855200D02*
G75*
G02*
X17765400Y-9855200I-40000J0D01*
G01*
X17765400Y-9855200D02*
G75*
G02*
X17845400Y-9855200I40000J0D01*
G01*
X17845400Y-10617200D02*
G75*
G02*
X17765400Y-10617200I-40000J0D01*
G01*
X17765400Y-10617200D02*
G75*
G02*
X17845400Y-10617200I40000J0D01*
G01*
X17858100Y-8369300D02*
G75*
G02*
X17778100Y-8369300I-40000J0D01*
G01*
X17778100Y-8369300D02*
G75*
G02*
X17858100Y-8369300I40000J0D01*
G01*
X18099400Y-8699500D02*
G75*
G02*
X18019400Y-8699500I-40000J0D01*
G01*
X18019400Y-8699500D02*
G75*
G02*
X18099400Y-8699500I40000J0D01*
G01*
X18099400Y-9461500D02*
G75*
G02*
X18019400Y-9461500I-40000J0D01*
G01*
X18019400Y-9461500D02*
G75*
G02*
X18099400Y-9461500I40000J0D01*
G01*
X18099400Y-9855200D02*
G75*
G02*
X18019400Y-9855200I-40000J0D01*
G01*
X18019400Y-9855200D02*
G75*
G02*
X18099400Y-9855200I40000J0D01*
G01*
X18099400Y-10617200D02*
G75*
G02*
X18019400Y-10617200I-40000J0D01*
G01*
X18019400Y-10617200D02*
G75*
G02*
X18099400Y-10617200I40000J0D01*
G01*
X18112100Y-8369300D02*
G75*
G02*
X18032100Y-8369300I-40000J0D01*
G01*
X18032100Y-8369300D02*
G75*
G02*
X18112100Y-8369300I40000J0D01*
G01*
X18353400Y-8699500D02*
G75*
G02*
X18273400Y-8699500I-40000J0D01*
G01*
X18273400Y-8699500D02*
G75*
G02*
X18353400Y-8699500I40000J0D01*
G01*
X18353400Y-9461500D02*
G75*
G02*
X18273400Y-9461500I-40000J0D01*
G01*
X18273400Y-9461500D02*
G75*
G02*
X18353400Y-9461500I40000J0D01*
G01*
X18353400Y-9855200D02*
G75*
G02*
X18273400Y-9855200I-40000J0D01*
G01*
X18273400Y-9855200D02*
G75*
G02*
X18353400Y-9855200I40000J0D01*
G01*
X18353400Y-10617200D02*
G75*
G02*
X18273400Y-10617200I-40000J0D01*
G01*
X18273400Y-10617200D02*
G75*
G02*
X18353400Y-10617200I40000J0D01*
G01*
X18366100Y-8369300D02*
G75*
G02*
X18286100Y-8369300I-40000J0D01*
G01*
X18286100Y-8369300D02*
G75*
G02*
X18366100Y-8369300I40000J0D01*
G01*
X18607400Y-8699500D02*
G75*
G02*
X18527400Y-8699500I-40000J0D01*
G01*
X18527400Y-8699500D02*
G75*
G02*
X18607400Y-8699500I40000J0D01*
G01*
X18607400Y-9461500D02*
G75*
G02*
X18527400Y-9461500I-40000J0D01*
G01*
X18527400Y-9461500D02*
G75*
G02*
X18607400Y-9461500I40000J0D01*
G01*
X18607400Y-9855200D02*
G75*
G02*
X18527400Y-9855200I-40000J0D01*
G01*
X18527400Y-9855200D02*
G75*
G02*
X18607400Y-9855200I40000J0D01*
G01*
X18607400Y-10617200D02*
G75*
G02*
X18527400Y-10617200I-40000J0D01*
G01*
X18527400Y-10617200D02*
G75*
G02*
X18607400Y-10617200I40000J0D01*
G01*
X18620100Y-8369300D02*
G75*
G02*
X18540100Y-8369300I-40000J0D01*
G01*
X18540100Y-8369300D02*
G75*
G02*
X18620100Y-8369300I40000J0D01*
G01*
X18861400Y-8699500D02*
G75*
G02*
X18781400Y-8699500I-40000J0D01*
G01*
X18781400Y-8699500D02*
G75*
G02*
X18861400Y-8699500I40000J0D01*
G01*
X18861400Y-9461500D02*
G75*
G02*
X18781400Y-9461500I-40000J0D01*
G01*
X18781400Y-9461500D02*
G75*
G02*
X18861400Y-9461500I40000J0D01*
G01*
X18861400Y-9855200D02*
G75*
G02*
X18781400Y-9855200I-40000J0D01*
G01*
X18781400Y-9855200D02*
G75*
G02*
X18861400Y-9855200I40000J0D01*
G01*
X18861400Y-10617200D02*
G75*
G02*
X18781400Y-10617200I-40000J0D01*
G01*
X18781400Y-10617200D02*
G75*
G02*
X18861400Y-10617200I40000J0D01*
G01*
X18874100Y-8369300D02*
G75*
G02*
X18794100Y-8369300I-40000J0D01*
G01*
X18794100Y-8369300D02*
G75*
G02*
X18874100Y-8369300I40000J0D01*
G01*
X19115400Y-8699500D02*
G75*
G02*
X19035400Y-8699500I-40000J0D01*
G01*
X19035400Y-8699500D02*
G75*
G02*
X19115400Y-8699500I40000J0D01*
G01*
X19115400Y-9461500D02*
G75*
G02*
X19035400Y-9461500I-40000J0D01*
G01*
X19035400Y-9461500D02*
G75*
G02*
X19115400Y-9461500I40000J0D01*
G01*
X19115400Y-9855200D02*
G75*
G02*
X19035400Y-9855200I-40000J0D01*
G01*
X19035400Y-9855200D02*
G75*
G02*
X19115400Y-9855200I40000J0D01*
G01*
X19115400Y-10617200D02*
G75*
G02*
X19035400Y-10617200I-40000J0D01*
G01*
X19035400Y-10617200D02*
G75*
G02*
X19115400Y-10617200I40000J0D01*
G01*
X19128100Y-8369300D02*
G75*
G02*
X19048100Y-8369300I-40000J0D01*
G01*
X19048100Y-8369300D02*
G75*
G02*
X19128100Y-8369300I40000J0D01*
G01*
X19369400Y-8699500D02*
G75*
G02*
X19289400Y-8699500I-40000J0D01*
G01*
X19289400Y-8699500D02*
G75*
G02*
X19369400Y-8699500I40000J0D01*
G01*
X19369400Y-9461500D02*
G75*
G02*
X19289400Y-9461500I-40000J0D01*
G01*
X19289400Y-9461500D02*
G75*
G02*
X19369400Y-9461500I40000J0D01*
G01*
X19369400Y-9855200D02*
G75*
G02*
X19289400Y-9855200I-40000J0D01*
G01*
X19289400Y-9855200D02*
G75*
G02*
X19369400Y-9855200I40000J0D01*
G01*
X19369400Y-10617200D02*
G75*
G02*
X19289400Y-10617200I-40000J0D01*
G01*
X19289400Y-10617200D02*
G75*
G02*
X19369400Y-10617200I40000J0D01*
G01*
X19382100Y-8369300D02*
G75*
G02*
X19302100Y-8369300I-40000J0D01*
G01*
X19302100Y-8369300D02*
G75*
G02*
X19382100Y-8369300I40000J0D01*
G01*
X19623400Y-8699500D02*
G75*
G02*
X19543400Y-8699500I-40000J0D01*
G01*
X19543400Y-8699500D02*
G75*
G02*
X19623400Y-8699500I40000J0D01*
G01*
X19623400Y-9461500D02*
G75*
G02*
X19543400Y-9461500I-40000J0D01*
G01*
X19543400Y-9461500D02*
G75*
G02*
X19623400Y-9461500I40000J0D01*
G01*
X19623400Y-9855200D02*
G75*
G02*
X19543400Y-9855200I-40000J0D01*
G01*
X19543400Y-9855200D02*
G75*
G02*
X19623400Y-9855200I40000J0D01*
G01*
X19623400Y-10617200D02*
G75*
G02*
X19543400Y-10617200I-40000J0D01*
G01*
X19543400Y-10617200D02*
G75*
G02*
X19623400Y-10617200I40000J0D01*
G01*
X11836400Y-8904000D02*
X11836400Y-9004000D01*
X11786400Y-8954000D02*
X11886400Y-8954000D01*
X11836400Y-9158000D02*
X11836400Y-9258000D01*
X11786400Y-9208000D02*
X11886400Y-9208000D01*
X11912600Y-7455700D02*
X11912600Y-7555700D01*
X11862600Y-7505700D02*
X11962600Y-7505700D01*
X11912600Y-7963700D02*
X11912600Y-8063700D01*
X11862600Y-8013700D02*
X11962600Y-8013700D01*
X11912600Y-10935500D02*
X11912600Y-11035500D01*
X11862600Y-10985500D02*
X11962600Y-10985500D01*
X11912600Y-11443500D02*
X11912600Y-11543500D01*
X11862600Y-11493500D02*
X11962600Y-11493500D01*
X12166600Y-7455700D02*
X12166600Y-7555700D01*
X12116600Y-7505700D02*
X12216600Y-7505700D01*
X12166600Y-7963700D02*
X12166600Y-8063700D01*
X12116600Y-8013700D02*
X12216600Y-8013700D01*
X12166600Y-10935500D02*
X12166600Y-11035500D01*
X12116600Y-10985500D02*
X12216600Y-10985500D01*
X12166600Y-11443500D02*
X12166600Y-11543500D01*
X12116600Y-11493500D02*
X12216600Y-11493500D01*
X12420600Y-7455700D02*
X12420600Y-7555700D01*
X12370600Y-7505700D02*
X12470600Y-7505700D01*
X12420600Y-7963700D02*
X12420600Y-8063700D01*
X12370600Y-8013700D02*
X12470600Y-8013700D01*
X12420600Y-10935500D02*
X12420600Y-11035500D01*
X12370600Y-10985500D02*
X12470600Y-10985500D01*
X12420600Y-11443500D02*
X12420600Y-11543500D01*
X12370600Y-11493500D02*
X12470600Y-11493500D01*
X12674600Y-7455700D02*
X12674600Y-7555700D01*
X12624600Y-7505700D02*
X12724600Y-7505700D01*
X12674600Y-7963700D02*
X12674600Y-8063700D01*
X12624600Y-8013700D02*
X12724600Y-8013700D01*
X12674600Y-10935500D02*
X12674600Y-11035500D01*
X12624600Y-10985500D02*
X12724600Y-10985500D01*
X12674600Y-11443500D02*
X12674600Y-11543500D01*
X12624600Y-11493500D02*
X12724600Y-11493500D01*
X12928600Y-7455700D02*
X12928600Y-7555700D01*
X12878600Y-7505700D02*
X12978600Y-7505700D01*
X12928600Y-7963700D02*
X12928600Y-8063700D01*
X12878600Y-8013700D02*
X12978600Y-8013700D01*
X12928600Y-10935500D02*
X12928600Y-11035500D01*
X12878600Y-10985500D02*
X12978600Y-10985500D01*
X12928600Y-11443500D02*
X12928600Y-11543500D01*
X12878600Y-11493500D02*
X12978600Y-11493500D01*
X13182600Y-7455700D02*
X13182600Y-7555700D01*
X13132600Y-7505700D02*
X13232600Y-7505700D01*
X13182600Y-7963700D02*
X13182600Y-8063700D01*
X13132600Y-8013700D02*
X13232600Y-8013700D01*
X13182600Y-10935500D02*
X13182600Y-11035500D01*
X13132600Y-10985500D02*
X13232600Y-10985500D01*
X13182600Y-11443500D02*
X13182600Y-11543500D01*
X13132600Y-11493500D02*
X13232600Y-11493500D01*
X13436600Y-7455700D02*
X13436600Y-7555700D01*
X13386600Y-7505700D02*
X13486600Y-7505700D01*
X13436600Y-7963700D02*
X13436600Y-8063700D01*
X13386600Y-8013700D02*
X13486600Y-8013700D01*
X13436600Y-10935500D02*
X13436600Y-11035500D01*
X13386600Y-10985500D02*
X13486600Y-10985500D01*
X13436600Y-11443500D02*
X13436600Y-11543500D01*
X13386600Y-11493500D02*
X13486600Y-11493500D01*
X13690600Y-7455700D02*
X13690600Y-7555700D01*
X13640600Y-7505700D02*
X13740600Y-7505700D01*
X13690600Y-7963700D02*
X13690600Y-8063700D01*
X13640600Y-8013700D02*
X13740600Y-8013700D01*
X13690600Y-10935500D02*
X13690600Y-11035500D01*
X13640600Y-10985500D02*
X13740600Y-10985500D01*
X13690600Y-11443500D02*
X13690600Y-11543500D01*
X13640600Y-11493500D02*
X13740600Y-11493500D01*
X13944600Y-7455700D02*
X13944600Y-7555700D01*
X13894600Y-7505700D02*
X13994600Y-7505700D01*
X13944600Y-7963700D02*
X13944600Y-8063700D01*
X13894600Y-8013700D02*
X13994600Y-8013700D01*
X13944600Y-10935500D02*
X13944600Y-11035500D01*
X13894600Y-10985500D02*
X13994600Y-10985500D01*
X13944600Y-11443500D02*
X13944600Y-11543500D01*
X13894600Y-11493500D02*
X13994600Y-11493500D01*
X14198600Y-7455700D02*
X14198600Y-7555700D01*
X14148600Y-7505700D02*
X14248600Y-7505700D01*
X14198600Y-7963700D02*
X14198600Y-8063700D01*
X14148600Y-8013700D02*
X14248600Y-8013700D01*
X14198600Y-10935500D02*
X14198600Y-11035500D01*
X14148600Y-10985500D02*
X14248600Y-10985500D01*
X14198600Y-11443500D02*
X14198600Y-11543500D01*
X14148600Y-11493500D02*
X14248600Y-11493500D01*
X14452600Y-7455700D02*
X14452600Y-7555700D01*
X14402600Y-7505700D02*
X14502600Y-7505700D01*
X14452600Y-7963700D02*
X14452600Y-8063700D01*
X14402600Y-8013700D02*
X14502600Y-8013700D01*
X14452600Y-10935500D02*
X14452600Y-11035500D01*
X14402600Y-10985500D02*
X14502600Y-10985500D01*
X14452600Y-11443500D02*
X14452600Y-11543500D01*
X14402600Y-11493500D02*
X14502600Y-11493500D01*
X14706600Y-7455700D02*
X14706600Y-7555700D01*
X14656600Y-7505700D02*
X14756600Y-7505700D01*
X14706600Y-7963700D02*
X14706600Y-8063700D01*
X14656600Y-8013700D02*
X14756600Y-8013700D01*
X14706600Y-10935500D02*
X14706600Y-11035500D01*
X14656600Y-10985500D02*
X14756600Y-10985500D01*
X14706600Y-11443500D02*
X14706600Y-11543500D01*
X14656600Y-11493500D02*
X14756600Y-11493500D01*
X14960600Y-7455700D02*
X14960600Y-7555700D01*
X14910600Y-7505700D02*
X15010600Y-7505700D01*
X14960600Y-7963700D02*
X14960600Y-8063700D01*
X14910600Y-8013700D02*
X15010600Y-8013700D01*
X14960600Y-10935500D02*
X14960600Y-11035500D01*
X14910600Y-10985500D02*
X15010600Y-10985500D01*
X14960600Y-11443500D02*
X14960600Y-11543500D01*
X14910600Y-11493500D02*
X15010600Y-11493500D01*
X15214600Y-7455700D02*
X15214600Y-7555700D01*
X15164600Y-7505700D02*
X15264600Y-7505700D01*
X15214600Y-7963700D02*
X15214600Y-8063700D01*
X15164600Y-8013700D02*
X15264600Y-8013700D01*
X15214600Y-10935500D02*
X15214600Y-11035500D01*
X15164600Y-10985500D02*
X15264600Y-10985500D01*
X15214600Y-11443500D02*
X15214600Y-11543500D01*
X15164600Y-11493500D02*
X15264600Y-11493500D01*
X15468600Y-7455700D02*
X15468600Y-7555700D01*
X15418600Y-7505700D02*
X15518600Y-7505700D01*
X15468600Y-7963700D02*
X15468600Y-8063700D01*
X15418600Y-8013700D02*
X15518600Y-8013700D01*
X15468600Y-10935500D02*
X15468600Y-11035500D01*
X15418600Y-10985500D02*
X15518600Y-10985500D01*
X15468600Y-11443500D02*
X15468600Y-11543500D01*
X15418600Y-11493500D02*
X15518600Y-11493500D01*
X15722600Y-7455700D02*
X15722600Y-7555700D01*
X15672600Y-7505700D02*
X15772600Y-7505700D01*
X15722600Y-7963700D02*
X15722600Y-8063700D01*
X15672600Y-8013700D02*
X15772600Y-8013700D01*
X15722600Y-10935500D02*
X15722600Y-11035500D01*
X15672600Y-10985500D02*
X15772600Y-10985500D01*
X15722600Y-11443500D02*
X15722600Y-11543500D01*
X15672600Y-11493500D02*
X15772600Y-11493500D01*
X15976600Y-7455700D02*
X15976600Y-7555700D01*
X15926600Y-7505700D02*
X16026600Y-7505700D01*
X15976600Y-7963700D02*
X15976600Y-8063700D01*
X15926600Y-8013700D02*
X16026600Y-8013700D01*
X15976600Y-10935500D02*
X15976600Y-11035500D01*
X15926600Y-10985500D02*
X16026600Y-10985500D01*
X15976600Y-11443500D02*
X15976600Y-11543500D01*
X15926600Y-11493500D02*
X16026600Y-11493500D01*
X16230600Y-7455700D02*
X16230600Y-7555700D01*
X16180600Y-7505700D02*
X16280600Y-7505700D01*
X16230600Y-7963700D02*
X16230600Y-8063700D01*
X16180600Y-8013700D02*
X16280600Y-8013700D01*
X16230600Y-10935500D02*
X16230600Y-11035500D01*
X16180600Y-10985500D02*
X16280600Y-10985500D01*
X16230600Y-11443500D02*
X16230600Y-11543500D01*
X16180600Y-11493500D02*
X16280600Y-11493500D01*
X16484600Y-7455700D02*
X16484600Y-7555700D01*
X16434600Y-7505700D02*
X16534600Y-7505700D01*
X16484600Y-7963700D02*
X16484600Y-8063700D01*
X16434600Y-8013700D02*
X16534600Y-8013700D01*
X16484600Y-10935500D02*
X16484600Y-11035500D01*
X16434600Y-10985500D02*
X16534600Y-10985500D01*
X16484600Y-11443500D02*
X16484600Y-11543500D01*
X16434600Y-11493500D02*
X16534600Y-11493500D01*
X16738600Y-7455700D02*
X16738600Y-7555700D01*
X16688600Y-7505700D02*
X16788600Y-7505700D01*
X16738600Y-7963700D02*
X16738600Y-8063700D01*
X16688600Y-8013700D02*
X16788600Y-8013700D01*
X16738600Y-10935500D02*
X16738600Y-11035500D01*
X16688600Y-10985500D02*
X16788600Y-10985500D01*
X16738600Y-11443500D02*
X16738600Y-11543500D01*
X16688600Y-11493500D02*
X16788600Y-11493500D01*
X16992600Y-7455700D02*
X16992600Y-7555700D01*
X16942600Y-7505700D02*
X17042600Y-7505700D01*
X16992600Y-7963700D02*
X16992600Y-8063700D01*
X16942600Y-8013700D02*
X17042600Y-8013700D01*
X16992600Y-10935500D02*
X16992600Y-11035500D01*
X16942600Y-10985500D02*
X17042600Y-10985500D01*
X16992600Y-11443500D02*
X16992600Y-11543500D01*
X16942600Y-11493500D02*
X17042600Y-11493500D01*
X17246600Y-7455700D02*
X17246600Y-7555700D01*
X17196600Y-7505700D02*
X17296600Y-7505700D01*
X17246600Y-7963700D02*
X17246600Y-8063700D01*
X17196600Y-8013700D02*
X17296600Y-8013700D01*
X17246600Y-10935500D02*
X17246600Y-11035500D01*
X17196600Y-10985500D02*
X17296600Y-10985500D01*
X17246600Y-11443500D02*
X17246600Y-11543500D01*
X17196600Y-11493500D02*
X17296600Y-11493500D01*
X17500600Y-7455700D02*
X17500600Y-7555700D01*
X17450600Y-7505700D02*
X17550600Y-7505700D01*
X17500600Y-7963700D02*
X17500600Y-8063700D01*
X17450600Y-8013700D02*
X17550600Y-8013700D01*
X17500600Y-10935500D02*
X17500600Y-11035500D01*
X17450600Y-10985500D02*
X17550600Y-10985500D01*
X17500600Y-11443500D02*
X17500600Y-11543500D01*
X17450600Y-11493500D02*
X17550600Y-11493500D01*
X17754600Y-7455700D02*
X17754600Y-7555700D01*
X17704600Y-7505700D02*
X17804600Y-7505700D01*
X17754600Y-7963700D02*
X17754600Y-8063700D01*
X17704600Y-8013700D02*
X17804600Y-8013700D01*
X17754600Y-10935500D02*
X17754600Y-11035500D01*
X17704600Y-10985500D02*
X17804600Y-10985500D01*
X17754600Y-11443500D02*
X17754600Y-11543500D01*
X17704600Y-11493500D02*
X17804600Y-11493500D01*
X18008600Y-7455700D02*
X18008600Y-7555700D01*
X17958600Y-7505700D02*
X18058600Y-7505700D01*
X18008600Y-7963700D02*
X18008600Y-8063700D01*
X17958600Y-8013700D02*
X18058600Y-8013700D01*
X18008600Y-10935500D02*
X18008600Y-11035500D01*
X17958600Y-10985500D02*
X18058600Y-10985500D01*
X18008600Y-11443500D02*
X18008600Y-11543500D01*
X17958600Y-11493500D02*
X18058600Y-11493500D01*
X18262600Y-7455700D02*
X18262600Y-7555700D01*
X18212600Y-7505700D02*
X18312600Y-7505700D01*
X18262600Y-7963700D02*
X18262600Y-8063700D01*
X18212600Y-8013700D02*
X18312600Y-8013700D01*
X18262600Y-10935500D02*
X18262600Y-11035500D01*
X18212600Y-10985500D02*
X18312600Y-10985500D01*
X18262600Y-11443500D02*
X18262600Y-11543500D01*
X18212600Y-11493500D02*
X18312600Y-11493500D01*
X18516600Y-7455700D02*
X18516600Y-7555700D01*
X18466600Y-7505700D02*
X18566600Y-7505700D01*
X18516600Y-7963700D02*
X18516600Y-8063700D01*
X18466600Y-8013700D02*
X18566600Y-8013700D01*
X18516600Y-10935500D02*
X18516600Y-11035500D01*
X18466600Y-10985500D02*
X18566600Y-10985500D01*
X18516600Y-11443500D02*
X18516600Y-11543500D01*
X18466600Y-11493500D02*
X18566600Y-11493500D01*
X18770600Y-7455700D02*
X18770600Y-7555700D01*
X18720600Y-7505700D02*
X18820600Y-7505700D01*
X18770600Y-7963700D02*
X18770600Y-8063700D01*
X18720600Y-8013700D02*
X18820600Y-8013700D01*
X18770600Y-10935500D02*
X18770600Y-11035500D01*
X18720600Y-10985500D02*
X18820600Y-10985500D01*
X18770600Y-11443500D02*
X18770600Y-11543500D01*
X18720600Y-11493500D02*
X18820600Y-11493500D01*
X19024600Y-7455700D02*
X19024600Y-7555700D01*
X18974600Y-7505700D02*
X19074600Y-7505700D01*
X19024600Y-7963700D02*
X19024600Y-8063700D01*
X18974600Y-8013700D02*
X19074600Y-8013700D01*
X19024600Y-10935500D02*
X19024600Y-11035500D01*
X18974600Y-10985500D02*
X19074600Y-10985500D01*
X19024600Y-11443500D02*
X19024600Y-11543500D01*
X18974600Y-11493500D02*
X19074600Y-11493500D01*
X19278600Y-7455700D02*
X19278600Y-7555700D01*
X19228600Y-7505700D02*
X19328600Y-7505700D01*
X19278600Y-7963700D02*
X19278600Y-8063700D01*
X19228600Y-8013700D02*
X19328600Y-8013700D01*
X19278600Y-10935500D02*
X19278600Y-11035500D01*
X19228600Y-10985500D02*
X19328600Y-10985500D01*
X19278600Y-11443500D02*
X19278600Y-11543500D01*
X19228600Y-11493500D02*
X19328600Y-11493500D01*
D11*
X10964077Y-12025884D02*
X10964077Y-11825884D01*
X10964077Y-11825884D02*
X11011696Y-11825884D01*
X11011696Y-11825884D02*
X11040267Y-11835408D01*
X11040267Y-11835408D02*
X11059315Y-11854455D01*
X11059315Y-11854455D02*
X11068839Y-11873503D01*
X11068839Y-11873503D02*
X11078363Y-11911598D01*
X11078363Y-11911598D02*
X11078363Y-11940169D01*
X11078363Y-11940169D02*
X11068839Y-11978265D01*
X11068839Y-11978265D02*
X11059315Y-11997312D01*
X11059315Y-11997312D02*
X11040267Y-12016360D01*
X11040267Y-12016360D02*
X11011696Y-12025884D01*
X11011696Y-12025884D02*
X10964077Y-12025884D01*
X11164077Y-12025884D02*
X11164077Y-11892550D01*
X11164077Y-11930646D02*
X11173601Y-11911598D01*
X11173601Y-11911598D02*
X11183124Y-11902074D01*
X11183124Y-11902074D02*
X11202172Y-11892550D01*
X11202172Y-11892550D02*
X11221220Y-11892550D01*
X11287886Y-12025884D02*
X11287886Y-11892550D01*
X11287886Y-11825884D02*
X11278362Y-11835408D01*
X11278362Y-11835408D02*
X11287886Y-11844931D01*
X11287886Y-11844931D02*
X11297410Y-11835408D01*
X11297410Y-11835408D02*
X11287886Y-11825884D01*
X11287886Y-11825884D02*
X11287886Y-11844931D01*
X11411696Y-12025884D02*
X11392648Y-12016360D01*
X11392648Y-12016360D02*
X11383124Y-11997312D01*
X11383124Y-11997312D02*
X11383124Y-11825884D01*
X11516458Y-12025884D02*
X11497410Y-12016360D01*
X11497410Y-12016360D02*
X11487886Y-11997312D01*
X11487886Y-11997312D02*
X11487886Y-11825884D01*
X11745029Y-12025884D02*
X11745029Y-11825884D01*
X11745029Y-11825884D02*
X11811696Y-11968741D01*
X11811696Y-11968741D02*
X11878362Y-11825884D01*
X11878362Y-11825884D02*
X11878362Y-12025884D01*
X12059315Y-12025884D02*
X12059315Y-11921122D01*
X12059315Y-11921122D02*
X12049791Y-11902074D01*
X12049791Y-11902074D02*
X12030743Y-11892550D01*
X12030743Y-11892550D02*
X11992648Y-11892550D01*
X11992648Y-11892550D02*
X11973601Y-11902074D01*
X12059315Y-12016360D02*
X12040267Y-12025884D01*
X12040267Y-12025884D02*
X11992648Y-12025884D01*
X11992648Y-12025884D02*
X11973601Y-12016360D01*
X11973601Y-12016360D02*
X11964077Y-11997312D01*
X11964077Y-11997312D02*
X11964077Y-11978265D01*
X11964077Y-11978265D02*
X11973601Y-11959217D01*
X11973601Y-11959217D02*
X11992648Y-11949693D01*
X11992648Y-11949693D02*
X12040267Y-11949693D01*
X12040267Y-11949693D02*
X12059315Y-11940169D01*
X12154553Y-11892550D02*
X12154553Y-12092550D01*
X12154553Y-11902074D02*
X12173601Y-11892550D01*
X12173601Y-11892550D02*
X12211696Y-11892550D01*
X12211696Y-11892550D02*
X12230743Y-11902074D01*
X12230743Y-11902074D02*
X12240267Y-11911598D01*
X12240267Y-11911598D02*
X12249791Y-11930646D01*
X12249791Y-11930646D02*
X12249791Y-11987788D01*
X12249791Y-11987788D02*
X12240267Y-12006836D01*
X12240267Y-12006836D02*
X12230743Y-12016360D01*
X12230743Y-12016360D02*
X12211696Y-12025884D01*
X12211696Y-12025884D02*
X12173601Y-12025884D01*
X12173601Y-12025884D02*
X12154553Y-12016360D01*
X12335505Y-12006836D02*
X12345029Y-12016360D01*
X12345029Y-12016360D02*
X12335505Y-12025884D01*
X12335505Y-12025884D02*
X12325982Y-12016360D01*
X12325982Y-12016360D02*
X12335505Y-12006836D01*
X12335505Y-12006836D02*
X12335505Y-12025884D01*
X12335505Y-11902074D02*
X12345029Y-11911598D01*
X12345029Y-11911598D02*
X12335505Y-11921122D01*
X12335505Y-11921122D02*
X12325982Y-11911598D01*
X12325982Y-11911598D02*
X12335505Y-11902074D01*
X12335505Y-11902074D02*
X12335505Y-11921122D01*
D10*
X10673300Y-12339400D02*
X10703300Y-12369400D01*
X10703300Y-12339400D02*
X10673300Y-12369400D01*
D11*
X11002172Y-12245884D02*
X11021220Y-12245884D01*
X11021220Y-12245884D02*
X11040267Y-12255408D01*
X11040267Y-12255408D02*
X11049791Y-12264931D01*
X11049791Y-12264931D02*
X11059315Y-12283979D01*
X11059315Y-12283979D02*
X11068839Y-12322074D01*
X11068839Y-12322074D02*
X11068839Y-12369693D01*
X11068839Y-12369693D02*
X11059315Y-12407788D01*
X11059315Y-12407788D02*
X11049791Y-12426836D01*
X11049791Y-12426836D02*
X11040267Y-12436360D01*
X11040267Y-12436360D02*
X11021220Y-12445884D01*
X11021220Y-12445884D02*
X11002172Y-12445884D01*
X11002172Y-12445884D02*
X10983124Y-12436360D01*
X10983124Y-12436360D02*
X10973601Y-12426836D01*
X10973601Y-12426836D02*
X10964077Y-12407788D01*
X10964077Y-12407788D02*
X10954553Y-12369693D01*
X10954553Y-12369693D02*
X10954553Y-12322074D01*
X10954553Y-12322074D02*
X10964077Y-12283979D01*
X10964077Y-12283979D02*
X10973601Y-12264931D01*
X10973601Y-12264931D02*
X10983124Y-12255408D01*
X10983124Y-12255408D02*
X11002172Y-12245884D01*
X11154553Y-12426836D02*
X11164077Y-12436360D01*
X11164077Y-12436360D02*
X11154553Y-12445884D01*
X11154553Y-12445884D02*
X11145029Y-12436360D01*
X11145029Y-12436360D02*
X11154553Y-12426836D01*
X11154553Y-12426836D02*
X11154553Y-12445884D01*
X11230743Y-12245884D02*
X11354553Y-12245884D01*
X11354553Y-12245884D02*
X11287886Y-12322074D01*
X11287886Y-12322074D02*
X11316458Y-12322074D01*
X11316458Y-12322074D02*
X11335505Y-12331598D01*
X11335505Y-12331598D02*
X11345029Y-12341122D01*
X11345029Y-12341122D02*
X11354553Y-12360169D01*
X11354553Y-12360169D02*
X11354553Y-12407788D01*
X11354553Y-12407788D02*
X11345029Y-12426836D01*
X11345029Y-12426836D02*
X11335505Y-12436360D01*
X11335505Y-12436360D02*
X11316458Y-12445884D01*
X11316458Y-12445884D02*
X11259315Y-12445884D01*
X11259315Y-12445884D02*
X11240267Y-12436360D01*
X11240267Y-12436360D02*
X11230743Y-12426836D01*
X11478362Y-12245884D02*
X11497410Y-12245884D01*
X11497410Y-12245884D02*
X11516458Y-12255408D01*
X11516458Y-12255408D02*
X11525982Y-12264931D01*
X11525982Y-12264931D02*
X11535505Y-12283979D01*
X11535505Y-12283979D02*
X11545029Y-12322074D01*
X11545029Y-12322074D02*
X11545029Y-12369693D01*
X11545029Y-12369693D02*
X11535505Y-12407788D01*
X11535505Y-12407788D02*
X11525982Y-12426836D01*
X11525982Y-12426836D02*
X11516458Y-12436360D01*
X11516458Y-12436360D02*
X11497410Y-12445884D01*
X11497410Y-12445884D02*
X11478362Y-12445884D01*
X11478362Y-12445884D02*
X11459315Y-12436360D01*
X11459315Y-12436360D02*
X11449791Y-12426836D01*
X11449791Y-12426836D02*
X11440267Y-12407788D01*
X11440267Y-12407788D02*
X11430743Y-12369693D01*
X11430743Y-12369693D02*
X11430743Y-12322074D01*
X11430743Y-12322074D02*
X11440267Y-12283979D01*
X11440267Y-12283979D02*
X11449791Y-12264931D01*
X11449791Y-12264931D02*
X11459315Y-12255408D01*
X11459315Y-12255408D02*
X11478362Y-12245884D01*
X11668839Y-12245884D02*
X11687886Y-12245884D01*
X11687886Y-12245884D02*
X11706934Y-12255408D01*
X11706934Y-12255408D02*
X11716458Y-12264931D01*
X11716458Y-12264931D02*
X11725982Y-12283979D01*
X11725982Y-12283979D02*
X11735505Y-12322074D01*
X11735505Y-12322074D02*
X11735505Y-12369693D01*
X11735505Y-12369693D02*
X11725982Y-12407788D01*
X11725982Y-12407788D02*
X11716458Y-12426836D01*
X11716458Y-12426836D02*
X11706934Y-12436360D01*
X11706934Y-12436360D02*
X11687886Y-12445884D01*
X11687886Y-12445884D02*
X11668839Y-12445884D01*
X11668839Y-12445884D02*
X11649791Y-12436360D01*
X11649791Y-12436360D02*
X11640267Y-12426836D01*
X11640267Y-12426836D02*
X11630743Y-12407788D01*
X11630743Y-12407788D02*
X11621220Y-12369693D01*
X11621220Y-12369693D02*
X11621220Y-12322074D01*
X11621220Y-12322074D02*
X11630743Y-12283979D01*
X11630743Y-12283979D02*
X11640267Y-12264931D01*
X11640267Y-12264931D02*
X11649791Y-12255408D01*
X11649791Y-12255408D02*
X11668839Y-12245884D01*
X11821220Y-12445884D02*
X11821220Y-12312550D01*
X11821220Y-12331598D02*
X11830743Y-12322074D01*
X11830743Y-12322074D02*
X11849791Y-12312550D01*
X11849791Y-12312550D02*
X11878363Y-12312550D01*
X11878363Y-12312550D02*
X11897410Y-12322074D01*
X11897410Y-12322074D02*
X11906934Y-12341122D01*
X11906934Y-12341122D02*
X11906934Y-12445884D01*
X11906934Y-12341122D02*
X11916458Y-12322074D01*
X11916458Y-12322074D02*
X11935505Y-12312550D01*
X11935505Y-12312550D02*
X11964077Y-12312550D01*
X11964077Y-12312550D02*
X11983124Y-12322074D01*
X11983124Y-12322074D02*
X11992648Y-12341122D01*
X11992648Y-12341122D02*
X11992648Y-12445884D01*
X12087886Y-12445884D02*
X12087886Y-12312550D01*
X12087886Y-12331598D02*
X12097410Y-12322074D01*
X12097410Y-12322074D02*
X12116458Y-12312550D01*
X12116458Y-12312550D02*
X12145029Y-12312550D01*
X12145029Y-12312550D02*
X12164077Y-12322074D01*
X12164077Y-12322074D02*
X12173601Y-12341122D01*
X12173601Y-12341122D02*
X12173601Y-12445884D01*
X12173601Y-12341122D02*
X12183124Y-12322074D01*
X12183124Y-12322074D02*
X12202172Y-12312550D01*
X12202172Y-12312550D02*
X12230743Y-12312550D01*
X12230743Y-12312550D02*
X12249791Y-12322074D01*
X12249791Y-12322074D02*
X12259315Y-12341122D01*
X12259315Y-12341122D02*
X12259315Y-12445884D01*
X12649791Y-12236360D02*
X12478363Y-12493503D01*
X12906934Y-12245884D02*
X12925982Y-12245884D01*
X12925982Y-12245884D02*
X12945029Y-12255408D01*
X12945029Y-12255408D02*
X12954553Y-12264931D01*
X12954553Y-12264931D02*
X12964077Y-12283979D01*
X12964077Y-12283979D02*
X12973601Y-12322074D01*
X12973601Y-12322074D02*
X12973601Y-12369693D01*
X12973601Y-12369693D02*
X12964077Y-12407788D01*
X12964077Y-12407788D02*
X12954553Y-12426836D01*
X12954553Y-12426836D02*
X12945029Y-12436360D01*
X12945029Y-12436360D02*
X12925982Y-12445884D01*
X12925982Y-12445884D02*
X12906934Y-12445884D01*
X12906934Y-12445884D02*
X12887886Y-12436360D01*
X12887886Y-12436360D02*
X12878363Y-12426836D01*
X12878363Y-12426836D02*
X12868839Y-12407788D01*
X12868839Y-12407788D02*
X12859315Y-12369693D01*
X12859315Y-12369693D02*
X12859315Y-12322074D01*
X12859315Y-12322074D02*
X12868839Y-12283979D01*
X12868839Y-12283979D02*
X12878363Y-12264931D01*
X12878363Y-12264931D02*
X12887886Y-12255408D01*
X12887886Y-12255408D02*
X12906934Y-12245884D01*
X13059315Y-12426836D02*
X13068839Y-12436360D01*
X13068839Y-12436360D02*
X13059315Y-12445884D01*
X13059315Y-12445884D02*
X13049791Y-12436360D01*
X13049791Y-12436360D02*
X13059315Y-12426836D01*
X13059315Y-12426836D02*
X13059315Y-12445884D01*
X13192648Y-12245884D02*
X13211696Y-12245884D01*
X13211696Y-12245884D02*
X13230744Y-12255408D01*
X13230744Y-12255408D02*
X13240267Y-12264931D01*
X13240267Y-12264931D02*
X13249791Y-12283979D01*
X13249791Y-12283979D02*
X13259315Y-12322074D01*
X13259315Y-12322074D02*
X13259315Y-12369693D01*
X13259315Y-12369693D02*
X13249791Y-12407788D01*
X13249791Y-12407788D02*
X13240267Y-12426836D01*
X13240267Y-12426836D02*
X13230744Y-12436360D01*
X13230744Y-12436360D02*
X13211696Y-12445884D01*
X13211696Y-12445884D02*
X13192648Y-12445884D01*
X13192648Y-12445884D02*
X13173601Y-12436360D01*
X13173601Y-12436360D02*
X13164077Y-12426836D01*
X13164077Y-12426836D02*
X13154553Y-12407788D01*
X13154553Y-12407788D02*
X13145029Y-12369693D01*
X13145029Y-12369693D02*
X13145029Y-12322074D01*
X13145029Y-12322074D02*
X13154553Y-12283979D01*
X13154553Y-12283979D02*
X13164077Y-12264931D01*
X13164077Y-12264931D02*
X13173601Y-12255408D01*
X13173601Y-12255408D02*
X13192648Y-12245884D01*
X13449791Y-12445884D02*
X13335506Y-12445884D01*
X13392648Y-12445884D02*
X13392648Y-12245884D01*
X13392648Y-12245884D02*
X13373601Y-12274455D01*
X13373601Y-12274455D02*
X13354553Y-12293503D01*
X13354553Y-12293503D02*
X13335506Y-12303027D01*
X13640267Y-12445884D02*
X13525982Y-12445884D01*
X13583125Y-12445884D02*
X13583125Y-12245884D01*
X13583125Y-12245884D02*
X13564077Y-12274455D01*
X13564077Y-12274455D02*
X13545029Y-12293503D01*
X13545029Y-12293503D02*
X13525982Y-12303027D01*
X13754553Y-12331598D02*
X13735506Y-12322074D01*
X13735506Y-12322074D02*
X13725982Y-12312550D01*
X13725982Y-12312550D02*
X13716458Y-12293503D01*
X13716458Y-12293503D02*
X13716458Y-12283979D01*
X13716458Y-12283979D02*
X13725982Y-12264931D01*
X13725982Y-12264931D02*
X13735506Y-12255408D01*
X13735506Y-12255408D02*
X13754553Y-12245884D01*
X13754553Y-12245884D02*
X13792648Y-12245884D01*
X13792648Y-12245884D02*
X13811696Y-12255408D01*
X13811696Y-12255408D02*
X13821220Y-12264931D01*
X13821220Y-12264931D02*
X13830744Y-12283979D01*
X13830744Y-12283979D02*
X13830744Y-12293503D01*
X13830744Y-12293503D02*
X13821220Y-12312550D01*
X13821220Y-12312550D02*
X13811696Y-12322074D01*
X13811696Y-12322074D02*
X13792648Y-12331598D01*
X13792648Y-12331598D02*
X13754553Y-12331598D01*
X13754553Y-12331598D02*
X13735506Y-12341122D01*
X13735506Y-12341122D02*
X13725982Y-12350646D01*
X13725982Y-12350646D02*
X13716458Y-12369693D01*
X13716458Y-12369693D02*
X13716458Y-12407788D01*
X13716458Y-12407788D02*
X13725982Y-12426836D01*
X13725982Y-12426836D02*
X13735506Y-12436360D01*
X13735506Y-12436360D02*
X13754553Y-12445884D01*
X13754553Y-12445884D02*
X13792648Y-12445884D01*
X13792648Y-12445884D02*
X13811696Y-12436360D01*
X13811696Y-12436360D02*
X13821220Y-12426836D01*
X13821220Y-12426836D02*
X13830744Y-12407788D01*
X13830744Y-12407788D02*
X13830744Y-12369693D01*
X13830744Y-12369693D02*
X13821220Y-12350646D01*
X13821220Y-12350646D02*
X13811696Y-12341122D01*
X13811696Y-12341122D02*
X13792648Y-12331598D01*
X13906934Y-12245884D02*
X13906934Y-12283979D01*
X13983125Y-12245884D02*
X13983125Y-12283979D01*
X14278363Y-12522074D02*
X14268839Y-12512550D01*
X14268839Y-12512550D02*
X14249791Y-12483979D01*
X14249791Y-12483979D02*
X14240268Y-12464931D01*
X14240268Y-12464931D02*
X14230744Y-12436360D01*
X14230744Y-12436360D02*
X14221220Y-12388741D01*
X14221220Y-12388741D02*
X14221220Y-12350646D01*
X14221220Y-12350646D02*
X14230744Y-12303027D01*
X14230744Y-12303027D02*
X14240268Y-12274455D01*
X14240268Y-12274455D02*
X14249791Y-12255408D01*
X14249791Y-12255408D02*
X14268839Y-12226836D01*
X14268839Y-12226836D02*
X14278363Y-12217312D01*
X14459315Y-12445884D02*
X14345029Y-12445884D01*
X14402172Y-12445884D02*
X14402172Y-12245884D01*
X14402172Y-12245884D02*
X14383125Y-12274455D01*
X14383125Y-12274455D02*
X14364077Y-12293503D01*
X14364077Y-12293503D02*
X14345029Y-12303027D01*
X14649791Y-12445884D02*
X14535506Y-12445884D01*
X14592648Y-12445884D02*
X14592648Y-12245884D01*
X14592648Y-12245884D02*
X14573601Y-12274455D01*
X14573601Y-12274455D02*
X14554553Y-12293503D01*
X14554553Y-12293503D02*
X14535506Y-12303027D01*
X14745029Y-12445884D02*
X14783125Y-12445884D01*
X14783125Y-12445884D02*
X14802172Y-12436360D01*
X14802172Y-12436360D02*
X14811696Y-12426836D01*
X14811696Y-12426836D02*
X14830744Y-12398265D01*
X14830744Y-12398265D02*
X14840268Y-12360169D01*
X14840268Y-12360169D02*
X14840268Y-12283979D01*
X14840268Y-12283979D02*
X14830744Y-12264931D01*
X14830744Y-12264931D02*
X14821220Y-12255408D01*
X14821220Y-12255408D02*
X14802172Y-12245884D01*
X14802172Y-12245884D02*
X14764077Y-12245884D01*
X14764077Y-12245884D02*
X14745029Y-12255408D01*
X14745029Y-12255408D02*
X14735506Y-12264931D01*
X14735506Y-12264931D02*
X14725982Y-12283979D01*
X14725982Y-12283979D02*
X14725982Y-12331598D01*
X14725982Y-12331598D02*
X14735506Y-12350646D01*
X14735506Y-12350646D02*
X14745029Y-12360169D01*
X14745029Y-12360169D02*
X14764077Y-12369693D01*
X14764077Y-12369693D02*
X14802172Y-12369693D01*
X14802172Y-12369693D02*
X14821220Y-12360169D01*
X14821220Y-12360169D02*
X14830744Y-12350646D01*
X14830744Y-12350646D02*
X14840268Y-12331598D01*
X15078363Y-12445884D02*
X15078363Y-12245884D01*
X15164077Y-12445884D02*
X15164077Y-12341122D01*
X15164077Y-12341122D02*
X15154553Y-12322074D01*
X15154553Y-12322074D02*
X15135506Y-12312550D01*
X15135506Y-12312550D02*
X15106934Y-12312550D01*
X15106934Y-12312550D02*
X15087887Y-12322074D01*
X15087887Y-12322074D02*
X15078363Y-12331598D01*
X15287887Y-12445884D02*
X15268839Y-12436360D01*
X15268839Y-12436360D02*
X15259315Y-12426836D01*
X15259315Y-12426836D02*
X15249791Y-12407788D01*
X15249791Y-12407788D02*
X15249791Y-12350646D01*
X15249791Y-12350646D02*
X15259315Y-12331598D01*
X15259315Y-12331598D02*
X15268839Y-12322074D01*
X15268839Y-12322074D02*
X15287887Y-12312550D01*
X15287887Y-12312550D02*
X15316458Y-12312550D01*
X15316458Y-12312550D02*
X15335506Y-12322074D01*
X15335506Y-12322074D02*
X15345030Y-12331598D01*
X15345030Y-12331598D02*
X15354553Y-12350646D01*
X15354553Y-12350646D02*
X15354553Y-12407788D01*
X15354553Y-12407788D02*
X15345030Y-12426836D01*
X15345030Y-12426836D02*
X15335506Y-12436360D01*
X15335506Y-12436360D02*
X15316458Y-12445884D01*
X15316458Y-12445884D02*
X15287887Y-12445884D01*
X15468839Y-12445884D02*
X15449791Y-12436360D01*
X15449791Y-12436360D02*
X15440268Y-12417312D01*
X15440268Y-12417312D02*
X15440268Y-12245884D01*
X15621220Y-12436360D02*
X15602172Y-12445884D01*
X15602172Y-12445884D02*
X15564077Y-12445884D01*
X15564077Y-12445884D02*
X15545030Y-12436360D01*
X15545030Y-12436360D02*
X15535506Y-12417312D01*
X15535506Y-12417312D02*
X15535506Y-12341122D01*
X15535506Y-12341122D02*
X15545030Y-12322074D01*
X15545030Y-12322074D02*
X15564077Y-12312550D01*
X15564077Y-12312550D02*
X15602172Y-12312550D01*
X15602172Y-12312550D02*
X15621220Y-12322074D01*
X15621220Y-12322074D02*
X15630744Y-12341122D01*
X15630744Y-12341122D02*
X15630744Y-12360169D01*
X15630744Y-12360169D02*
X15535506Y-12379217D01*
X15706934Y-12436360D02*
X15725982Y-12445884D01*
X15725982Y-12445884D02*
X15764077Y-12445884D01*
X15764077Y-12445884D02*
X15783125Y-12436360D01*
X15783125Y-12436360D02*
X15792649Y-12417312D01*
X15792649Y-12417312D02*
X15792649Y-12407788D01*
X15792649Y-12407788D02*
X15783125Y-12388741D01*
X15783125Y-12388741D02*
X15764077Y-12379217D01*
X15764077Y-12379217D02*
X15735506Y-12379217D01*
X15735506Y-12379217D02*
X15716458Y-12369693D01*
X15716458Y-12369693D02*
X15706934Y-12350646D01*
X15706934Y-12350646D02*
X15706934Y-12341122D01*
X15706934Y-12341122D02*
X15716458Y-12322074D01*
X15716458Y-12322074D02*
X15735506Y-12312550D01*
X15735506Y-12312550D02*
X15764077Y-12312550D01*
X15764077Y-12312550D02*
X15783125Y-12322074D01*
X15859315Y-12522074D02*
X15868839Y-12512550D01*
X15868839Y-12512550D02*
X15887887Y-12483979D01*
X15887887Y-12483979D02*
X15897411Y-12464931D01*
X15897411Y-12464931D02*
X15906934Y-12436360D01*
X15906934Y-12436360D02*
X15916458Y-12388741D01*
X15916458Y-12388741D02*
X15916458Y-12350646D01*
X15916458Y-12350646D02*
X15906934Y-12303027D01*
X15906934Y-12303027D02*
X15897411Y-12274455D01*
X15897411Y-12274455D02*
X15887887Y-12255408D01*
X15887887Y-12255408D02*
X15868839Y-12226836D01*
X15868839Y-12226836D02*
X15859315Y-12217312D01*
D10*
X10703300Y-12618400D02*
G75*
G02*
X10623300Y-12618400I-40000J0D01*
G01*
X10623300Y-12618400D02*
G75*
G02*
X10703300Y-12618400I40000J0D01*
G01*
D11*
X11002172Y-12509884D02*
X11021220Y-12509884D01*
X11021220Y-12509884D02*
X11040267Y-12519408D01*
X11040267Y-12519408D02*
X11049791Y-12528931D01*
X11049791Y-12528931D02*
X11059315Y-12547979D01*
X11059315Y-12547979D02*
X11068839Y-12586074D01*
X11068839Y-12586074D02*
X11068839Y-12633693D01*
X11068839Y-12633693D02*
X11059315Y-12671788D01*
X11059315Y-12671788D02*
X11049791Y-12690836D01*
X11049791Y-12690836D02*
X11040267Y-12700360D01*
X11040267Y-12700360D02*
X11021220Y-12709884D01*
X11021220Y-12709884D02*
X11002172Y-12709884D01*
X11002172Y-12709884D02*
X10983124Y-12700360D01*
X10983124Y-12700360D02*
X10973601Y-12690836D01*
X10973601Y-12690836D02*
X10964077Y-12671788D01*
X10964077Y-12671788D02*
X10954553Y-12633693D01*
X10954553Y-12633693D02*
X10954553Y-12586074D01*
X10954553Y-12586074D02*
X10964077Y-12547979D01*
X10964077Y-12547979D02*
X10973601Y-12528931D01*
X10973601Y-12528931D02*
X10983124Y-12519408D01*
X10983124Y-12519408D02*
X11002172Y-12509884D01*
X11154553Y-12690836D02*
X11164077Y-12700360D01*
X11164077Y-12700360D02*
X11154553Y-12709884D01*
X11154553Y-12709884D02*
X11145029Y-12700360D01*
X11145029Y-12700360D02*
X11154553Y-12690836D01*
X11154553Y-12690836D02*
X11154553Y-12709884D01*
X11278362Y-12595598D02*
X11259315Y-12586074D01*
X11259315Y-12586074D02*
X11249791Y-12576550D01*
X11249791Y-12576550D02*
X11240267Y-12557503D01*
X11240267Y-12557503D02*
X11240267Y-12547979D01*
X11240267Y-12547979D02*
X11249791Y-12528931D01*
X11249791Y-12528931D02*
X11259315Y-12519408D01*
X11259315Y-12519408D02*
X11278362Y-12509884D01*
X11278362Y-12509884D02*
X11316458Y-12509884D01*
X11316458Y-12509884D02*
X11335505Y-12519408D01*
X11335505Y-12519408D02*
X11345029Y-12528931D01*
X11345029Y-12528931D02*
X11354553Y-12547979D01*
X11354553Y-12547979D02*
X11354553Y-12557503D01*
X11354553Y-12557503D02*
X11345029Y-12576550D01*
X11345029Y-12576550D02*
X11335505Y-12586074D01*
X11335505Y-12586074D02*
X11316458Y-12595598D01*
X11316458Y-12595598D02*
X11278362Y-12595598D01*
X11278362Y-12595598D02*
X11259315Y-12605122D01*
X11259315Y-12605122D02*
X11249791Y-12614646D01*
X11249791Y-12614646D02*
X11240267Y-12633693D01*
X11240267Y-12633693D02*
X11240267Y-12671788D01*
X11240267Y-12671788D02*
X11249791Y-12690836D01*
X11249791Y-12690836D02*
X11259315Y-12700360D01*
X11259315Y-12700360D02*
X11278362Y-12709884D01*
X11278362Y-12709884D02*
X11316458Y-12709884D01*
X11316458Y-12709884D02*
X11335505Y-12700360D01*
X11335505Y-12700360D02*
X11345029Y-12690836D01*
X11345029Y-12690836D02*
X11354553Y-12671788D01*
X11354553Y-12671788D02*
X11354553Y-12633693D01*
X11354553Y-12633693D02*
X11345029Y-12614646D01*
X11345029Y-12614646D02*
X11335505Y-12605122D01*
X11335505Y-12605122D02*
X11316458Y-12595598D01*
X11478362Y-12509884D02*
X11497410Y-12509884D01*
X11497410Y-12509884D02*
X11516458Y-12519408D01*
X11516458Y-12519408D02*
X11525982Y-12528931D01*
X11525982Y-12528931D02*
X11535505Y-12547979D01*
X11535505Y-12547979D02*
X11545029Y-12586074D01*
X11545029Y-12586074D02*
X11545029Y-12633693D01*
X11545029Y-12633693D02*
X11535505Y-12671788D01*
X11535505Y-12671788D02*
X11525982Y-12690836D01*
X11525982Y-12690836D02*
X11516458Y-12700360D01*
X11516458Y-12700360D02*
X11497410Y-12709884D01*
X11497410Y-12709884D02*
X11478362Y-12709884D01*
X11478362Y-12709884D02*
X11459315Y-12700360D01*
X11459315Y-12700360D02*
X11449791Y-12690836D01*
X11449791Y-12690836D02*
X11440267Y-12671788D01*
X11440267Y-12671788D02*
X11430743Y-12633693D01*
X11430743Y-12633693D02*
X11430743Y-12586074D01*
X11430743Y-12586074D02*
X11440267Y-12547979D01*
X11440267Y-12547979D02*
X11449791Y-12528931D01*
X11449791Y-12528931D02*
X11459315Y-12519408D01*
X11459315Y-12519408D02*
X11478362Y-12509884D01*
X11668839Y-12509884D02*
X11687886Y-12509884D01*
X11687886Y-12509884D02*
X11706934Y-12519408D01*
X11706934Y-12519408D02*
X11716458Y-12528931D01*
X11716458Y-12528931D02*
X11725982Y-12547979D01*
X11725982Y-12547979D02*
X11735505Y-12586074D01*
X11735505Y-12586074D02*
X11735505Y-12633693D01*
X11735505Y-12633693D02*
X11725982Y-12671788D01*
X11725982Y-12671788D02*
X11716458Y-12690836D01*
X11716458Y-12690836D02*
X11706934Y-12700360D01*
X11706934Y-12700360D02*
X11687886Y-12709884D01*
X11687886Y-12709884D02*
X11668839Y-12709884D01*
X11668839Y-12709884D02*
X11649791Y-12700360D01*
X11649791Y-12700360D02*
X11640267Y-12690836D01*
X11640267Y-12690836D02*
X11630743Y-12671788D01*
X11630743Y-12671788D02*
X11621220Y-12633693D01*
X11621220Y-12633693D02*
X11621220Y-12586074D01*
X11621220Y-12586074D02*
X11630743Y-12547979D01*
X11630743Y-12547979D02*
X11640267Y-12528931D01*
X11640267Y-12528931D02*
X11649791Y-12519408D01*
X11649791Y-12519408D02*
X11668839Y-12509884D01*
X11821220Y-12709884D02*
X11821220Y-12576550D01*
X11821220Y-12595598D02*
X11830743Y-12586074D01*
X11830743Y-12586074D02*
X11849791Y-12576550D01*
X11849791Y-12576550D02*
X11878363Y-12576550D01*
X11878363Y-12576550D02*
X11897410Y-12586074D01*
X11897410Y-12586074D02*
X11906934Y-12605122D01*
X11906934Y-12605122D02*
X11906934Y-12709884D01*
X11906934Y-12605122D02*
X11916458Y-12586074D01*
X11916458Y-12586074D02*
X11935505Y-12576550D01*
X11935505Y-12576550D02*
X11964077Y-12576550D01*
X11964077Y-12576550D02*
X11983124Y-12586074D01*
X11983124Y-12586074D02*
X11992648Y-12605122D01*
X11992648Y-12605122D02*
X11992648Y-12709884D01*
X12087886Y-12709884D02*
X12087886Y-12576550D01*
X12087886Y-12595598D02*
X12097410Y-12586074D01*
X12097410Y-12586074D02*
X12116458Y-12576550D01*
X12116458Y-12576550D02*
X12145029Y-12576550D01*
X12145029Y-12576550D02*
X12164077Y-12586074D01*
X12164077Y-12586074D02*
X12173601Y-12605122D01*
X12173601Y-12605122D02*
X12173601Y-12709884D01*
X12173601Y-12605122D02*
X12183124Y-12586074D01*
X12183124Y-12586074D02*
X12202172Y-12576550D01*
X12202172Y-12576550D02*
X12230743Y-12576550D01*
X12230743Y-12576550D02*
X12249791Y-12586074D01*
X12249791Y-12586074D02*
X12259315Y-12605122D01*
X12259315Y-12605122D02*
X12259315Y-12709884D01*
X12649791Y-12500360D02*
X12478363Y-12757503D01*
X12906934Y-12509884D02*
X12925982Y-12509884D01*
X12925982Y-12509884D02*
X12945029Y-12519408D01*
X12945029Y-12519408D02*
X12954553Y-12528931D01*
X12954553Y-12528931D02*
X12964077Y-12547979D01*
X12964077Y-12547979D02*
X12973601Y-12586074D01*
X12973601Y-12586074D02*
X12973601Y-12633693D01*
X12973601Y-12633693D02*
X12964077Y-12671788D01*
X12964077Y-12671788D02*
X12954553Y-12690836D01*
X12954553Y-12690836D02*
X12945029Y-12700360D01*
X12945029Y-12700360D02*
X12925982Y-12709884D01*
X12925982Y-12709884D02*
X12906934Y-12709884D01*
X12906934Y-12709884D02*
X12887886Y-12700360D01*
X12887886Y-12700360D02*
X12878363Y-12690836D01*
X12878363Y-12690836D02*
X12868839Y-12671788D01*
X12868839Y-12671788D02*
X12859315Y-12633693D01*
X12859315Y-12633693D02*
X12859315Y-12586074D01*
X12859315Y-12586074D02*
X12868839Y-12547979D01*
X12868839Y-12547979D02*
X12878363Y-12528931D01*
X12878363Y-12528931D02*
X12887886Y-12519408D01*
X12887886Y-12519408D02*
X12906934Y-12509884D01*
X13059315Y-12690836D02*
X13068839Y-12700360D01*
X13068839Y-12700360D02*
X13059315Y-12709884D01*
X13059315Y-12709884D02*
X13049791Y-12700360D01*
X13049791Y-12700360D02*
X13059315Y-12690836D01*
X13059315Y-12690836D02*
X13059315Y-12709884D01*
X13192648Y-12509884D02*
X13211696Y-12509884D01*
X13211696Y-12509884D02*
X13230744Y-12519408D01*
X13230744Y-12519408D02*
X13240267Y-12528931D01*
X13240267Y-12528931D02*
X13249791Y-12547979D01*
X13249791Y-12547979D02*
X13259315Y-12586074D01*
X13259315Y-12586074D02*
X13259315Y-12633693D01*
X13259315Y-12633693D02*
X13249791Y-12671788D01*
X13249791Y-12671788D02*
X13240267Y-12690836D01*
X13240267Y-12690836D02*
X13230744Y-12700360D01*
X13230744Y-12700360D02*
X13211696Y-12709884D01*
X13211696Y-12709884D02*
X13192648Y-12709884D01*
X13192648Y-12709884D02*
X13173601Y-12700360D01*
X13173601Y-12700360D02*
X13164077Y-12690836D01*
X13164077Y-12690836D02*
X13154553Y-12671788D01*
X13154553Y-12671788D02*
X13145029Y-12633693D01*
X13145029Y-12633693D02*
X13145029Y-12586074D01*
X13145029Y-12586074D02*
X13154553Y-12547979D01*
X13154553Y-12547979D02*
X13164077Y-12528931D01*
X13164077Y-12528931D02*
X13173601Y-12519408D01*
X13173601Y-12519408D02*
X13192648Y-12509884D01*
X13325982Y-12509884D02*
X13449791Y-12509884D01*
X13449791Y-12509884D02*
X13383125Y-12586074D01*
X13383125Y-12586074D02*
X13411696Y-12586074D01*
X13411696Y-12586074D02*
X13430744Y-12595598D01*
X13430744Y-12595598D02*
X13440267Y-12605122D01*
X13440267Y-12605122D02*
X13449791Y-12624169D01*
X13449791Y-12624169D02*
X13449791Y-12671788D01*
X13449791Y-12671788D02*
X13440267Y-12690836D01*
X13440267Y-12690836D02*
X13430744Y-12700360D01*
X13430744Y-12700360D02*
X13411696Y-12709884D01*
X13411696Y-12709884D02*
X13354553Y-12709884D01*
X13354553Y-12709884D02*
X13335506Y-12700360D01*
X13335506Y-12700360D02*
X13325982Y-12690836D01*
X13640267Y-12709884D02*
X13525982Y-12709884D01*
X13583125Y-12709884D02*
X13583125Y-12509884D01*
X13583125Y-12509884D02*
X13564077Y-12538455D01*
X13564077Y-12538455D02*
X13545029Y-12557503D01*
X13545029Y-12557503D02*
X13525982Y-12567027D01*
X13821220Y-12509884D02*
X13725982Y-12509884D01*
X13725982Y-12509884D02*
X13716458Y-12605122D01*
X13716458Y-12605122D02*
X13725982Y-12595598D01*
X13725982Y-12595598D02*
X13745029Y-12586074D01*
X13745029Y-12586074D02*
X13792648Y-12586074D01*
X13792648Y-12586074D02*
X13811696Y-12595598D01*
X13811696Y-12595598D02*
X13821220Y-12605122D01*
X13821220Y-12605122D02*
X13830744Y-12624169D01*
X13830744Y-12624169D02*
X13830744Y-12671788D01*
X13830744Y-12671788D02*
X13821220Y-12690836D01*
X13821220Y-12690836D02*
X13811696Y-12700360D01*
X13811696Y-12700360D02*
X13792648Y-12709884D01*
X13792648Y-12709884D02*
X13745029Y-12709884D01*
X13745029Y-12709884D02*
X13725982Y-12700360D01*
X13725982Y-12700360D02*
X13716458Y-12690836D01*
X13906934Y-12509884D02*
X13906934Y-12547979D01*
X13983125Y-12509884D02*
X13983125Y-12547979D01*
X14278363Y-12786074D02*
X14268839Y-12776550D01*
X14268839Y-12776550D02*
X14249791Y-12747979D01*
X14249791Y-12747979D02*
X14240268Y-12728931D01*
X14240268Y-12728931D02*
X14230744Y-12700360D01*
X14230744Y-12700360D02*
X14221220Y-12652741D01*
X14221220Y-12652741D02*
X14221220Y-12614646D01*
X14221220Y-12614646D02*
X14230744Y-12567027D01*
X14230744Y-12567027D02*
X14240268Y-12538455D01*
X14240268Y-12538455D02*
X14249791Y-12519408D01*
X14249791Y-12519408D02*
X14268839Y-12490836D01*
X14268839Y-12490836D02*
X14278363Y-12481312D01*
X14459315Y-12709884D02*
X14345029Y-12709884D01*
X14402172Y-12709884D02*
X14402172Y-12509884D01*
X14402172Y-12509884D02*
X14383125Y-12538455D01*
X14383125Y-12538455D02*
X14364077Y-12557503D01*
X14364077Y-12557503D02*
X14345029Y-12567027D01*
X14525982Y-12509884D02*
X14649791Y-12509884D01*
X14649791Y-12509884D02*
X14583125Y-12586074D01*
X14583125Y-12586074D02*
X14611696Y-12586074D01*
X14611696Y-12586074D02*
X14630744Y-12595598D01*
X14630744Y-12595598D02*
X14640268Y-12605122D01*
X14640268Y-12605122D02*
X14649791Y-12624169D01*
X14649791Y-12624169D02*
X14649791Y-12671788D01*
X14649791Y-12671788D02*
X14640268Y-12690836D01*
X14640268Y-12690836D02*
X14630744Y-12700360D01*
X14630744Y-12700360D02*
X14611696Y-12709884D01*
X14611696Y-12709884D02*
X14554553Y-12709884D01*
X14554553Y-12709884D02*
X14535506Y-12700360D01*
X14535506Y-12700360D02*
X14525982Y-12690836D01*
X14821220Y-12509884D02*
X14783125Y-12509884D01*
X14783125Y-12509884D02*
X14764077Y-12519408D01*
X14764077Y-12519408D02*
X14754553Y-12528931D01*
X14754553Y-12528931D02*
X14735506Y-12557503D01*
X14735506Y-12557503D02*
X14725982Y-12595598D01*
X14725982Y-12595598D02*
X14725982Y-12671788D01*
X14725982Y-12671788D02*
X14735506Y-12690836D01*
X14735506Y-12690836D02*
X14745029Y-12700360D01*
X14745029Y-12700360D02*
X14764077Y-12709884D01*
X14764077Y-12709884D02*
X14802172Y-12709884D01*
X14802172Y-12709884D02*
X14821220Y-12700360D01*
X14821220Y-12700360D02*
X14830744Y-12690836D01*
X14830744Y-12690836D02*
X14840268Y-12671788D01*
X14840268Y-12671788D02*
X14840268Y-12624169D01*
X14840268Y-12624169D02*
X14830744Y-12605122D01*
X14830744Y-12605122D02*
X14821220Y-12595598D01*
X14821220Y-12595598D02*
X14802172Y-12586074D01*
X14802172Y-12586074D02*
X14764077Y-12586074D01*
X14764077Y-12586074D02*
X14745029Y-12595598D01*
X14745029Y-12595598D02*
X14735506Y-12605122D01*
X14735506Y-12605122D02*
X14725982Y-12624169D01*
X15078363Y-12709884D02*
X15078363Y-12509884D01*
X15164077Y-12709884D02*
X15164077Y-12605122D01*
X15164077Y-12605122D02*
X15154553Y-12586074D01*
X15154553Y-12586074D02*
X15135506Y-12576550D01*
X15135506Y-12576550D02*
X15106934Y-12576550D01*
X15106934Y-12576550D02*
X15087887Y-12586074D01*
X15087887Y-12586074D02*
X15078363Y-12595598D01*
X15287887Y-12709884D02*
X15268839Y-12700360D01*
X15268839Y-12700360D02*
X15259315Y-12690836D01*
X15259315Y-12690836D02*
X15249791Y-12671788D01*
X15249791Y-12671788D02*
X15249791Y-12614646D01*
X15249791Y-12614646D02*
X15259315Y-12595598D01*
X15259315Y-12595598D02*
X15268839Y-12586074D01*
X15268839Y-12586074D02*
X15287887Y-12576550D01*
X15287887Y-12576550D02*
X15316458Y-12576550D01*
X15316458Y-12576550D02*
X15335506Y-12586074D01*
X15335506Y-12586074D02*
X15345030Y-12595598D01*
X15345030Y-12595598D02*
X15354553Y-12614646D01*
X15354553Y-12614646D02*
X15354553Y-12671788D01*
X15354553Y-12671788D02*
X15345030Y-12690836D01*
X15345030Y-12690836D02*
X15335506Y-12700360D01*
X15335506Y-12700360D02*
X15316458Y-12709884D01*
X15316458Y-12709884D02*
X15287887Y-12709884D01*
X15468839Y-12709884D02*
X15449791Y-12700360D01*
X15449791Y-12700360D02*
X15440268Y-12681312D01*
X15440268Y-12681312D02*
X15440268Y-12509884D01*
X15621220Y-12700360D02*
X15602172Y-12709884D01*
X15602172Y-12709884D02*
X15564077Y-12709884D01*
X15564077Y-12709884D02*
X15545030Y-12700360D01*
X15545030Y-12700360D02*
X15535506Y-12681312D01*
X15535506Y-12681312D02*
X15535506Y-12605122D01*
X15535506Y-12605122D02*
X15545030Y-12586074D01*
X15545030Y-12586074D02*
X15564077Y-12576550D01*
X15564077Y-12576550D02*
X15602172Y-12576550D01*
X15602172Y-12576550D02*
X15621220Y-12586074D01*
X15621220Y-12586074D02*
X15630744Y-12605122D01*
X15630744Y-12605122D02*
X15630744Y-12624169D01*
X15630744Y-12624169D02*
X15535506Y-12643217D01*
X15706934Y-12700360D02*
X15725982Y-12709884D01*
X15725982Y-12709884D02*
X15764077Y-12709884D01*
X15764077Y-12709884D02*
X15783125Y-12700360D01*
X15783125Y-12700360D02*
X15792649Y-12681312D01*
X15792649Y-12681312D02*
X15792649Y-12671788D01*
X15792649Y-12671788D02*
X15783125Y-12652741D01*
X15783125Y-12652741D02*
X15764077Y-12643217D01*
X15764077Y-12643217D02*
X15735506Y-12643217D01*
X15735506Y-12643217D02*
X15716458Y-12633693D01*
X15716458Y-12633693D02*
X15706934Y-12614646D01*
X15706934Y-12614646D02*
X15706934Y-12605122D01*
X15706934Y-12605122D02*
X15716458Y-12586074D01*
X15716458Y-12586074D02*
X15735506Y-12576550D01*
X15735506Y-12576550D02*
X15764077Y-12576550D01*
X15764077Y-12576550D02*
X15783125Y-12586074D01*
X15859315Y-12786074D02*
X15868839Y-12776550D01*
X15868839Y-12776550D02*
X15887887Y-12747979D01*
X15887887Y-12747979D02*
X15897411Y-12728931D01*
X15897411Y-12728931D02*
X15906934Y-12700360D01*
X15906934Y-12700360D02*
X15916458Y-12652741D01*
X15916458Y-12652741D02*
X15916458Y-12614646D01*
X15916458Y-12614646D02*
X15906934Y-12567027D01*
X15906934Y-12567027D02*
X15897411Y-12538455D01*
X15897411Y-12538455D02*
X15887887Y-12519408D01*
X15887887Y-12519408D02*
X15868839Y-12490836D01*
X15868839Y-12490836D02*
X15859315Y-12481312D01*
D10*
X10653300Y-12832400D02*
X10653300Y-12932400D01*
X10603300Y-12882400D02*
X10703300Y-12882400D01*
D11*
X11068839Y-12973884D02*
X10954553Y-12973884D01*
X11011696Y-12973884D02*
X11011696Y-12773884D01*
X11011696Y-12773884D02*
X10992648Y-12802455D01*
X10992648Y-12802455D02*
X10973601Y-12821503D01*
X10973601Y-12821503D02*
X10954553Y-12831027D01*
X11154553Y-12954836D02*
X11164077Y-12964360D01*
X11164077Y-12964360D02*
X11154553Y-12973884D01*
X11154553Y-12973884D02*
X11145029Y-12964360D01*
X11145029Y-12964360D02*
X11154553Y-12954836D01*
X11154553Y-12954836D02*
X11154553Y-12973884D01*
X11287886Y-12773884D02*
X11306934Y-12773884D01*
X11306934Y-12773884D02*
X11325982Y-12783408D01*
X11325982Y-12783408D02*
X11335505Y-12792931D01*
X11335505Y-12792931D02*
X11345029Y-12811979D01*
X11345029Y-12811979D02*
X11354553Y-12850074D01*
X11354553Y-12850074D02*
X11354553Y-12897693D01*
X11354553Y-12897693D02*
X11345029Y-12935788D01*
X11345029Y-12935788D02*
X11335505Y-12954836D01*
X11335505Y-12954836D02*
X11325982Y-12964360D01*
X11325982Y-12964360D02*
X11306934Y-12973884D01*
X11306934Y-12973884D02*
X11287886Y-12973884D01*
X11287886Y-12973884D02*
X11268839Y-12964360D01*
X11268839Y-12964360D02*
X11259315Y-12954836D01*
X11259315Y-12954836D02*
X11249791Y-12935788D01*
X11249791Y-12935788D02*
X11240267Y-12897693D01*
X11240267Y-12897693D02*
X11240267Y-12850074D01*
X11240267Y-12850074D02*
X11249791Y-12811979D01*
X11249791Y-12811979D02*
X11259315Y-12792931D01*
X11259315Y-12792931D02*
X11268839Y-12783408D01*
X11268839Y-12783408D02*
X11287886Y-12773884D01*
X11478362Y-12773884D02*
X11497410Y-12773884D01*
X11497410Y-12773884D02*
X11516458Y-12783408D01*
X11516458Y-12783408D02*
X11525982Y-12792931D01*
X11525982Y-12792931D02*
X11535505Y-12811979D01*
X11535505Y-12811979D02*
X11545029Y-12850074D01*
X11545029Y-12850074D02*
X11545029Y-12897693D01*
X11545029Y-12897693D02*
X11535505Y-12935788D01*
X11535505Y-12935788D02*
X11525982Y-12954836D01*
X11525982Y-12954836D02*
X11516458Y-12964360D01*
X11516458Y-12964360D02*
X11497410Y-12973884D01*
X11497410Y-12973884D02*
X11478362Y-12973884D01*
X11478362Y-12973884D02*
X11459315Y-12964360D01*
X11459315Y-12964360D02*
X11449791Y-12954836D01*
X11449791Y-12954836D02*
X11440267Y-12935788D01*
X11440267Y-12935788D02*
X11430743Y-12897693D01*
X11430743Y-12897693D02*
X11430743Y-12850074D01*
X11430743Y-12850074D02*
X11440267Y-12811979D01*
X11440267Y-12811979D02*
X11449791Y-12792931D01*
X11449791Y-12792931D02*
X11459315Y-12783408D01*
X11459315Y-12783408D02*
X11478362Y-12773884D01*
X11668839Y-12773884D02*
X11687886Y-12773884D01*
X11687886Y-12773884D02*
X11706934Y-12783408D01*
X11706934Y-12783408D02*
X11716458Y-12792931D01*
X11716458Y-12792931D02*
X11725982Y-12811979D01*
X11725982Y-12811979D02*
X11735505Y-12850074D01*
X11735505Y-12850074D02*
X11735505Y-12897693D01*
X11735505Y-12897693D02*
X11725982Y-12935788D01*
X11725982Y-12935788D02*
X11716458Y-12954836D01*
X11716458Y-12954836D02*
X11706934Y-12964360D01*
X11706934Y-12964360D02*
X11687886Y-12973884D01*
X11687886Y-12973884D02*
X11668839Y-12973884D01*
X11668839Y-12973884D02*
X11649791Y-12964360D01*
X11649791Y-12964360D02*
X11640267Y-12954836D01*
X11640267Y-12954836D02*
X11630743Y-12935788D01*
X11630743Y-12935788D02*
X11621220Y-12897693D01*
X11621220Y-12897693D02*
X11621220Y-12850074D01*
X11621220Y-12850074D02*
X11630743Y-12811979D01*
X11630743Y-12811979D02*
X11640267Y-12792931D01*
X11640267Y-12792931D02*
X11649791Y-12783408D01*
X11649791Y-12783408D02*
X11668839Y-12773884D01*
X11821220Y-12973884D02*
X11821220Y-12840550D01*
X11821220Y-12859598D02*
X11830743Y-12850074D01*
X11830743Y-12850074D02*
X11849791Y-12840550D01*
X11849791Y-12840550D02*
X11878363Y-12840550D01*
X11878363Y-12840550D02*
X11897410Y-12850074D01*
X11897410Y-12850074D02*
X11906934Y-12869122D01*
X11906934Y-12869122D02*
X11906934Y-12973884D01*
X11906934Y-12869122D02*
X11916458Y-12850074D01*
X11916458Y-12850074D02*
X11935505Y-12840550D01*
X11935505Y-12840550D02*
X11964077Y-12840550D01*
X11964077Y-12840550D02*
X11983124Y-12850074D01*
X11983124Y-12850074D02*
X11992648Y-12869122D01*
X11992648Y-12869122D02*
X11992648Y-12973884D01*
X12087886Y-12973884D02*
X12087886Y-12840550D01*
X12087886Y-12859598D02*
X12097410Y-12850074D01*
X12097410Y-12850074D02*
X12116458Y-12840550D01*
X12116458Y-12840550D02*
X12145029Y-12840550D01*
X12145029Y-12840550D02*
X12164077Y-12850074D01*
X12164077Y-12850074D02*
X12173601Y-12869122D01*
X12173601Y-12869122D02*
X12173601Y-12973884D01*
X12173601Y-12869122D02*
X12183124Y-12850074D01*
X12183124Y-12850074D02*
X12202172Y-12840550D01*
X12202172Y-12840550D02*
X12230743Y-12840550D01*
X12230743Y-12840550D02*
X12249791Y-12850074D01*
X12249791Y-12850074D02*
X12259315Y-12869122D01*
X12259315Y-12869122D02*
X12259315Y-12973884D01*
X12649791Y-12764360D02*
X12478363Y-13021503D01*
X12906934Y-12773884D02*
X12925982Y-12773884D01*
X12925982Y-12773884D02*
X12945029Y-12783408D01*
X12945029Y-12783408D02*
X12954553Y-12792931D01*
X12954553Y-12792931D02*
X12964077Y-12811979D01*
X12964077Y-12811979D02*
X12973601Y-12850074D01*
X12973601Y-12850074D02*
X12973601Y-12897693D01*
X12973601Y-12897693D02*
X12964077Y-12935788D01*
X12964077Y-12935788D02*
X12954553Y-12954836D01*
X12954553Y-12954836D02*
X12945029Y-12964360D01*
X12945029Y-12964360D02*
X12925982Y-12973884D01*
X12925982Y-12973884D02*
X12906934Y-12973884D01*
X12906934Y-12973884D02*
X12887886Y-12964360D01*
X12887886Y-12964360D02*
X12878363Y-12954836D01*
X12878363Y-12954836D02*
X12868839Y-12935788D01*
X12868839Y-12935788D02*
X12859315Y-12897693D01*
X12859315Y-12897693D02*
X12859315Y-12850074D01*
X12859315Y-12850074D02*
X12868839Y-12811979D01*
X12868839Y-12811979D02*
X12878363Y-12792931D01*
X12878363Y-12792931D02*
X12887886Y-12783408D01*
X12887886Y-12783408D02*
X12906934Y-12773884D01*
X13059315Y-12954836D02*
X13068839Y-12964360D01*
X13068839Y-12964360D02*
X13059315Y-12973884D01*
X13059315Y-12973884D02*
X13049791Y-12964360D01*
X13049791Y-12964360D02*
X13059315Y-12954836D01*
X13059315Y-12954836D02*
X13059315Y-12973884D01*
X13192648Y-12773884D02*
X13211696Y-12773884D01*
X13211696Y-12773884D02*
X13230744Y-12783408D01*
X13230744Y-12783408D02*
X13240267Y-12792931D01*
X13240267Y-12792931D02*
X13249791Y-12811979D01*
X13249791Y-12811979D02*
X13259315Y-12850074D01*
X13259315Y-12850074D02*
X13259315Y-12897693D01*
X13259315Y-12897693D02*
X13249791Y-12935788D01*
X13249791Y-12935788D02*
X13240267Y-12954836D01*
X13240267Y-12954836D02*
X13230744Y-12964360D01*
X13230744Y-12964360D02*
X13211696Y-12973884D01*
X13211696Y-12973884D02*
X13192648Y-12973884D01*
X13192648Y-12973884D02*
X13173601Y-12964360D01*
X13173601Y-12964360D02*
X13164077Y-12954836D01*
X13164077Y-12954836D02*
X13154553Y-12935788D01*
X13154553Y-12935788D02*
X13145029Y-12897693D01*
X13145029Y-12897693D02*
X13145029Y-12850074D01*
X13145029Y-12850074D02*
X13154553Y-12811979D01*
X13154553Y-12811979D02*
X13164077Y-12792931D01*
X13164077Y-12792931D02*
X13173601Y-12783408D01*
X13173601Y-12783408D02*
X13192648Y-12773884D01*
X13325982Y-12773884D02*
X13449791Y-12773884D01*
X13449791Y-12773884D02*
X13383125Y-12850074D01*
X13383125Y-12850074D02*
X13411696Y-12850074D01*
X13411696Y-12850074D02*
X13430744Y-12859598D01*
X13430744Y-12859598D02*
X13440267Y-12869122D01*
X13440267Y-12869122D02*
X13449791Y-12888169D01*
X13449791Y-12888169D02*
X13449791Y-12935788D01*
X13449791Y-12935788D02*
X13440267Y-12954836D01*
X13440267Y-12954836D02*
X13430744Y-12964360D01*
X13430744Y-12964360D02*
X13411696Y-12973884D01*
X13411696Y-12973884D02*
X13354553Y-12973884D01*
X13354553Y-12973884D02*
X13335506Y-12964360D01*
X13335506Y-12964360D02*
X13325982Y-12954836D01*
X13545029Y-12973884D02*
X13583125Y-12973884D01*
X13583125Y-12973884D02*
X13602172Y-12964360D01*
X13602172Y-12964360D02*
X13611696Y-12954836D01*
X13611696Y-12954836D02*
X13630744Y-12926265D01*
X13630744Y-12926265D02*
X13640267Y-12888169D01*
X13640267Y-12888169D02*
X13640267Y-12811979D01*
X13640267Y-12811979D02*
X13630744Y-12792931D01*
X13630744Y-12792931D02*
X13621220Y-12783408D01*
X13621220Y-12783408D02*
X13602172Y-12773884D01*
X13602172Y-12773884D02*
X13564077Y-12773884D01*
X13564077Y-12773884D02*
X13545029Y-12783408D01*
X13545029Y-12783408D02*
X13535506Y-12792931D01*
X13535506Y-12792931D02*
X13525982Y-12811979D01*
X13525982Y-12811979D02*
X13525982Y-12859598D01*
X13525982Y-12859598D02*
X13535506Y-12878646D01*
X13535506Y-12878646D02*
X13545029Y-12888169D01*
X13545029Y-12888169D02*
X13564077Y-12897693D01*
X13564077Y-12897693D02*
X13602172Y-12897693D01*
X13602172Y-12897693D02*
X13621220Y-12888169D01*
X13621220Y-12888169D02*
X13630744Y-12878646D01*
X13630744Y-12878646D02*
X13640267Y-12859598D01*
X13811696Y-12840550D02*
X13811696Y-12973884D01*
X13764077Y-12764360D02*
X13716458Y-12907217D01*
X13716458Y-12907217D02*
X13840267Y-12907217D01*
X13906934Y-12773884D02*
X13906934Y-12811979D01*
X13983125Y-12773884D02*
X13983125Y-12811979D01*
X14278363Y-13050074D02*
X14268839Y-13040550D01*
X14268839Y-13040550D02*
X14249791Y-13011979D01*
X14249791Y-13011979D02*
X14240268Y-12992931D01*
X14240268Y-12992931D02*
X14230744Y-12964360D01*
X14230744Y-12964360D02*
X14221220Y-12916741D01*
X14221220Y-12916741D02*
X14221220Y-12878646D01*
X14221220Y-12878646D02*
X14230744Y-12831027D01*
X14230744Y-12831027D02*
X14240268Y-12802455D01*
X14240268Y-12802455D02*
X14249791Y-12783408D01*
X14249791Y-12783408D02*
X14268839Y-12754836D01*
X14268839Y-12754836D02*
X14278363Y-12745312D01*
X14459315Y-12973884D02*
X14345029Y-12973884D01*
X14402172Y-12973884D02*
X14402172Y-12773884D01*
X14402172Y-12773884D02*
X14383125Y-12802455D01*
X14383125Y-12802455D02*
X14364077Y-12821503D01*
X14364077Y-12821503D02*
X14345029Y-12831027D01*
X14535506Y-12792931D02*
X14545029Y-12783408D01*
X14545029Y-12783408D02*
X14564077Y-12773884D01*
X14564077Y-12773884D02*
X14611696Y-12773884D01*
X14611696Y-12773884D02*
X14630744Y-12783408D01*
X14630744Y-12783408D02*
X14640268Y-12792931D01*
X14640268Y-12792931D02*
X14649791Y-12811979D01*
X14649791Y-12811979D02*
X14649791Y-12831027D01*
X14649791Y-12831027D02*
X14640268Y-12859598D01*
X14640268Y-12859598D02*
X14525982Y-12973884D01*
X14525982Y-12973884D02*
X14649791Y-12973884D01*
X14725982Y-12792931D02*
X14735506Y-12783408D01*
X14735506Y-12783408D02*
X14754553Y-12773884D01*
X14754553Y-12773884D02*
X14802172Y-12773884D01*
X14802172Y-12773884D02*
X14821220Y-12783408D01*
X14821220Y-12783408D02*
X14830744Y-12792931D01*
X14830744Y-12792931D02*
X14840268Y-12811979D01*
X14840268Y-12811979D02*
X14840268Y-12831027D01*
X14840268Y-12831027D02*
X14830744Y-12859598D01*
X14830744Y-12859598D02*
X14716458Y-12973884D01*
X14716458Y-12973884D02*
X14840268Y-12973884D01*
X15078363Y-12973884D02*
X15078363Y-12773884D01*
X15164077Y-12973884D02*
X15164077Y-12869122D01*
X15164077Y-12869122D02*
X15154553Y-12850074D01*
X15154553Y-12850074D02*
X15135506Y-12840550D01*
X15135506Y-12840550D02*
X15106934Y-12840550D01*
X15106934Y-12840550D02*
X15087887Y-12850074D01*
X15087887Y-12850074D02*
X15078363Y-12859598D01*
X15287887Y-12973884D02*
X15268839Y-12964360D01*
X15268839Y-12964360D02*
X15259315Y-12954836D01*
X15259315Y-12954836D02*
X15249791Y-12935788D01*
X15249791Y-12935788D02*
X15249791Y-12878646D01*
X15249791Y-12878646D02*
X15259315Y-12859598D01*
X15259315Y-12859598D02*
X15268839Y-12850074D01*
X15268839Y-12850074D02*
X15287887Y-12840550D01*
X15287887Y-12840550D02*
X15316458Y-12840550D01*
X15316458Y-12840550D02*
X15335506Y-12850074D01*
X15335506Y-12850074D02*
X15345030Y-12859598D01*
X15345030Y-12859598D02*
X15354553Y-12878646D01*
X15354553Y-12878646D02*
X15354553Y-12935788D01*
X15354553Y-12935788D02*
X15345030Y-12954836D01*
X15345030Y-12954836D02*
X15335506Y-12964360D01*
X15335506Y-12964360D02*
X15316458Y-12973884D01*
X15316458Y-12973884D02*
X15287887Y-12973884D01*
X15468839Y-12973884D02*
X15449791Y-12964360D01*
X15449791Y-12964360D02*
X15440268Y-12945312D01*
X15440268Y-12945312D02*
X15440268Y-12773884D01*
X15621220Y-12964360D02*
X15602172Y-12973884D01*
X15602172Y-12973884D02*
X15564077Y-12973884D01*
X15564077Y-12973884D02*
X15545030Y-12964360D01*
X15545030Y-12964360D02*
X15535506Y-12945312D01*
X15535506Y-12945312D02*
X15535506Y-12869122D01*
X15535506Y-12869122D02*
X15545030Y-12850074D01*
X15545030Y-12850074D02*
X15564077Y-12840550D01*
X15564077Y-12840550D02*
X15602172Y-12840550D01*
X15602172Y-12840550D02*
X15621220Y-12850074D01*
X15621220Y-12850074D02*
X15630744Y-12869122D01*
X15630744Y-12869122D02*
X15630744Y-12888169D01*
X15630744Y-12888169D02*
X15535506Y-12907217D01*
X15706934Y-12964360D02*
X15725982Y-12973884D01*
X15725982Y-12973884D02*
X15764077Y-12973884D01*
X15764077Y-12973884D02*
X15783125Y-12964360D01*
X15783125Y-12964360D02*
X15792649Y-12945312D01*
X15792649Y-12945312D02*
X15792649Y-12935788D01*
X15792649Y-12935788D02*
X15783125Y-12916741D01*
X15783125Y-12916741D02*
X15764077Y-12907217D01*
X15764077Y-12907217D02*
X15735506Y-12907217D01*
X15735506Y-12907217D02*
X15716458Y-12897693D01*
X15716458Y-12897693D02*
X15706934Y-12878646D01*
X15706934Y-12878646D02*
X15706934Y-12869122D01*
X15706934Y-12869122D02*
X15716458Y-12850074D01*
X15716458Y-12850074D02*
X15735506Y-12840550D01*
X15735506Y-12840550D02*
X15764077Y-12840550D01*
X15764077Y-12840550D02*
X15783125Y-12850074D01*
X15859315Y-13050074D02*
X15868839Y-13040550D01*
X15868839Y-13040550D02*
X15887887Y-13011979D01*
X15887887Y-13011979D02*
X15897411Y-12992931D01*
X15897411Y-12992931D02*
X15906934Y-12964360D01*
X15906934Y-12964360D02*
X15916458Y-12916741D01*
X15916458Y-12916741D02*
X15916458Y-12878646D01*
X15916458Y-12878646D02*
X15906934Y-12831027D01*
X15906934Y-12831027D02*
X15897411Y-12802455D01*
X15897411Y-12802455D02*
X15887887Y-12783408D01*
X15887887Y-12783408D02*
X15868839Y-12754836D01*
X15868839Y-12754836D02*
X15859315Y-12745312D01*
M02*
