%TF.GenerationSoftware,KiCad,Pcbnew,8.0.6*%
%TF.CreationDate,2025-02-16T15:03:30+05:00*%
%TF.ProjectId,MegaCD-Connect BD Remake,4d656761-4344-42d4-936f-6e6e65637420,rev?*%
%TF.SameCoordinates,Original*%
%TF.FileFunction,Drillmap*%
%TF.FilePolarity,Positive*%
%FSLAX45Y45*%
G04 Gerber Fmt 4.5, Leading zero omitted, Abs format (unit mm)*
G04 Created by KiCad (PCBNEW 8.0.6) date 2025-02-16 15:03:30*
%MOMM*%
%LPD*%
G01*
G04 APERTURE LIST*
%ADD10C,0.100000*%
%ADD11C,0.200000*%
G04 APERTURE END LIST*
D10*
X11112500Y-10390420D02*
X11112500Y-10570760D01*
X11239160Y-7769140D02*
G75*
G02*
X10888640Y-7769140I-175260J0D01*
G01*
X10888640Y-7769140D02*
G75*
G02*
X11239160Y-7769140I175260J0D01*
G01*
X10708300Y-11709400D02*
X20508300Y-11709400D01*
X20045340Y-10586000D02*
X20507620Y-10586000D01*
X20045340Y-10108480D02*
X20045340Y-10586000D01*
X11112500Y-10570760D02*
X10708300Y-10570760D01*
X10708300Y-10390420D02*
X11112500Y-10390420D01*
X10708300Y-8378740D02*
X11102000Y-8378740D01*
X11234080Y-11264180D02*
G75*
G02*
X10883560Y-11264180I-175260J0D01*
G01*
X10883560Y-11264180D02*
G75*
G02*
X11234080Y-11264180I175260J0D01*
G01*
X10708300Y-7309400D02*
X10708300Y-8378740D01*
X20045340Y-8574320D02*
X20507620Y-8574320D01*
X11102000Y-8574320D02*
X10708300Y-8574320D01*
X20322200Y-11264180D02*
G75*
G02*
X19971680Y-11264180I-175260J0D01*
G01*
X19971680Y-11264180D02*
G75*
G02*
X20322200Y-11264180I175260J0D01*
G01*
X20045340Y-8378740D02*
X20045340Y-8574320D01*
X10708300Y-8574320D02*
X10708300Y-10390420D01*
X20508300Y-7309400D02*
X20507620Y-8378740D01*
X10708300Y-10570760D02*
X10708300Y-11709400D01*
X11437280Y-9516660D02*
G75*
G02*
X11086760Y-9516660I-175260J0D01*
G01*
X11086760Y-9516660D02*
G75*
G02*
X11437280Y-9516660I175260J0D01*
G01*
X20319660Y-7769140D02*
G75*
G02*
X19969140Y-7769140I-175260J0D01*
G01*
X19969140Y-7769140D02*
G75*
G02*
X20319660Y-7769140I175260J0D01*
G01*
X10708300Y-7309400D02*
X20508300Y-7309400D01*
X20119000Y-9516660D02*
G75*
G02*
X19768480Y-9516660I-175260J0D01*
G01*
X19768480Y-9516660D02*
G75*
G02*
X20119000Y-9516660I175260J0D01*
G01*
X20507620Y-10108480D02*
X20045340Y-10108480D01*
X20507620Y-8574320D02*
X20507620Y-10108480D01*
X20507620Y-8378740D02*
X20045340Y-8378740D01*
X11102000Y-8378740D02*
X11102000Y-8574320D01*
X20507620Y-10586000D02*
X20508300Y-11709400D01*
D11*
X10964077Y-12025884D02*
X10964077Y-11825884D01*
X10964077Y-11825884D02*
X11011696Y-11825884D01*
X11011696Y-11825884D02*
X11040267Y-11835408D01*
X11040267Y-11835408D02*
X11059315Y-11854455D01*
X11059315Y-11854455D02*
X11068839Y-11873503D01*
X11068839Y-11873503D02*
X11078363Y-11911598D01*
X11078363Y-11911598D02*
X11078363Y-11940169D01*
X11078363Y-11940169D02*
X11068839Y-11978265D01*
X11068839Y-11978265D02*
X11059315Y-11997312D01*
X11059315Y-11997312D02*
X11040267Y-12016360D01*
X11040267Y-12016360D02*
X11011696Y-12025884D01*
X11011696Y-12025884D02*
X10964077Y-12025884D01*
X11164077Y-12025884D02*
X11164077Y-11892550D01*
X11164077Y-11930646D02*
X11173601Y-11911598D01*
X11173601Y-11911598D02*
X11183124Y-11902074D01*
X11183124Y-11902074D02*
X11202172Y-11892550D01*
X11202172Y-11892550D02*
X11221220Y-11892550D01*
X11287886Y-12025884D02*
X11287886Y-11892550D01*
X11287886Y-11825884D02*
X11278362Y-11835408D01*
X11278362Y-11835408D02*
X11287886Y-11844931D01*
X11287886Y-11844931D02*
X11297410Y-11835408D01*
X11297410Y-11835408D02*
X11287886Y-11825884D01*
X11287886Y-11825884D02*
X11287886Y-11844931D01*
X11411696Y-12025884D02*
X11392648Y-12016360D01*
X11392648Y-12016360D02*
X11383124Y-11997312D01*
X11383124Y-11997312D02*
X11383124Y-11825884D01*
X11516458Y-12025884D02*
X11497410Y-12016360D01*
X11497410Y-12016360D02*
X11487886Y-11997312D01*
X11487886Y-11997312D02*
X11487886Y-11825884D01*
X11745029Y-12025884D02*
X11745029Y-11825884D01*
X11745029Y-11825884D02*
X11811696Y-11968741D01*
X11811696Y-11968741D02*
X11878362Y-11825884D01*
X11878362Y-11825884D02*
X11878362Y-12025884D01*
X12059315Y-12025884D02*
X12059315Y-11921122D01*
X12059315Y-11921122D02*
X12049791Y-11902074D01*
X12049791Y-11902074D02*
X12030743Y-11892550D01*
X12030743Y-11892550D02*
X11992648Y-11892550D01*
X11992648Y-11892550D02*
X11973601Y-11902074D01*
X12059315Y-12016360D02*
X12040267Y-12025884D01*
X12040267Y-12025884D02*
X11992648Y-12025884D01*
X11992648Y-12025884D02*
X11973601Y-12016360D01*
X11973601Y-12016360D02*
X11964077Y-11997312D01*
X11964077Y-11997312D02*
X11964077Y-11978265D01*
X11964077Y-11978265D02*
X11973601Y-11959217D01*
X11973601Y-11959217D02*
X11992648Y-11949693D01*
X11992648Y-11949693D02*
X12040267Y-11949693D01*
X12040267Y-11949693D02*
X12059315Y-11940169D01*
X12154553Y-11892550D02*
X12154553Y-12092550D01*
X12154553Y-11902074D02*
X12173601Y-11892550D01*
X12173601Y-11892550D02*
X12211696Y-11892550D01*
X12211696Y-11892550D02*
X12230743Y-11902074D01*
X12230743Y-11902074D02*
X12240267Y-11911598D01*
X12240267Y-11911598D02*
X12249791Y-11930646D01*
X12249791Y-11930646D02*
X12249791Y-11987788D01*
X12249791Y-11987788D02*
X12240267Y-12006836D01*
X12240267Y-12006836D02*
X12230743Y-12016360D01*
X12230743Y-12016360D02*
X12211696Y-12025884D01*
X12211696Y-12025884D02*
X12173601Y-12025884D01*
X12173601Y-12025884D02*
X12154553Y-12016360D01*
X12335505Y-12006836D02*
X12345029Y-12016360D01*
X12345029Y-12016360D02*
X12335505Y-12025884D01*
X12335505Y-12025884D02*
X12325982Y-12016360D01*
X12325982Y-12016360D02*
X12335505Y-12006836D01*
X12335505Y-12006836D02*
X12335505Y-12025884D01*
X12335505Y-11902074D02*
X12345029Y-11911598D01*
X12345029Y-11911598D02*
X12335505Y-11921122D01*
X12335505Y-11921122D02*
X12325982Y-11911598D01*
X12325982Y-11911598D02*
X12335505Y-11902074D01*
X12335505Y-11902074D02*
X12335505Y-11921122D01*
M02*
