M48
; DRILL file {KiCad 8.0.6} date 2025-02-16T15:03:29+0500
; FORMAT={-:-/ absolute / metric / decimal}
; #@! TF.CreationDate,2025-02-16T15:03:29+05:00
; #@! TF.GenerationSoftware,Kicad,Pcbnew,8.0.6
; #@! TF.FileFunction,Plated,1,2,PTH
FMAT,2
METRIC
; #@! TA.AperFunction,Plated,PTH,ViaDrill
T1C0.300
; #@! TA.AperFunction,Plated,PTH,ComponentDrill
T2C0.800
; #@! TA.AperFunction,Plated,PTH,ComponentDrill
T3C1.000
%
G90
G05
T1
X113.665Y-75.184
X113.665Y-80.264
X113.665Y-85.344
X113.665Y-90.424
X116.332Y-75.184
X116.332Y-80.264
X116.332Y-85.344
X116.332Y-112.649
X116.332Y-114.808
X118.115Y-103.662
X120.396Y-102.362
X122.936Y-77.47
X123.063Y-81.534
X123.063Y-95.242
X124.206Y-102.362
X125.476Y-77.47
X125.476Y-83.566
X126.746Y-104.14
X128.778Y-102.108
X128.905Y-89.154
X128.905Y-92.456
X130.556Y-83.566
X130.556Y-102.362
X133.096Y-77.47
X133.096Y-83.566
X133.096Y-102.362
X135.636Y-89.154
X135.636Y-92.456
X135.636Y-102.362
X135.636Y-113.792
X138.176Y-102.362
X140.716Y-90.678
X140.716Y-102.362
X140.716Y-112.141
X140.716Y-116.078
X140.836Y-84.495
X141.616Y-104.062
X141.986Y-107.569
X142.016Y-83.494
X144.399Y-104.14
X145.034Y-89.154
X145.034Y-92.329
X147.447Y-78.232
X147.828Y-90.805
X148.336Y-76.2
X149.098Y-77.978
X149.86Y-77.978
X149.987Y-81.915
X150.368Y-92.615
X150.368Y-101.161
X152.273Y-102.362
X152.908Y-89.114
X153.416Y-112.141
X155.748Y-100.965
X155.748Y-102.871
X156.048Y-92.915
X157.226Y-111.506
X157.275Y-102.871
X160.528Y-91.715
X162.306Y-77.216
X162.687Y-92.915
X163.322Y-89.714
X164.368Y-91.115
X165.608Y-90.514
X166.116Y-115.785
X167.894Y-84.074
X168.148Y-89.916
X168.148Y-101.854
X168.656Y-112.141
X169.048Y-104.072
X169.248Y-84.328
X169.926Y-77.47
X171.196Y-111.506
X172.212Y-104.14
X172.466Y-77.47
X173.609Y-100.584
X173.609Y-112.649
X173.814Y-92.515
X174.216Y-81.593
X175.006Y-77.47
X175.006Y-89.154
X176.53Y-100.584
X178.054Y-103.124
X178.308Y-91.694
X178.816Y-73.914
X180.086Y-77.187
X180.086Y-101.346
X180.721Y-102.616
X180.721Y-103.632
X181.991Y-113.185
X182.421Y-103.886
X182.626Y-78.387
X183.007Y-101.6
X183.134Y-90.713
X183.861Y-81.593
X184.234Y-89.758
X184.834Y-100.871
X185.634Y-101.871
X187.96Y-78.359
X189.314Y-89.758
X189.484Y-96.901
X189.879Y-90.713
X190.246Y-78.105
X190.754Y-92.115
X191.516Y-108.105
X192.151Y-101.871
X193.421Y-101.854
X194.437Y-78.105
X195.834Y-90.17
X195.834Y-109.982
X195.961Y-79.502
X196.215Y-103.886
X197.866Y-103.886
X198.628Y-111.252
X198.628Y-115.316
X202.692Y-86.868
X202.692Y-90.932
X202.692Y-94.996
X202.692Y-99.06
T2
X112.776Y-98.542
X112.776Y-106.162
X115.316Y-98.542
X115.316Y-106.162
X117.856Y-98.542
X117.856Y-106.162
X120.396Y-98.542
X120.396Y-106.162
X122.936Y-98.542
X122.936Y-106.162
X125.476Y-86.995
X125.476Y-94.615
X125.476Y-98.542
X125.476Y-106.162
X128.016Y-86.995
X128.016Y-94.615
X128.016Y-98.542
X128.016Y-106.162
X130.556Y-86.995
X130.556Y-94.615
X130.556Y-98.542
X130.556Y-106.162
X133.096Y-86.995
X133.096Y-94.615
X133.096Y-98.542
X133.096Y-106.162
X135.636Y-86.995
X135.636Y-94.615
X135.636Y-98.542
X135.636Y-106.162
X138.176Y-86.995
X138.176Y-94.615
X138.176Y-98.542
X138.176Y-106.162
X140.716Y-86.995
X140.716Y-94.615
X140.716Y-98.542
X140.716Y-106.162
X145.288Y-86.995
X145.288Y-94.615
X145.288Y-98.552
X145.288Y-106.172
X145.415Y-83.693
X147.828Y-86.995
X147.828Y-94.615
X147.828Y-98.552
X147.828Y-106.172
X147.955Y-83.693
X150.368Y-86.995
X150.368Y-94.615
X150.368Y-98.552
X150.368Y-106.172
X150.495Y-83.693
X152.908Y-86.995
X152.908Y-94.615
X152.908Y-98.552
X152.908Y-106.172
X153.035Y-83.693
X155.448Y-86.995
X155.448Y-94.615
X155.448Y-98.552
X155.448Y-106.172
X155.575Y-83.693
X157.988Y-86.995
X157.988Y-94.615
X157.988Y-98.552
X157.988Y-106.172
X158.115Y-83.693
X160.528Y-86.995
X160.528Y-94.615
X160.528Y-98.552
X160.528Y-106.172
X160.655Y-83.693
X163.068Y-86.995
X163.068Y-94.615
X163.068Y-98.552
X163.068Y-106.172
X163.195Y-83.693
X165.608Y-86.995
X165.608Y-94.615
X165.608Y-98.552
X165.608Y-106.172
X165.735Y-83.693
X168.148Y-86.995
X168.148Y-94.615
X168.148Y-98.552
X168.148Y-106.172
X172.974Y-86.995
X172.974Y-94.615
X172.974Y-98.552
X172.974Y-106.172
X173.101Y-83.693
X175.514Y-86.995
X175.514Y-94.615
X175.514Y-98.552
X175.514Y-106.172
X175.641Y-83.693
X178.054Y-86.995
X178.054Y-94.615
X178.054Y-98.552
X178.054Y-106.172
X178.181Y-83.693
X180.594Y-86.995
X180.594Y-94.615
X180.594Y-98.552
X180.594Y-106.172
X180.721Y-83.693
X183.134Y-86.995
X183.134Y-94.615
X183.134Y-98.552
X183.134Y-106.172
X183.261Y-83.693
X185.674Y-86.995
X185.674Y-94.615
X185.674Y-98.552
X185.674Y-106.172
X185.801Y-83.693
X188.214Y-86.995
X188.214Y-94.615
X188.214Y-98.552
X188.214Y-106.172
X188.341Y-83.693
X190.754Y-86.995
X190.754Y-94.615
X190.754Y-98.552
X190.754Y-106.172
X190.881Y-83.693
X193.294Y-86.995
X193.294Y-94.615
X193.294Y-98.552
X193.294Y-106.172
X193.421Y-83.693
X195.834Y-86.995
X195.834Y-94.615
X195.834Y-98.552
X195.834Y-106.172
T3
X118.364Y-89.54
X118.364Y-92.08
X119.126Y-75.057
X119.126Y-80.137
X119.126Y-109.855
X119.126Y-114.935
X121.666Y-75.057
X121.666Y-80.137
X121.666Y-109.855
X121.666Y-114.935
X124.206Y-75.057
X124.206Y-80.137
X124.206Y-109.855
X124.206Y-114.935
X126.746Y-75.057
X126.746Y-80.137
X126.746Y-109.855
X126.746Y-114.935
X129.286Y-75.057
X129.286Y-80.137
X129.286Y-109.855
X129.286Y-114.935
X131.826Y-75.057
X131.826Y-80.137
X131.826Y-109.855
X131.826Y-114.935
X134.366Y-75.057
X134.366Y-80.137
X134.366Y-109.855
X134.366Y-114.935
X136.906Y-75.057
X136.906Y-80.137
X136.906Y-109.855
X136.906Y-114.935
X139.446Y-75.057
X139.446Y-80.137
X139.446Y-109.855
X139.446Y-114.935
X141.986Y-75.057
X141.986Y-80.137
X141.986Y-109.855
X141.986Y-114.935
X144.526Y-75.057
X144.526Y-80.137
X144.526Y-109.855
X144.526Y-114.935
X147.066Y-75.057
X147.066Y-80.137
X147.066Y-109.855
X147.066Y-114.935
X149.606Y-75.057
X149.606Y-80.137
X149.606Y-109.855
X149.606Y-114.935
X152.146Y-75.057
X152.146Y-80.137
X152.146Y-109.855
X152.146Y-114.935
X154.686Y-75.057
X154.686Y-80.137
X154.686Y-109.855
X154.686Y-114.935
X157.226Y-75.057
X157.226Y-80.137
X157.226Y-109.855
X157.226Y-114.935
X159.766Y-75.057
X159.766Y-80.137
X159.766Y-109.855
X159.766Y-114.935
X162.306Y-75.057
X162.306Y-80.137
X162.306Y-109.855
X162.306Y-114.935
X164.846Y-75.057
X164.846Y-80.137
X164.846Y-109.855
X164.846Y-114.935
X167.386Y-75.057
X167.386Y-80.137
X167.386Y-109.855
X167.386Y-114.935
X169.926Y-75.057
X169.926Y-80.137
X169.926Y-109.855
X169.926Y-114.935
X172.466Y-75.057
X172.466Y-80.137
X172.466Y-109.855
X172.466Y-114.935
X175.006Y-75.057
X175.006Y-80.137
X175.006Y-109.855
X175.006Y-114.935
X177.546Y-75.057
X177.546Y-80.137
X177.546Y-109.855
X177.546Y-114.935
X180.086Y-75.057
X180.086Y-80.137
X180.086Y-109.855
X180.086Y-114.935
X182.626Y-75.057
X182.626Y-80.137
X182.626Y-109.855
X182.626Y-114.935
X185.166Y-75.057
X185.166Y-80.137
X185.166Y-109.855
X185.166Y-114.935
X187.706Y-75.057
X187.706Y-80.137
X187.706Y-109.855
X187.706Y-114.935
X190.246Y-75.057
X190.246Y-80.137
X190.246Y-109.855
X190.246Y-114.935
X192.786Y-75.057
X192.786Y-80.137
X192.786Y-109.855
X192.786Y-114.935
M30
